  0
SECTION
  2
HEADER
  9
$ACADVER
  1
AC1015
  9
$ACADMAINTVER
 70
     6
  9
$DWGCODEPAGE
  3
ANSI_1252
  9
$INSBASE
 10
0.0
 20
0.0
 30
0.0
  9
$EXTMIN
 10
0.0
 20
0.0
 30
0.0
  9
$EXTMAX
 10
210.0
 20
297.0
 30
0.0
  9
$LIMMIN
 10
0.0
 20
0.0
  9
$LIMMAX
 10
210.0
 20
297.0
  9
$ORTHOMODE
 70
     0
  9
$REGENMODE
 70
     1
  9
$FILLMODE
 70
     1
  9
$QTEXTMODE
 70
     0
  9
$MIRRTEXT
 70
     1
  9
$LTSCALE
 40
1.0
  9
$ATTMODE
 70
     1
  9
$TEXTSIZE
 40
3.5
  9
$TRACEWID
 40
1.0
  9
$TEXTSTYLE
  7
Standard
  9
$CLAYER
  8
0
  9
$CELTYPE
  6
ByLayer
  9
$CECOLOR
 62
   256
  9
$CELTSCALE
 40
1.0
  9
$DISPSILH
 70
     0
  9
$DIMSCALE
 40
1.0
  9
$DIMASZ
 40
3.302
  9
$DIMEXO
 40
1.0
  9
$DIMDLI
 40
3.75
  9
$DIMRND
 40
0.0
  9
$DIMDLE
 40
0.0
  9
$DIMEXE
 40
1.0
  9
$DIMTP
 40
0.0
  9
$DIMTM
 40
0.0
  9
$DIMTXT
 40
3.5
  9
$DIMCEN
 40
2.5
  9
$DIMTSZ
 40
0.0
  9
$DIMTOL
 70
     0
  9
$DIMLIM
 70
     0
  9
$DIMTIH
 70
     1
  9
$DIMTOH
 70
     1
  9
$DIMSE1
 70
     0
  9
$DIMSE2
 70
     0
  9
$DIMTAD
 70
     1
  9
$DIMZIN
 70
     1
  9
$DIMBLK
  1

  9
$DIMASO
 70
     1
  9
$DIMSHO
 70
     1
  9
$DIMPOST
  1

  9
$DIMAPOST
  1

  9
$DIMALT
 70
     0
  9
$DIMALTD
 70
     3
  9
$DIMALTF
 40
0.0393700787
  9
$DIMLFAC
 40
5.0
  9
$DIMTOFL
 70
     1
  9
$DIMTVP
 40
0.0
  9
$DIMTIX
 70
     0
  9
$DIMSOXD
 70
     0
  9
$DIMSAH
 70
     0
  9
$DIMBLK1
  1

  9
$DIMBLK2
  1

  9
$DIMSTYLE
  2
ISO-25
  9
$DIMCLRD
 70
     0
  9
$DIMCLRE
 70
     0
  9
$DIMCLRT
 70
     0
  9
$DIMTFAC
 40
1.0
  9
$DIMGAP
 40
1.524
  9
$DIMJUST
 70
     0
  9
$DIMSD1
 70
     0
  9
$DIMSD2
 70
     0
  9
$DIMTOLJ
 70
     0
  9
$DIMTZIN
 70
     1
  9
$DIMALTZ
 70
     0
  9
$DIMALTTZ
 70
     0
  9
$DIMUPT
 70
     0
  9
$DIMDEC
 70
     2
  9
$DIMTDEC
 70
     2
  9
$DIMALTU
 70
     2
  9
$DIMALTTD
 70
     3
  9
$DIMTXSTY
  7
Standard
  9
$DIMAUNIT
 70
     0
  9
$DIMADEC
 70
     2
  9
$DIMALTRND
 40
0.0
  9
$DIMAZIN
 70
     0
  9
$DIMDSEP
 70
    44
  9
$DIMATFIT
 70
     3
  9
$DIMFRAC
 70
     0
  9
$DIMLDRBLK
  1

  9
$DIMLUNIT
 70
     2
  9
$DIMLWD
 70
    -2
  9
$DIMLWE
 70
    -2
  9
$DIMTMOVE
 70
     0
  9
$LUNITS
 70
     2
  9
$LUPREC
 70
     2
  9
$SKETCHINC
 40
1.0
  9
$FILLETRAD
 40
10.0
  9
$AUNITS
 70
     0
  9
$AUPREC
 70
     2
  9
$MENU
  1
.
  9
$ELEVATION
 40
0.0
  9
$PELEVATION
 40
0.0
  9
$THICKNESS
 40
0.0
  9
$LIMCHECK
 70
     0
  9
$CHAMFERA
 40
0.0
  9
$CHAMFERB
 40
0.0
  9
$CHAMFERC
 40
0.0
  9
$CHAMFERD
 40
0.0
  9
$SKPOLY
 70
     0
  9
$TDCREATE
 40
2461048.462310081
  9
$TDUCREATE
 40
2461048.170643414
  9
$TDUPDATE
 40
2461048.462312407
  9
$TDUUPDATE
 40
2461048.170645741
  9
$TDINDWG
 40
0.0000000116
  9
$TDUSRTIMER
 40
0.0000000116
  9
$USRTIMER
 70
     1
  9
$ANGBASE
 50
0.0
  9
$ANGDIR
 70
     0
  9
$PDMODE
 70
     0
  9
$PDSIZE
 40
-1.0
  9
$PLINEWID
 40
0.0
  9
$SPLFRAME
 70
     0
  9
$SPLINETYPE
 70
     6
  9
$SPLINESEGS
 70
     8
  9
$HANDSEED
  5
DD
  9
$SURFTAB1
 70
     6
  9
$SURFTAB2
 70
     6
  9
$SURFTYPE
 70
     6
  9
$SURFU
 70
     6
  9
$SURFV
 70
     6
  9
$UCSBASE
  2

  9
$UCSNAME
  2

  9
$UCSORG
 10
0.0
 20
0.0
 30
0.0
  9
$UCSXDIR
 10
1.0
 20
0.0
 30
0.0
  9
$UCSYDIR
 10
0.0
 20
1.0
 30
0.0
  9
$UCSORTHOREF
  2

  9
$UCSORTHOVIEW
 70
     0
  9
$UCSORGTOP
 10
0.0
 20
0.0
 30
0.0
  9
$UCSORGBOTTOM
 10
0.0
 20
0.0
 30
0.0
  9
$UCSORGLEFT
 10
0.0
 20
0.0
 30
0.0
  9
$UCSORGRIGHT
 10
0.0
 20
0.0
 30
0.0
  9
$UCSORGFRONT
 10
0.0
 20
0.0
 30
0.0
  9
$UCSORGBACK
 10
0.0
 20
0.0
 30
0.0
  9
$PUCSBASE
  2

  9
$PUCSNAME
  2

  9
$PUCSORG
 10
0.0
 20
0.0
 30
0.0
  9
$PUCSXDIR
 10
1.0
 20
0.0
 30
0.0
  9
$PUCSYDIR
 10
0.0
 20
1.0
 30
0.0
  9
$PUCSORTHOREF
  2

  9
$PUCSORTHOVIEW
 70
     0
  9
$PUCSORGTOP
 10
0.0
 20
0.0
 30
0.0
  9
$PUCSORGBOTTOM
 10
0.0
 20
0.0
 30
0.0
  9
$PUCSORGLEFT
 10
0.0
 20
0.0
 30
0.0
  9
$PUCSORGRIGHT
 10
0.0
 20
0.0
 30
0.0
  9
$PUCSORGFRONT
 10
0.0
 20
0.0
 30
0.0
  9
$PUCSORGBACK
 10
0.0
 20
0.0
 30
0.0
  9
$USERI1
 70
     0
  9
$USERI2
 70
     0
  9
$USERI3
 70
     0
  9
$USERI4
 70
     0
  9
$USERI5
 70
     0
  9
$USERR1
 40
0.0
  9
$USERR2
 40
0.0
  9
$USERR3
 40
0.0
  9
$USERR4
 40
0.0
  9
$USERR5
 40
0.0
  9
$WORLDVIEW
 70
     1
  9
$SHADEDGE
 70
     3
  9
$SHADEDIF
 70
    70
  9
$TILEMODE
 70
     1
  9
$MAXACTVP
 70
    64
  9
$PINSBASE
 10
0.0
 20
0.0
 30
0.0
  9
$PLIMCHECK
 70
     0
  9
$PEXTMIN
 10
1.0000000000E+20
 20
1.0000000000E+20
 30
1.0000000000E+20
  9
$PEXTMAX
 10
-1.0000000000E+20
 20
-1.0000000000E+20
 30
-1.0000000000E+20
  9
$PLIMMIN
 10
0.0
 20
0.0
  9
$PLIMMAX
 10
420.0
 20
297.0
  9
$UNITMODE
 70
     0
  9
$VISRETAIN
 70
     1
  9
$PLINEGEN
 70
     0
  9
$PSLTSCALE
 70
     1
  9
$TREEDEPTH
 70
  3020
  9
$CMLSTYLE
  2
Standard
  9
$CMLJUST
 70
     0
  9
$CMLSCALE
 40
20.0
  9
$PROXYGRAPHICS
 70
     1
  9
$MEASUREMENT
 70
     1
  9
$CELWEIGHT
370
    -1
  9
$ENDCAPS
280
     0
  9
$JOINSTYLE
280
     0
  9
$LWDISPLAY
290
     1
  9
$INSUNITS
 70
     4
  9
$HYPERLINKBASE
  1

  9
$STYLESHEET
  1

  9
$XEDIT
290
     1
  9
$CEPSNTYPE
380
     0
  9
$PSTYLEMODE
290
     1
  9
$FINGERPRINTGUID
  2
{D8DA9F2B-0442-4BA5-AFC6-DFFDDF2EC52D}
  9
$VERSIONGUID
  2
{FAEB1C32-E019-11D5-929B-00C0DF256EC4}
  9
$EXTNAMES
290
     1
  9
$PSVPSCALE
 40
0.0
  9
$OLESTARTUP
290
     0
  0
ENDSEC
  0
SECTION
  2
CLASSES
  0
CLASS
  1
ACDBDICTIONARYWDFLT
  2
AcDbDictionaryWithDefault
  3
ObjectDBX Classes
 90
        0
280
     0
281
     0
  0
CLASS
  1
VISUALSTYLE
  2
AcDbVisualStyle
  3
ObjectDBX Classes
 90
     4095
280
     0
281
     0
  0
CLASS
  1
MATERIAL
  2
AcDbMaterial
  3
ObjectDBX Classes
 90
     1153
280
     0
281
     0
  0
CLASS
  1
SCALE
  2
AcDbScale
  3
ObjectDBX Classes
 90
     1153
280
     0
281
     0
  0
CLASS
  1
TABLESTYLE
  2
AcDbTableStyle
  3
ObjectDBX Classes
 90
     4095
280
     0
281
     0
  0
CLASS
  1
MLEADERSTYLE
  2
AcDbMLeaderStyle
  3
ACDB_MLEADERSTYLE_CLASS
 90
     4095
280
     0
281
     0
  0
CLASS
  1
SUN
  2
AcDbSun
  3
SCENEOE
 90
     1153
280
     0
281
     0
  0
CLASS
  1
ACDBPLACEHOLDER
  2
AcDbPlaceHolder
  3
ObjectDBX Classes
 90
        0
280
     0
281
     0
  0
CLASS
  1
LAYOUT
  2
AcDbLayout
  3
ObjectDBX Classes
 90
        0
280
     0
281
     0
  0
ENDSEC
  0
SECTION
  2
TABLES
  0
TABLE
  2
VPORT
  5
8
330
0
100
AcDbSymbolTable
 70
     1
  0
VPORT
  5
29
330
8
100
AcDbSymbolTableRecord
100
AcDbViewportTableRecord
  2
*Active
 70
     0
 10
0.0
 20
0.0
 11
1.0
 21
1.0
 12
105.0
 22
148.5
 13
0.0
 23
0.0
 14
10.0
 24
10.0
 15
10.0
 25
10.0
 16
0.0
 26
0.0
 36
1.0
 17
0.0
 27
0.0
 37
0.0
 40
297.0
 41
0.7070707071
 42
50.0
 43
0.0
 44
0.0
 50
0.0
 51
0.0
 71
     0
 72
  2000
 73
     1
 74
     3
 75
     0
 76
     0
 77
     0
 78
     0
281
     0
 65
     1
110
0.0
120
0.0
130
0.0
111
1.0
121
0.0
131
0.0
112
0.0
122
1.0
132
0.0
 79
     0
146
0.0
  0
ENDTAB
  0
TABLE
  2
LTYPE
  5
5
330
0
100
AcDbSymbolTable
 70
     6
  0
LTYPE
  5
14
330
5
100
AcDbSymbolTableRecord
100
AcDbLinetypeTableRecord
  2
ByBlock
 70
     0
  3

 72
    65
 73
     0
 40
0.0
  0
LTYPE
  5
15
330
5
100
AcDbSymbolTableRecord
100
AcDbLinetypeTableRecord
  2
ByLayer
 70
     0
  3

 72
    65
 73
     0
 40
0.0
  0
LTYPE
  5
16
330
5
100
AcDbSymbolTableRecord
100
AcDbLinetypeTableRecord
  2
Continuous
 70
     0
  3
Solid line
 72
    65
 73
     0
 40
0.0
  0
LTYPE
  5
6E
330
5
100
AcDbSymbolTableRecord
100
AcDbLinetypeTableRecord
  2
HIDDEN
 70
     0
  3
Hidden __ __ __ __ __ __ __ __ __ __ __ __ __ __
 72
    65
 73
     2
 40
1.905
 49
1.27
 74
     0
 49
-0.635
 74
     0
  0
LTYPE
  5
6F
330
5
100
AcDbSymbolTableRecord
100
AcDbLinetypeTableRecord
  2
PHANTOM
 70
     0
  3
Phantom ______  __  __  ______  __  __  ______
 72
    65
 73
     6
 40
12.7
 49
6.35
 74
     0
 49
-1.27
 74
     0
 49
1.27
 74
     0
 49
-1.27
 74
     0
 49
1.27
 74
     0
 49
-1.27
 74
     0
  0
LTYPE
  5
70
330
5
100
AcDbSymbolTableRecord
100
AcDbLinetypeTableRecord
  2
CENTER
 70
     0
  3
Center ____ _ ____ _ ____ _ ____ _ ____ _ ____
 72
    65
 73
     4
 40
10.16
 49
6.35
 74
     0
 49
-1.27
 74
     0
 49
1.27
 74
     0
 49
-1.27
 74
     0
  0
LTYPE
  5
71
330
5
100
AcDbSymbolTableRecord
100
AcDbLinetypeTableRecord
  2
CENTERX2
 70
     0
  3
Center (2x) ________  __  ________  __  _____
 72
    65
 73
     4
 40
20.32
 49
12.7
 74
     0
 49
-2.54
 74
     0
 49
2.54
 74
     0
 49
-2.54
 74
     0
  0
LTYPE
  5
72
330
5
100
AcDbSymbolTableRecord
100
AcDbLinetypeTableRecord
  2
DOT2
 70
     0
  3
Dot (.5x) ........................................
 72
    65
 73
     2
 40
0.635
 49
0.0
 74
     0
 49
-0.635
 74
     0
  0
ENDTAB
  0
TABLE
  2
LAYER
  5
2
330
0
100
AcDbSymbolTable
 70
     1
  0
LAYER
  5
10
330
2
100
AcDbSymbolTableRecord
100
AcDbLayerTableRecord
  2
0
 70
     0
 62
     7
  6
Continuous
370
    -3
390
F
  0
ENDTAB
  0
TABLE
  2
STYLE
  5
3
330
0
100
AcDbSymbolTable
 70
     1
  0
STYLE
  5
11
330
3
100
AcDbSymbolTableRecord
100
AcDbTextStyleTableRecord
  2
Standard
 70
     0
 40
0.0
 41
1.0
 50
0.0
 71
     0
 42
3.5
  3
txt
  4

  0
ENDTAB
  0
TABLE
  2
VIEW
  5
6
330
0
100
AcDbSymbolTable
 70
     0
  0
ENDTAB
  0
TABLE
  2
UCS
  5
7
330
0
100
AcDbSymbolTable
 70
     0
  0
ENDTAB
  0
TABLE
  2
APPID
  5
9
330
0
100
AcDbSymbolTable
 70
     1
  0
APPID
  5
12
330
9
100
AcDbSymbolTableRecord
100
AcDbRegAppTableRecord
  2
ACAD
 70
     0
  0
ENDTAB
  0
TABLE
  2
DIMSTYLE
  5
A
330
0
100
AcDbSymbolTable
 70
     1
100
AcDbDimStyleTable
  0
DIMSTYLE
105
27
330
A
100
AcDbSymbolTableRecord
100
AcDbDimStyleTableRecord
  2
ISO-25
 70
     0
 41
2.5
 42
0.625
 43
3.75
 44
1.25
 73
     0
 74
     0
 77
     1
 78
     8
140
2.5
141
2.5
143
0.0393700787
147
0.625
171
     3
172
     1
178
     0
271
     2
272
     2
274
     3
278
    44
283
     0
284
     8
340
11
  0
ENDTAB
  0
TABLE
  2
BLOCK_RECORD
  5
1
330
0
100
AcDbSymbolTable
 70
     1
  0
BLOCK_RECORD
  5
1F
330
1
100
AcDbSymbolTableRecord
100
AcDbBlockTableRecord
  2
*Model_Space
340
22
  0
BLOCK_RECORD
  5
1B
330
1
100
AcDbSymbolTableRecord
100
AcDbBlockTableRecord
  2
*Paper_Space
340
1E
  0
BLOCK_RECORD
  5
23
330
1
100
AcDbSymbolTableRecord
100
AcDbBlockTableRecord
  2
*Paper_Space0
340
26
  0
ENDTAB
  0
ENDSEC
  0
SECTION
  2
BLOCKS
  0
BLOCK
  5
20
330
1F
100
AcDbEntity
  8
0
100
AcDbBlockBegin
  2
*Model_Space
 70
     0
 10
0.0
 20
0.0
 30
0.0
  3
*Model_Space
  1

  0
ENDBLK
  5
21
330
1F
100
AcDbEntity
  8
0
100
AcDbBlockEnd
  0
BLOCK
  5
1C
330
1B
100
AcDbEntity
 67
     1
  8
0
100
AcDbBlockBegin
  2
*Paper_Space
 70
     0
 10
0.0
 20
0.0
 30
0.0
  3
*Paper_Space
  1

  0
ENDBLK
  5
1D
330
1B
100
AcDbEntity
 67
     1
  8
0
100
AcDbBlockEnd
  0
BLOCK
  5
24
330
23
100
AcDbEntity
  8
0
100
AcDbBlockBegin
  2
*Paper_Space0
 70
     0
 10
0.0
 20
0.0
 30
0.0
  3
*Paper_Space0
  1

  0
ENDBLK
  5
25
330
23
100
AcDbEntity
  8
0
100
AcDbBlockEnd
  0
ENDSEC
  0
SECTION
  2
ENTITIES
  0
LINE
  5
73
330
1F
100
AcDbEntity
  8
0
  6
Continuous
 62
     7
370
    25
100
AcDbLine
 10
43.2037304156
 20
137.6778619833
 30
0.0
 11
17.6037304156
 21
137.6778619833
 31
0.0
  0
LINE
  5
74
330
1F
100
AcDbEntity
  8
0
  6
Continuous
 62
     7
370
    25
100
AcDbLine
 10
43.2037304156
 20
141.2778619833
 30
0.0
 11
43.2037304156
 21
137.6778619833
 31
0.0
  0
LINE
  5
75
330
1F
100
AcDbEntity
  8
0
  6
Continuous
 62
     7
370
    25
100
AcDbLine
 10
17.6037304156
 20
141.2778619833
 30
0.0
 11
43.2037304156
 21
141.2778619833
 31
0.0
  0
LINE
  5
76
330
1F
100
AcDbEntity
  8
0
  6
Continuous
 62
     7
370
    25
100
AcDbLine
 10
17.6037304156
 20
137.6778619833
 30
0.0
 11
17.6037304156
 21
141.2778619833
 31
0.0
  0
LINE
  5
77
330
1F
100
AcDbEntity
  8
0
  6
Continuous
 62
     7
370
    25
100
AcDbLine
 10
91.5370637489
 20
137.6778619833
 30
0.0
 11
65.9370637489
 21
137.6778619833
 31
0.0
  0
LINE
  5
78
330
1F
100
AcDbEntity
  8
0
  6
Continuous
 62
     7
370
    25
100
AcDbLine
 10
91.5370637489
 20
141.2778619833
 30
0.0
 11
91.5370637489
 21
137.6778619833
 31
0.0
  0
LINE
  5
79
330
1F
100
AcDbEntity
  8
0
  6
Continuous
 62
     7
370
    25
100
AcDbLine
 10
65.9370637489
 20
141.2778619833
 30
0.0
 11
91.5370637489
 21
141.2778619833
 31
0.0
  0
LINE
  5
7A
330
1F
100
AcDbEntity
  8
0
  6
Continuous
 62
     7
370
    25
100
AcDbLine
 10
65.9370637489
 20
137.6778619833
 30
0.0
 11
65.9370637489
 21
141.2778619833
 31
0.0
  0
LINE
  5
7B
330
1F
100
AcDbEntity
  8
0
  6
Continuous
 62
     7
370
    25
100
AcDbLine
 10
139.8703970823
 20
137.6778619833
 30
0.0
 11
114.2703970823
 21
137.6778619833
 31
0.0
  0
LINE
  5
7C
330
1F
100
AcDbEntity
  8
0
  6
Continuous
 62
     7
370
    25
100
AcDbLine
 10
139.8703970823
 20
141.2778619833
 30
0.0
 11
139.8703970823
 21
137.6778619833
 31
0.0
  0
LINE
  5
7D
330
1F
100
AcDbEntity
  8
0
  6
Continuous
 62
     7
370
    25
100
AcDbLine
 10
114.2703970823
 20
141.2778619833
 30
0.0
 11
139.8703970823
 21
141.2778619833
 31
0.0
  0
LINE
  5
7E
330
1F
100
AcDbEntity
  8
0
  6
Continuous
 62
     7
370
    25
100
AcDbLine
 10
114.2703970823
 20
137.6778619833
 30
0.0
 11
114.2703970823
 21
141.2778619833
 31
0.0
  0
LINE
  5
7F
330
1F
100
AcDbEntity
  8
0
  6
Continuous
 62
     7
370
    25
100
AcDbLine
 10
188.2037304156
 20
137.6778619833
 30
0.0
 11
162.6037304156
 21
137.6778619833
 31
0.0
  0
LINE
  5
80
330
1F
100
AcDbEntity
  8
0
  6
Continuous
 62
     7
370
    25
100
AcDbLine
 10
188.2037304156
 20
141.2778619833
 30
0.0
 11
188.2037304156
 21
137.6778619833
 31
0.0
  0
LINE
  5
81
330
1F
100
AcDbEntity
  8
0
  6
Continuous
 62
     7
370
    25
100
AcDbLine
 10
162.6037304156
 20
141.2778619833
 30
0.0
 11
188.2037304156
 21
141.2778619833
 31
0.0
  0
LINE
  5
82
330
1F
100
AcDbEntity
  8
0
  6
Continuous
 62
     7
370
    25
100
AcDbLine
 10
162.6037304156
 20
137.6778619833
 30
0.0
 11
162.6037304156
 21
141.2778619833
 31
0.0
  0
LINE
  5
83
330
1F
100
AcDbEntity
  8
0
  6
Continuous
 62
     7
370
    25
100
AcDbLine
 10
162.6037304156
 20
234.2778619833
 30
0.0
 11
188.2037304156
 21
234.2778619833
 31
0.0
  0
LINE
  5
84
330
1F
100
AcDbEntity
  8
0
  6
Continuous
 62
     7
370
    25
100
AcDbLine
 10
162.6037304156
 20
230.6778619833
 30
0.0
 11
162.6037304156
 21
234.2778619833
 31
0.0
  0
LINE
  5
85
330
1F
100
AcDbEntity
  8
0
  6
Continuous
 62
     7
370
    25
100
AcDbLine
 10
188.2037304156
 20
230.6778619833
 30
0.0
 11
162.6037304156
 21
230.6778619833
 31
0.0
  0
LINE
  5
86
330
1F
100
AcDbEntity
  8
0
  6
Continuous
 62
     7
370
    25
100
AcDbLine
 10
188.2037304156
 20
234.2778619833
 30
0.0
 11
188.2037304156
 21
230.6778619833
 31
0.0
  0
LINE
  5
87
330
1F
100
AcDbEntity
  8
0
  6
Continuous
 62
     7
370
    25
100
AcDbLine
 10
114.2703970823
 20
234.2778619833
 30
0.0
 11
139.8703970823
 21
234.2778619833
 31
0.0
  0
LINE
  5
88
330
1F
100
AcDbEntity
  8
0
  6
Continuous
 62
     7
370
    25
100
AcDbLine
 10
114.2703970823
 20
230.6778619833
 30
0.0
 11
114.2703970823
 21
234.2778619833
 31
0.0
  0
LINE
  5
89
330
1F
100
AcDbEntity
  8
0
  6
Continuous
 62
     7
370
    25
100
AcDbLine
 10
139.8703970823
 20
230.6778619833
 30
0.0
 11
114.2703970823
 21
230.6778619833
 31
0.0
  0
LINE
  5
8A
330
1F
100
AcDbEntity
  8
0
  6
Continuous
 62
     7
370
    25
100
AcDbLine
 10
139.8703970823
 20
234.2778619833
 30
0.0
 11
139.8703970823
 21
230.6778619833
 31
0.0
  0
LINE
  5
8B
330
1F
100
AcDbEntity
  8
0
  6
Continuous
 62
     7
370
    25
100
AcDbLine
 10
65.9370637489
 20
234.2778619833
 30
0.0
 11
91.5370637489
 21
234.2778619833
 31
0.0
  0
LINE
  5
8C
330
1F
100
AcDbEntity
  8
0
  6
Continuous
 62
     7
370
    25
100
AcDbLine
 10
65.9370637489
 20
230.6778619833
 30
0.0
 11
65.9370637489
 21
234.2778619833
 31
0.0
  0
LINE
  5
8D
330
1F
100
AcDbEntity
  8
0
  6
Continuous
 62
     7
370
    25
100
AcDbLine
 10
91.5370637489
 20
230.6778619833
 30
0.0
 11
65.9370637489
 21
230.6778619833
 31
0.0
  0
LINE
  5
8E
330
1F
100
AcDbEntity
  8
0
  6
Continuous
 62
     7
370
    25
100
AcDbLine
 10
91.5370637489
 20
234.2778619833
 30
0.0
 11
91.5370637489
 21
230.6778619833
 31
0.0
  0
LINE
  5
8F
330
1F
100
AcDbEntity
  8
0
  6
Continuous
 62
     7
370
    25
100
AcDbLine
 10
17.6037304156
 20
234.2778619833
 30
0.0
 11
43.2037304156
 21
234.2778619833
 31
0.0
  0
LINE
  5
90
330
1F
100
AcDbEntity
  8
0
  6
Continuous
 62
     7
370
    25
100
AcDbLine
 10
17.6037304156
 20
230.6778619833
 30
0.0
 11
17.6037304156
 21
234.2778619833
 31
0.0
  0
LINE
  5
91
330
1F
100
AcDbEntity
  8
0
  6
Continuous
 62
     7
370
    25
100
AcDbLine
 10
43.2037304156
 20
230.6778619833
 30
0.0
 11
17.6037304156
 21
230.6778619833
 31
0.0
  0
LINE
  5
92
330
1F
100
AcDbEntity
  8
0
  6
Continuous
 62
     7
370
    25
100
AcDbLine
 10
43.2037304156
 20
234.2778619833
 30
0.0
 11
43.2037304156
 21
230.6778619833
 31
0.0
  0
SPLINE
  5
93
330
1F
100
AcDbEntity
  8
0
  6
Continuous
 62
     7
370
    25
100
AcDbSpline
210
0.0
220
0.0
230
1.0
 70
     8
 71
     3
 72
    60
 73
    56
 74
     0
 42
0.000000001
 43
0.00000001
 40
0.0
 40
0.0
 40
0.0
 40
0.0
 40
0.0230300214869025
 40
0.045629931483646
 40
0.0678087416284586
 40
0.0895759865717961
 40
0.1109417519644008
 40
0.1319167026104784
 40
0.1525121104433887
 40
0.1727398819075741
 40
0.192612584250631
 40
0.212143470145261
 40
0.2313464999751445
 40
0.2502363610352641
 40
0.2688284828210861
 40
0.2871390475183306
 40
0.3051849947633521
 40
0.322984019731399
 40
0.3405545636347947
 40
0.3579157957832949
 40
0.3750875864811821
 40
0.3920904702140934
 40
0.4089455988135055
 40
0.4256746845738048
 40
0.4422999336261711
 40
0.4588439702296085
 40
0.475329753002152
 40
0.4917804844605419
 40
0.5082195155394584
 40
0.5246702469978484
 40
0.5411560297703921
 40
0.5577000663738295
 40
0.5743253154261949
 40
0.5910544011864957
 40
0.607909529785908
 40
0.6249124135188188
 40
0.6420842042167055
 40
0.6594454363652059
 40
0.6770159802686017
 40
0.6948150052366487
 40
0.7128609524816698
 40
0.7311715171789147
 40
0.749763638964736
 40
0.7686535000248561
 40
0.787856529854739
 40
0.8073874157493693
 40
0.827260118092426
 40
0.8474878895566117
 40
0.8680832973895216
 40
0.8890582480355992
 40
0.9104240134282043
 40
0.9321912583715414
 40
0.9543700685163528
 40
0.976969978513098
 40
0.9999999999999999
 40
0.9999999999999999
 40
0.9999999999999999
 40
0.9999999999999999
 10
7.90373041558999
 20
95.97786198334589
 30
0.0
 10
7.904737119225596
 20
95.7909511475139
 30
0.0
 10
7.906731725176877
 20
95.4206202454165
 30
0.0
 10
7.923229323317613
 20
94.87048963250622
 30
0.0
 10
7.949679422601649
 20
94.33103075879322
 30
0.0
 10
7.987000839175945
 20
93.80224291763332
 30
0.0
 10
8.034955079629036
 20
93.28412580554931
 30
0.0
 10
8.093605239713558
 20
92.77667905829429
 30
0.0
 10
8.162935951768645
 20
92.27990238885766
 30
0.0
 10
8.242952410103255
 20
91.7937955711505
 30
0.0
 10
8.333654563635855
 20
91.31835846631449
 30
0.0
 10
8.4350438392614
 20
90.85359104008873
 30
0.0
 10
8.547121379927706
 20
90.39949338421556
 30
0.0
 10
8.669888490351122
 20
89.95606573778892
 30
0.0
 10
8.803346500619009
 20
89.52330850861203
 30
0.0
 10
8.947496775026098
 20
89.10122229323497
 30
0.0
 10
9.102340675872261
 20
88.68980789440161
 30
0.0
 10
9.267879531944079
 20
88.2890663343551
 30
0.0
 10
9.444114599194837
 20
87.89899886234335
 30
0.0
 10
9.631047018013428
 20
87.5196069546509
 30
0.0
 10
9.82867776773426
 20
87.15089230563005
 30
0.0
 10
10.0370076207067
 20
86.79285680853518
 30
0.0
 10
10.25603709842418
 20
86.44550252550076
 30
0.0
 10
10.48576643261123
 20
86.10883164671998
 30
0.0
 10
10.72619553424792
 20
85.78284643974425
 30
0.0
 10
10.97732397332434
 20
85.46754919074306
 30
0.0
 10
11.23915097161256
 20
85.16294214043798
 30
0.0
 10
11.51167540993678
 20
84.86902741813381
 30
0.0
 10
11.79489585037789
 20
84.58580697769266
 30
0.0
 10
12.08881057268212
 20
84.31328253936844
 30
0.0
 10
12.39341762298714
 20
84.0514555410802
 30
0.0
 10
12.70871487198837
 20
83.80032710200383
 30
0.0
 10
13.03470007896407
 20
83.55989800036707
 30
0.0
 10
13.3713709577449
 20
83.33016866618007
 30
0.0
 10
13.71872524077933
 20
83.11113918846262
 30
0.0
 10
14.07676073787416
 20
82.90280933549013
 30
0.0
 10
14.44547538689504
 20
82.70517858576937
 30
0.0
 10
14.82486729458743
 20
82.5182461669507
 30
0.0
 10
15.21493476659923
 20
82.3420110997
 30
0.0
 10
15.61567632664575
 20
82.17647224362815
 30
0.0
 10
16.02709072547909
 20
82.02162834278197
 30
0.0
 10
16.44917694085617
 20
81.8774780683749
 30
0.0
 10
16.88193417003303
 20
81.74402005810701
 30
0.0
 10
17.32536181645968
 20
81.62125294768357
 30
0.0
 10
17.77945947233282
 20
81.50917540701725
 30
0.0
 10
18.2442268985586
 20
81.40778613139182
 30
0.0
 10
18.71966400339462
 20
81.31708397785914
 30
0.0
 10
19.20577082110178
 20
81.23706751952457
 30
0.0
 10
19.70254749053838
 20
81.16773680746942
 30
0.0
 10
20.20999423779341
 20
81.10908664738496
 30
0.0
 10
20.72811134987741
 20
81.06113240693183
 30
0.0
 10
21.25689919103733
 20
81.02381099035755
 30
0.0
 10
21.79635806475029
 20
80.99736089107347
 30
0.0
 10
22.34648867766059
 20
80.98086329293278
 30
0.0
 10
22.71681957975796
 20
80.97886868698149
 30
0.0
 10
22.90373041558999
 20
80.97786198334587
 30
0.0
  0
LINE
  5
94
330
1F
100
AcDbEntity
  8
0
  6
Continuous
 62
     7
370
    25
100
AcDbLine
 10
7.9037304156
 20
275.9778619833
 30
0.0
 11
7.9037304156
 21
95.9778619833
 31
0.0
  0
SPLINE
  5
95
330
1F
100
AcDbEntity
  8
0
  6
Continuous
 62
     7
370
    25
100
AcDbSpline
210
0.0
220
0.0
230
1.0
 70
     8
 71
     3
 72
    60
 73
    56
 74
     0
 42
0.000000001
 43
0.00000001
 40
0.0
 40
0.0
 40
0.0
 40
0.0
 40
0.023030021486902
 40
0.0456299314836471
 40
0.0678087416284586
 40
0.0895759865717957
 40
0.1109417519644009
 40
0.1319167026104785
 40
0.1525121104433889
 40
0.1727398819075741
 40
0.1926125842506307
 40
0.2121434701452611
 40
0.2313464999751441
 40
0.2502363610352643
 40
0.2688284828210854
 40
0.2871390475183308
 40
0.305184994763352
 40
0.3229840197313985
 40
0.3405545636347952
 40
0.3579157957832951
 40
0.3750875864811813
 40
0.3920904702140932
 40
0.4089455988135045
 40
0.4256746845738058
 40
0.4422999336261706
 40
0.458843970229608
 40
0.4753297530021518
 40
0.4917804844605421
 40
0.5082195155394582
 40
0.5246702469978483
 40
0.5411560297703917
 40
0.5577000663738294
 40
0.574325315426195
 40
0.5910544011864952
 40
0.6079095297859075
 40
0.6249124135188183
 40
0.6420842042167055
 40
0.6594454363652057
 40
0.6770159802686022
 40
0.6948150052366481
 40
0.7128609524816693
 40
0.7311715171789146
 40
0.7497636389647359
 40
0.7686535000248566
 40
0.7878565298547391
 40
0.8073874157493689
 40
0.827260118092426
 40
0.8474878895566111
 40
0.8680832973895222
 40
0.8890582480355992
 40
0.9104240134282038
 40
0.932191258371542
 40
0.9543700685163541
 40
0.9769699785130981
 40
1.0
 40
1.0
 40
1.0
 40
1.0
 10
22.90373041558999
 20
290.9778619833459
 30
0.0
 10
22.71681957975796
 20
290.9768552797103
 30
0.0
 10
22.34648867766056
 20
290.974860673759
 30
0.0
 10
21.79635806475035
 20
290.9583630756182
 30
0.0
 10
21.25689919103731
 20
290.9319129763343
 30
0.0
 10
20.72811134987744
 20
290.8945915597598
 30
0.0
 10
20.20999423779341
 20
290.8466373193068
 30
0.0
 10
19.70254749053836
 20
290.7879871592224
 30
0.0
 10
19.20577082110177
 20
290.7186564471672
 30
0.0
 10
18.71966400339464
 20
290.6386399888326
 30
0.0
 10
18.2442268985586
 20
290.5479378353
 30
0.0
 10
17.77945947233284
 20
290.4465485596745
 30
0.0
 10
17.32536181645968
 20
290.3344710190082
 30
0.0
 10
16.88193417003303
 20
290.2117039085847
 30
0.0
 10
16.44917694085617
 20
290.0782458983169
 30
0.0
 10
16.02709072547907
 20
289.9340956239097
 30
0.0
 10
15.61567632664573
 20
289.7792517230636
 30
0.0
 10
15.21493476659923
 20
289.6137128669918
 30
0.0
 10
14.82486729458743
 20
289.437477799741
 30
0.0
 10
14.44547538689504
 20
289.2505453809224
 30
0.0
 10
14.07676073787416
 20
289.0529146312016
 30
0.0
 10
13.71872524077929
 20
288.8445847782291
 30
0.0
 10
13.37137095774486
 20
288.6255553005117
 30
0.0
 10
13.03470007896409
 20
288.3958259663247
 30
0.0
 10
12.70871487198835
 20
288.1553968646879
 30
0.0
 10
12.39341762298712
 20
287.9042684256115
 30
0.0
 10
12.08881057268214
 20
287.6424414273233
 30
0.0
 10
11.79489585037788
 20
287.3699169889991
 30
0.0
 10
11.51167540993678
 20
287.0866965485579
 30
0.0
 10
11.23915097161256
 20
286.7927818262537
 30
0.0
 10
10.97732397332434
 20
286.4881747759487
 30
0.0
 10
10.72619553424793
 20
286.1728775269475
 30
0.0
 10
10.48576643261127
 20
285.8468923199717
 30
0.0
 10
10.25603709842418
 20
285.510221441191
 30
0.0
 10
10.03700762070671
 20
285.1628671581565
 30
0.0
 10
9.82867776773426
 20
284.8048316610617
 30
0.0
 10
9.631047018013442
 20
284.4361170120409
 30
0.0
 10
9.444114599194837
 20
284.0567251043484
 30
0.0
 10
9.26787953194412
 20
283.6666576323366
 30
0.0
 10
9.102340675872304
 20
283.2659160722901
 30
0.0
 10
8.947496775026098
 20
282.8545016734567
 30
0.0
 10
8.803346500618966
 20
282.4324154580797
 30
0.0
 10
8.669888490351136
 20
281.9996582289028
 30
0.0
 10
8.547121379927718
 20
281.5562305824762
 30
0.0
 10
8.435043839261358
 20
281.102132926603
 30
0.0
 10
8.333654563635855
 20
280.6373655003773
 30
0.0
 10
8.24295241010327
 20
280.1619283955412
 30
0.0
 10
8.162935951768729
 20
279.675821577834
 30
0.0
 10
8.093605239713488
 20
279.1790449083974
 30
0.0
 10
8.034955079629064
 20
278.6715981611424
 30
0.0
 10
7.987000839175987
 20
278.1534810490584
 30
0.0
 10
7.949679422601635
 20
277.6246932078985
 30
0.0
 10
7.923229323317655
 20
277.0852343341855
 30
0.0
 10
7.906731725176877
 20
276.5351037212752
 30
0.0
 10
7.904737119225569
 20
276.1647728191779
 30
0.0
 10
7.90373041558999
 20
275.9778619833459
 30
0.0
  0
LINE
  5
96
330
1F
100
AcDbEntity
  8
0
  6
Continuous
 62
     7
370
    25
100
AcDbLine
 10
182.9037304156
 20
290.9778619833
 30
0.0
 11
22.9037304156
 21
290.9778619833
 31
0.0
  0
SPLINE
  5
97
330
1F
100
AcDbEntity
  8
0
  6
Continuous
 62
     7
370
    25
100
AcDbSpline
210
0.0
220
0.0
230
1.0
 70
     8
 71
     3
 72
    60
 73
    56
 74
     0
 42
0.000000001
 43
0.00000001
 40
0.0
 40
0.0
 40
0.0
 40
0.0
 40
0.023030021486902
 40
0.045629931483646
 40
0.067808741628458
 40
0.0895759865717962
 40
0.1109417519644009
 40
0.131916702610479
 40
0.1525121104433882
 40
0.1727398819075742
 40
0.1926125842506307
 40
0.212143470145261
 40
0.2313464999751443
 40
0.2502363610352643
 40
0.268828482821086
 40
0.287139047518331
 40
0.3051849947633525
 40
0.3229840197313987
 40
0.3405545636347949
 40
0.3579157957832949
 40
0.3750875864811821
 40
0.3920904702140934
 40
0.4089455988135047
 40
0.4256746845738056
 40
0.4422999336261715
 40
0.4588439702296085
 40
0.4753297530021519
 40
0.4917804844605422
 40
0.5082195155394584
 40
0.5246702469978487
 40
0.5411560297703921
 40
0.5577000663738295
 40
0.5743253154261955
 40
0.5910544011864958
 40
0.6079095297859071
 40
0.6249124135188189
 40
0.6420842042167063
 40
0.6594454363652056
 40
0.6770159802686014
 40
0.6948150052366481
 40
0.7128609524816693
 40
0.7311715171789146
 40
0.7497636389647359
 40
0.7686535000248556
 40
0.7878565298547391
 40
0.8073874157493695
 40
0.8272601180924265
 40
0.8474878895566117
 40
0.8680832973895216
 40
0.8890582480355992
 40
0.910424013428205
 40
0.932191258371542
 40
0.9543700685163529
 40
0.9769699785130981
 40
1.0
 40
1.0
 40
1.0
 40
1.0
 10
197.90373041559
 20
275.9778619833459
 30
0.0
 10
197.9027237119544
 20
276.1647728191779
 30
0.0
 10
197.9007291060031
 20
276.5351037212753
 30
0.0
 10
197.8842315078623
 20
277.0852343341855
 30
0.0
 10
197.8577814085783
 20
277.6246932078985
 30
0.0
 10
197.820459992004
 20
278.1534810490584
 30
0.0
 10
197.772505751551
 20
278.6715981611425
 30
0.0
 10
197.7138555914665
 20
279.1790449083975
 30
0.0
 10
197.6445248794113
 20
279.6758215778341
 30
0.0
 10
197.5645084210767
 20
280.1619283955412
 30
0.0
 10
197.4738062675441
 20
280.6373655003773
 30
0.0
 10
197.3724169919186
 20
281.102132926603
 30
0.0
 10
197.2603394512523
 20
281.5562305824762
 30
0.0
 10
197.1375723408288
 20
281.9996582289028
 30
0.0
 10
197.0041143305611
 20
282.4324154580797
 30
0.0
 10
196.8599640561538
 20
282.8545016734568
 30
0.0
 10
196.7051201553078
 20
283.2659160722901
 30
0.0
 10
196.5395812992359
 20
283.6666576323366
 30
0.0
 10
196.3633462319852
 20
284.0567251043484
 30
0.0
 10
196.1764138131665
 20
284.4361170120409
 30
0.0
 10
195.9787830634457
 20
284.8048316610618
 30
0.0
 10
195.7704532104732
 20
285.1628671581565
 30
0.0
 10
195.5514237327558
 20
285.510221441191
 30
0.0
 10
195.3216943985687
 20
285.8468923199717
 30
0.0
 10
195.0812652969321
 20
286.1728775269476
 30
0.0
 10
194.8301368578556
 20
286.4881747759487
 30
0.0
 10
194.5683098595674
 20
286.7927818262537
 30
0.0
 10
194.2957854212432
 20
287.086696548558
 30
0.0
 10
194.0125649808021
 20
287.3699169889991
 30
0.0
 10
193.7186502584979
 20
287.6424414273233
 30
0.0
 10
193.4140432081928
 20
287.9042684256115
 30
0.0
 10
193.0987459591916
 20
288.1553968646879
 30
0.0
 10
192.7727607522158
 20
288.3958259663247
 30
0.0
 10
192.4360898734351
 20
288.6255553005116
 30
0.0
 10
192.0887355904007
 20
288.8445847782291
 30
0.0
 10
191.7307000933058
 20
289.0529146312016
 30
0.0
 10
191.361985444285
 20
289.2505453809223
 30
0.0
 10
190.9825935365926
 20
289.437477799741
 30
0.0
 10
190.5925260645808
 20
289.6137128669917
 30
0.0
 10
190.1917845045342
 20
289.7792517230635
 30
0.0
 10
189.7803701057009
 20
289.9340956239097
 30
0.0
 10
189.3582838903238
 20
290.0782458983169
 30
0.0
 10
188.925526661147
 20
290.2117039085848
 30
0.0
 10
188.4820990147203
 20
290.3344710190082
 30
0.0
 10
188.0280013588472
 20
290.4465485596745
 30
0.0
 10
187.5632339326214
 20
290.5479378352999
 30
0.0
 10
187.0877968277853
 20
290.6386399888326
 30
0.0
 10
186.6016900100782
 20
290.7186564471672
 30
0.0
 10
186.1049133406416
 20
290.7879871592224
 30
0.0
 10
185.5974665933866
 20
290.8466373193068
 30
0.0
 10
185.0793494813025
 20
290.8945915597598
 30
0.0
 10
184.5505616401426
 20
290.9319129763343
 30
0.0
 10
184.0111027664297
 20
290.9583630756183
 30
0.0
 10
183.4609721535194
 20
290.974860673759
 30
0.0
 10
183.090641251422
 20
290.9768552797103
 30
0.0
 10
182.90373041559
 20
290.9778619833459
 30
0.0
  0
LINE
  5
98
330
1F
100
AcDbEntity
  8
0
  6
Continuous
 62
     7
370
    25
100
AcDbLine
 10
197.9037304156
 20
95.9778619833
 30
0.0
 11
197.9037304156
 21
275.9778619833
 31
0.0
  0
SPLINE
  5
99
330
1F
100
AcDbEntity
  8
0
  6
Continuous
 62
     7
370
    25
100
AcDbSpline
210
0.0
220
0.0
230
1.0
 70
     8
 71
     3
 72
    60
 73
    56
 74
     0
 42
0.000000001
 43
0.00000001
 40
0.0
 40
0.0
 40
0.0
 40
0.0
 40
0.023030021486902
 40
0.0456299314836471
 40
0.0678087416284585
 40
0.089575986571795
 40
0.1109417519644008
 40
0.1319167026104784
 40
0.1525121104433877
 40
0.172739881907574
 40
0.1926125842506305
 40
0.2121434701452611
 40
0.231346499975144
 40
0.250236361035264
 40
0.268828482821086
 40
0.2871390475183307
 40
0.3051849947633519
 40
0.3229840197313991
 40
0.340554563634794
 40
0.3579157957832945
 40
0.3750875864811812
 40
0.3920904702140928
 40
0.4089455988135045
 40
0.4256746845738046
 40
0.442299933626171
 40
0.4588439702296084
 40
0.4753297530021517
 40
0.4917804844605417
 40
0.5082195155394582
 40
0.5246702469978481
 40
0.5411560297703919
 40
0.5577000663738285
 40
0.5743253154261949
 40
0.5910544011864951
 40
0.6079095297859073
 40
0.6249124135188181
 40
0.6420842042167052
 40
0.6594454363652057
 40
0.6770159802686013
 40
0.6948150052366487
 40
0.7128609524816689
 40
0.731171517178914
 40
0.7497636389647357
 40
0.7686535000248561
 40
0.7878565298547391
 40
0.8073874157493693
 40
0.8272601180924254
 40
0.8474878895566111
 40
0.868083297389521
 40
0.8890582480355992
 40
0.9104240134282038
 40
0.9321912583715414
 40
0.954370068516354
 40
0.9769699785130974
 40
1.0
 40
1.0
 40
1.0
 40
1.0
 10
182.90373041559
 20
80.97786198334587
 30
0.0
 10
183.090641251422
 20
80.97886868698149
 30
0.0
 10
183.4609721535194
 20
80.98086329293277
 30
0.0
 10
184.0111027664297
 20
80.99736089107348
 30
0.0
 10
184.5505616401426
 20
81.02381099035752
 30
0.0
 10
185.0793494813026
 20
81.06113240693185
 30
0.0
 10
185.5974665933865
 20
81.10908664738494
 30
0.0
 10
186.1049133406416
 20
81.16773680746937
 30
0.0
 10
186.6016900100782
 20
81.23706751952463
 30
0.0
 10
187.0877968277854
 20
81.31708397785913
 30
0.0
 10
187.5632339326214
 20
81.40778613139179
 30
0.0
 10
188.0280013588471
 20
81.5091754070173
 30
0.0
 10
188.4820990147203
 20
81.62125294768363
 30
0.0
 10
188.925526661147
 20
81.744020058107
 30
0.0
 10
189.3582838903238
 20
81.8774780683749
 30
0.0
 10
189.7803701057009
 20
82.02162834278201
 30
0.0
 10
190.1917845045342
 20
82.17647224362817
 30
0.0
 10
190.5925260645807
 20
82.3420110997
 30
0.0
 10
190.9825935365926
 20
82.51824616695068
 30
0.0
 10
191.361985444285
 20
82.70517858576933
 30
0.0
 10
191.7307000933058
 20
82.90280933549009
 30
0.0
 10
192.0887355904006
 20
83.11113918846263
 30
0.0
 10
192.4360898734351
 20
83.33016866618004
 30
0.0
 10
192.7727607522159
 20
83.55989800036714
 30
0.0
 10
193.0987459591916
 20
83.80032710200378
 30
0.0
 10
193.4140432081928
 20
84.05145554108022
 30
0.0
 10
193.7186502584978
 20
84.31328253936849
 30
0.0
 10
194.0125649808021
 20
84.58580697769264
 30
0.0
 10
194.2957854212432
 20
84.86902741813381
 30
0.0
 10
194.5683098595674
 20
85.16294214043799
 30
0.0
 10
194.8301368578556
 20
85.46754919074301
 30
0.0
 10
195.081265296932
 20
85.78284643974428
 30
0.0
 10
195.3216943985687
 20
86.10883164671999
 30
0.0
 10
195.5514237327558
 20
86.44550252550079
 30
0.0
 10
195.7704532104732
 20
86.7928568085352
 30
0.0
 10
195.9787830634457
 20
87.15089230563004
 30
0.0
 10
196.1764138131665
 20
87.51960695465091
 30
0.0
 10
196.3633462319851
 20
87.89899886234335
 30
0.0
 10
196.5395812992359
 20
88.2890663343551
 30
0.0
 10
196.7051201553077
 20
88.68980789440165
 30
0.0
 10
196.8599640561539
 20
89.10122229323497
 30
0.0
 10
197.004114330561
 20
89.52330850861203
 30
0.0
 10
197.1375723408288
 20
89.95606573778895
 30
0.0
 10
197.2603394512523
 20
90.39949338421555
 30
0.0
 10
197.3724169919186
 20
90.85359104008873
 30
0.0
 10
197.473806267544
 20
91.3183584663145
 30
0.0
 10
197.5645084210767
 20
91.7937955711505
 30
0.0
 10
197.6445248794113
 20
92.27990238885768
 30
0.0
 10
197.7138555914665
 20
92.77667905829423
 30
0.0
 10
197.7725057515509
 20
93.2841258055493
 30
0.0
 10
197.820459992004
 20
93.80224291763332
 30
0.0
 10
197.8577814085783
 20
94.33103075879322
 30
0.0
 10
197.8842315078623
 20
94.87048963250625
 30
0.0
 10
197.9007291060031
 20
95.42062024541646
 30
0.0
 10
197.9027237119544
 20
95.79095114751387
 30
0.0
 10
197.90373041559
 20
95.97786198334589
 30
0.0
  0
LINE
  5
9A
330
1F
100
AcDbEntity
  8
0
  6
Continuous
 62
     7
370
    25
100
AcDbLine
 10
22.9037304156
 20
80.9778619833
 30
0.0
 11
182.9037304156
 21
80.9778619833
 31
0.0
  0
CIRCLE
  5
9B
330
1F
100
AcDbEntity
  8
0
  6
Continuous
 62
     7
370
    25
100
AcDbCircle
 10
102.9037304156
 20
186.2778619833
 30
0.0
 40
35.00000000000001
  0
CIRCLE
  5
9C
330
1F
100
AcDbEntity
  8
0
  6
Continuous
 62
     7
370
    25
100
AcDbCircle
 10
187.8587309781
 20
181.5280307309
 30
0.0
 40
2.100000000000023
  0
CIRCLE
  5
9D
330
1F
100
AcDbEntity
  8
0
  6
Continuous
 62
     7
370
    25
100
AcDbCircle
 10
187.9037304156
 20
190.527918233
 30
0.0
 40
2.099999999999994
  0
CIRCLE
  5
9E
330
1F
100
AcDbEntity
  8
0
  6
Continuous
 62
     7
370
    25
100
AcDbCircle
 10
17.9037304156
 20
95.9778619834
 30
0.0
 40
3.499999999999989
  0
CIRCLE
  5
9F
330
1F
100
AcDbEntity
  8
0
  6
Continuous
 62
     7
370
    25
100
AcDbCircle
 10
110.9037304156
 20
247.9778619831
 30
0.0
 40
3.500000000000028
  0
CIRCLE
  5
A0
330
1F
100
AcDbEntity
  8
0
  6
Continuous
 62
     7
370
    25
100
AcDbCircle
 10
187.9037304156
 20
123.9778619833
 30
0.0
 40
3.5
  0
CIRCLE
  5
A1
330
1F
100
AcDbEntity
  8
0
  6
Continuous
 62
     7
370
    25
100
AcDbCircle
 10
187.9037304156
 20
95.9778619833
 30
0.0
 40
3.5
  0
CIRCLE
  5
A2
330
1F
100
AcDbEntity
  8
0
  6
Continuous
 62
     7
370
    25
100
AcDbCircle
 10
110.9037304156
 20
123.9778619831
 30
0.0
 40
3.5
  0
CIRCLE
  5
A3
330
1F
100
AcDbEntity
  8
0
  6
Continuous
 62
     7
370
    25
100
AcDbCircle
 10
187.9037304156
 20
275.9778619833
 30
0.0
 40
3.499999999999972
  0
CIRCLE
  5
A4
330
1F
100
AcDbEntity
  8
0
  6
Continuous
 62
     7
370
    25
100
AcDbCircle
 10
187.9037304156
 20
247.9778619833
 30
0.0
 40
3.500000000000028
  0
CIRCLE
  5
A5
330
1F
100
AcDbEntity
  8
0
  6
Continuous
 62
     7
370
    25
100
AcDbCircle
 10
110.9037304156
 20
275.9778619831
 30
0.0
 40
3.499999999999986
  0
CIRCLE
  5
A6
330
1F
100
AcDbEntity
  8
0
  6
Continuous
 62
     7
370
    25
100
AcDbCircle
 10
17.9037304156
 20
247.9778619834
 30
0.0
 40
3.500000000000018
  0
CIRCLE
  5
A7
330
1F
100
AcDbEntity
  8
0
  6
Continuous
 62
     7
370
    25
100
AcDbCircle
 10
94.9037304156
 20
123.9778619836
 30
0.0
 40
3.5
  0
CIRCLE
  5
A8
330
1F
100
AcDbEntity
  8
0
  6
Continuous
 62
     7
370
    25
100
AcDbCircle
 10
94.9037304156
 20
95.9778619836
 30
0.0
 40
3.500000000000014
  0
CIRCLE
  5
A9
330
1F
100
AcDbEntity
  8
0
  6
Continuous
 62
     7
370
    25
100
AcDbCircle
 10
17.9037304156
 20
123.9778619834
 30
0.0
 40
3.500000000000018
  0
CIRCLE
  5
AA
330
1F
100
AcDbEntity
  8
0
  6
Continuous
 62
     7
370
    25
100
AcDbCircle
 10
110.9037304156
 20
95.9778619831
 30
0.0
 40
3.5
  0
CIRCLE
  5
AB
330
1F
100
AcDbEntity
  8
0
  6
Continuous
 62
     7
370
    25
100
AcDbCircle
 10
94.9037304156
 20
275.9778619836
 30
0.0
 40
3.499999999999986
  0
CIRCLE
  5
AC
330
1F
100
AcDbEntity
  8
0
  6
Continuous
 62
     7
370
    25
100
AcDbCircle
 10
94.9037304156
 20
247.9778619836
 30
0.0
 40
3.500000000000028
  0
CIRCLE
  5
AD
330
1F
100
AcDbEntity
  8
0
  6
Continuous
 62
     7
370
    25
100
AcDbCircle
 10
17.9037304156
 20
275.9778619834
 30
0.0
 40
3.499999999999989
  0
CIRCLE
  5
AE
330
1F
100
AcDbEntity
  8
0
  6
Continuous
 62
     7
370
    25
100
AcDbCircle
 10
37.6092830772
 20
185.9778619833
 30
0.0
 40
1.499999999999986
  0
CIRCLE
  5
AF
330
1F
100
AcDbEntity
  8
0
  6
Continuous
 62
     7
370
    25
100
AcDbCircle
 10
30.1655436111
 20
185.9778619833
 30
0.0
 40
1.499999999999986
  0
CIRCLE
  5
B0
330
1F
100
AcDbEntity
  8
0
  6
Continuous
 62
     7
370
    25
100
AcDbCircle
 10
177.7705740162
 20
185.9778619833
 30
0.0
 40
3.0
  0
LINE
  5
B1
330
1F
100
AcDbEntity
  8
0
  6
Continuous
 62
     7
370
    25
100
AcDbLine
 10
69.2124521116
 20
44.5488268411
 30
0.0
 11
69.2124521116
 21
40.9488268411
 31
0.0
  0
LINE
  5
B2
330
1F
100
AcDbEntity
  8
0
  6
Continuous
 62
     7
370
    25
100
AcDbLine
 10
69.2124521116
 20
40.9488268411
 30
0.0
 11
99.8124521116
 21
40.9488268411
 31
0.0
  0
LINE
  5
B3
330
1F
100
AcDbEntity
  8
0
  6
Continuous
 62
     7
370
    25
100
AcDbLine
 10
99.8124521116
 20
40.9488268411
 30
0.0
 11
99.8124521116
 21
44.5488268411
 31
0.0
  0
LINE
  5
B4
330
1F
100
AcDbEntity
  8
0
  6
Continuous
 62
     7
370
    25
100
AcDbLine
 10
99.8124521116
 20
44.5488268411
 30
0.0
 11
69.2124521116
 21
44.5488268411
 31
0.0
  0
LINE
  5
B5
330
1F
100
AcDbEntity
  8
0
  6
Continuous
 62
     7
370
    25
100
AcDbLine
 10
109.2124521116
 20
44.5488268411
 30
0.0
 11
109.2124521116
 21
40.9488268411
 31
0.0
  0
LINE
  5
B6
330
1F
100
AcDbEntity
  8
0
  6
Continuous
 62
     7
370
    25
100
AcDbLine
 10
109.2124521116
 20
40.9488268411
 30
0.0
 11
139.8124521116
 21
40.9488268411
 31
0.0
  0
LINE
  5
B7
330
1F
100
AcDbEntity
  8
0
  6
Continuous
 62
     7
370
    25
100
AcDbLine
 10
139.8124521116
 20
40.9488268411
 30
0.0
 11
139.8124521116
 21
44.5488268411
 31
0.0
  0
LINE
  5
B8
330
1F
100
AcDbEntity
  8
0
  6
Continuous
 62
     7
370
    25
100
AcDbLine
 10
139.8124521116
 20
44.5488268411
 30
0.0
 11
109.2124521116
 21
44.5488268411
 31
0.0
  0
LINE
  5
B9
330
1F
100
AcDbEntity
  8
0
  6
Continuous
 62
     7
370
    25
100
AcDbLine
 10
19.5124521116
 20
73.7488268411
 30
0.0
 11
9.5124521116
 21
73.7488268411
 31
0.0
  0
LINE
  5
BA
330
1F
100
AcDbEntity
  8
0
  6
Continuous
 62
     7
370
    25
100
AcDbLine
 10
19.5124521116
 20
76.7488268411
 30
0.0
 11
19.5124521116
 21
73.7488268411
 31
0.0
  0
LINE
  5
BB
330
1F
100
AcDbEntity
  8
0
  6
Continuous
 62
     7
370
    25
100
AcDbLine
 10
44.5124521116
 20
76.7488268411
 30
0.0
 11
19.5124521116
 21
76.7488268411
 31
0.0
  0
LINE
  5
BC
330
1F
100
AcDbEntity
  8
0
  6
Continuous
 62
     7
370
    25
100
AcDbLine
 10
44.5124521116
 20
76.7488268411
 30
0.0
 11
44.5124521116
 21
73.7488268411
 31
0.0
  0
LINE
  5
BD
330
1F
100
AcDbEntity
  8
0
  6
Continuous
 62
     7
370
    25
100
AcDbLine
 10
67.8457854449
 20
73.7488268411
 30
0.0
 11
44.5124521116
 21
73.7488268411
 31
0.0
  0
LINE
  5
BE
330
1F
100
AcDbEntity
  8
0
  6
Continuous
 62
     7
370
    25
100
AcDbLine
 10
67.8457854449
 20
76.7488268411
 30
0.0
 11
67.8457854449
 21
73.7488268411
 31
0.0
  0
LINE
  5
BF
330
1F
100
AcDbEntity
  8
0
  6
Continuous
 62
     7
370
    25
100
AcDbLine
 10
92.8457854449
 20
76.7488268411
 30
0.0
 11
67.8457854449
 21
76.7488268411
 31
0.0
  0
LINE
  5
C0
330
1F
100
AcDbEntity
  8
0
  6
Continuous
 62
     7
370
    25
100
AcDbLine
 10
92.8457854449
 20
76.7488268411
 30
0.0
 11
92.8457854449
 21
73.7488268411
 31
0.0
  0
LINE
  5
C1
330
1F
100
AcDbEntity
  8
0
  6
Continuous
 62
     7
370
    25
100
AcDbLine
 10
116.1791187783
 20
73.7488268411
 30
0.0
 11
92.8457854449
 21
73.7488268411
 31
0.0
  0
LINE
  5
C2
330
1F
100
AcDbEntity
  8
0
  6
Continuous
 62
     7
370
    25
100
AcDbLine
 10
116.1791187783
 20
76.7488268411
 30
0.0
 11
116.1791187783
 21
73.7488268411
 31
0.0
  0
LINE
  5
C3
330
1F
100
AcDbEntity
  8
0
  6
Continuous
 62
     7
370
    25
100
AcDbLine
 10
141.1791187783
 20
76.7488268411
 30
0.0
 11
116.1791187783
 21
76.7488268411
 31
0.0
  0
LINE
  5
C4
330
1F
100
AcDbEntity
  8
0
  6
Continuous
 62
     7
370
    25
100
AcDbLine
 10
141.1791187783
 20
76.7488268411
 30
0.0
 11
141.1791187783
 21
73.7488268411
 31
0.0
  0
LINE
  5
C5
330
1F
100
AcDbEntity
  8
0
  6
Continuous
 62
     7
370
    25
100
AcDbLine
 10
164.5124521116
 20
73.7488268411
 30
0.0
 11
141.1791187783
 21
73.7488268411
 31
0.0
  0
LINE
  5
C6
330
1F
100
AcDbEntity
  8
0
  6
Continuous
 62
     7
370
    25
100
AcDbLine
 10
164.5124521116
 20
76.7488268411
 30
0.0
 11
164.5124521116
 21
73.7488268411
 31
0.0
  0
LINE
  5
C7
330
1F
100
AcDbEntity
  8
0
  6
Continuous
 62
     7
370
    25
100
AcDbLine
 10
189.5124521116
 20
76.7488268411
 30
0.0
 11
164.5124521116
 21
76.7488268411
 31
0.0
  0
LINE
  5
C8
330
1F
100
AcDbEntity
  8
0
  6
Continuous
 62
     7
370
    25
100
AcDbLine
 10
189.5124521116
 20
76.7488268411
 30
0.0
 11
189.5124521116
 21
73.7488268411
 31
0.0
  0
LINE
  5
C9
330
1F
100
AcDbEntity
  8
0
  6
Continuous
 62
     7
370
    25
100
AcDbLine
 10
199.5124521116
 20
73.7488268411
 30
0.0
 11
189.5124521116
 21
73.7488268411
 31
0.0
  0
LINE
  5
CA
330
1F
100
AcDbEntity
  8
0
  6
Continuous
 62
     7
370
    25
100
AcDbLine
 10
199.5124521116
 20
8.7488268411
 30
0.0
 11
199.5124521116
 21
73.7488268411
 31
0.0
  0
LINE
  5
CB
330
1F
100
AcDbEntity
  8
0
  6
Continuous
 62
     7
370
    25
100
AcDbLine
 10
189.5124521116
 20
8.7488268411
 30
0.0
 11
199.5124521116
 21
8.7488268411
 31
0.0
  0
LINE
  5
CC
330
1F
100
AcDbEntity
  8
0
  6
Continuous
 62
     7
370
    25
100
AcDbLine
 10
189.5124521116
 20
5.7488268411
 30
0.0
 11
189.5124521116
 21
8.7488268411
 31
0.0
  0
LINE
  5
CD
330
1F
100
AcDbEntity
  8
0
  6
Continuous
 62
     7
370
    25
100
AcDbLine
 10
164.5124521116
 20
5.7488268411
 30
0.0
 11
189.5124521116
 21
5.7488268411
 31
0.0
  0
LINE
  5
CE
330
1F
100
AcDbEntity
  8
0
  6
Continuous
 62
     7
370
    25
100
AcDbLine
 10
164.5124521116
 20
5.7488268411
 30
0.0
 11
164.5124521116
 21
8.7488268411
 31
0.0
  0
LINE
  5
CF
330
1F
100
AcDbEntity
  8
0
  6
Continuous
 62
     7
370
    25
100
AcDbLine
 10
141.1791187783
 20
8.7488268411
 30
0.0
 11
164.5124521116
 21
8.7488268411
 31
0.0
  0
LINE
  5
D0
330
1F
100
AcDbEntity
  8
0
  6
Continuous
 62
     7
370
    25
100
AcDbLine
 10
141.1791187783
 20
5.7488268411
 30
0.0
 11
141.1791187783
 21
8.7488268411
 31
0.0
  0
LINE
  5
D1
330
1F
100
AcDbEntity
  8
0
  6
Continuous
 62
     7
370
    25
100
AcDbLine
 10
116.1791187783
 20
5.7488268411
 30
0.0
 11
141.1791187783
 21
5.7488268411
 31
0.0
  0
LINE
  5
D2
330
1F
100
AcDbEntity
  8
0
  6
Continuous
 62
     7
370
    25
100
AcDbLine
 10
116.1791187783
 20
5.7488268411
 30
0.0
 11
116.1791187783
 21
8.7488268411
 31
0.0
  0
LINE
  5
D3
330
1F
100
AcDbEntity
  8
0
  6
Continuous
 62
     7
370
    25
100
AcDbLine
 10
92.8457854449
 20
8.7488268411
 30
0.0
 11
116.1791187783
 21
8.7488268411
 31
0.0
  0
LINE
  5
D4
330
1F
100
AcDbEntity
  8
0
  6
Continuous
 62
     7
370
    25
100
AcDbLine
 10
92.8457854449
 20
5.7488268411
 30
0.0
 11
92.8457854449
 21
8.7488268411
 31
0.0
  0
LINE
  5
D5
330
1F
100
AcDbEntity
  8
0
  6
Continuous
 62
     7
370
    25
100
AcDbLine
 10
67.8457854449
 20
5.7488268411
 30
0.0
 11
92.8457854449
 21
5.7488268411
 31
0.0
  0
LINE
  5
D6
330
1F
100
AcDbEntity
  8
0
  6
Continuous
 62
     7
370
    25
100
AcDbLine
 10
67.8457854449
 20
5.7488268411
 30
0.0
 11
67.8457854449
 21
8.7488268411
 31
0.0
  0
LINE
  5
D7
330
1F
100
AcDbEntity
  8
0
  6
Continuous
 62
     7
370
    25
100
AcDbLine
 10
44.5124521116
 20
8.7488268411
 30
0.0
 11
67.8457854449
 21
8.7488268411
 31
0.0
  0
LINE
  5
D8
330
1F
100
AcDbEntity
  8
0
  6
Continuous
 62
     7
370
    25
100
AcDbLine
 10
44.5124521116
 20
5.7488268411
 30
0.0
 11
44.5124521116
 21
8.7488268411
 31
0.0
  0
LINE
  5
D9
330
1F
100
AcDbEntity
  8
0
  6
Continuous
 62
     7
370
    25
100
AcDbLine
 10
19.5124521116
 20
5.7488268411
 30
0.0
 11
44.5124521116
 21
5.7488268411
 31
0.0
  0
LINE
  5
DA
330
1F
100
AcDbEntity
  8
0
  6
Continuous
 62
     7
370
    25
100
AcDbLine
 10
19.5124521116
 20
5.7488268411
 30
0.0
 11
19.5124521116
 21
8.7488268411
 31
0.0
  0
LINE
  5
DB
330
1F
100
AcDbEntity
  8
0
  6
Continuous
 62
     7
370
    25
100
AcDbLine
 10
9.5124521116
 20
8.7488268411
 30
0.0
 11
19.5124521116
 21
8.7488268411
 31
0.0
  0
LINE
  5
DC
330
1F
100
AcDbEntity
  8
0
  6
Continuous
 62
     7
370
    25
100
AcDbLine
 10
9.5124521116
 20
73.7488268411
 30
0.0
 11
9.5124521116
 21
8.7488268411
 31
0.0
  0
ENDSEC
  0
SECTION
  2
OBJECTS
  0
DICTIONARY
  5
C
330
0
100
AcDbDictionary
281
     1
  3
ACAD_GROUP
350
D
  3
ACAD_LAYOUT
350
1A
  3
ACAD_MLINESTYLE
350
17
  3
ACAD_PLOTSETTINGS
350
19
  3
ACAD_PLOTSTYLENAME
350
E
  3
ACAD_SCALELIST
350
47
  0
DICTIONARY
  5
D
102
{ACAD_REACTORS
330
C
102
}
330
C
100
AcDbDictionary
281
     1
  0
DICTIONARY
  5
1A
102
{ACAD_REACTORS
330
C
102
}
330
C
100
AcDbDictionary
281
     1
  3
Layout1
350
1E
  3
Layout2
350
26
  3
Model
350
22
  0
DICTIONARY
  5
17
102
{ACAD_REACTORS
330
C
102
}
330
C
100
AcDbDictionary
281
     1
  3
Standard
350
18
  0
DICTIONARY
  5
19
102
{ACAD_REACTORS
330
C
102
}
330
C
100
AcDbDictionary
281
     1
  0
ACDBDICTIONARYWDFLT
  5
E
102
{ACAD_REACTORS
330
C
102
}
330
C
100
AcDbDictionary
281
     1
  3
Normal
350
F
100
AcDbDictionaryWithDefault
340
F
  0
DICTIONARY
  5
47
102
{ACAD_REACTORS
330
C
102
}
330
C
100
AcDbDictionary
281
     1
  3
A0
350
48
  3
A1
350
49
  3
A2
350
4A
  3
A3
350
4B
  3
A4
350
4C
  3
A5
350
4D
  3
A6
350
4E
  3
A7
350
4F
  3
A8
350
50
  3
A9
350
51
  3
B0
350
52
  3
B1
350
53
  3
B2
350
54
  3
B3
350
55
  3
B4
350
56
  3
B5
350
57
  3
B6
350
58
  3
B7
350
59
  3
B8
350
5A
  3
B9
350
5B
  3
C0
350
5C
  3
C1
350
5D
  3
C2
350
5E
  3
C3
350
5F
  3
C4
350
60
  3
C5
350
61
  3
C6
350
62
  3
C7
350
63
  3
C8
350
64
  3
C9
350
65
  3
D0
350
66
  3
D1
350
67
  3
D2
350
68
  0
LAYOUT
  5
1E
102
{ACAD_REACTORS
330
1A
102
}
330
1A
100
AcDbPlotSettings
  1

  2
none_device
  4

  6

 40
0.0
 41
0.0
 42
0.0
 43
0.0
 44
0.0
 45
0.0
 46
0.0
 47
0.0
 48
0.0
 49
0.0
140
0.0
141
0.0
142
1.0
143
1.0
 70
   688
 72
     1
 73
     0
 74
     5
  7

 75
    16
147
1.0
148
0.0
149
0.0
100
AcDbLayout
  1
Layout1
 70
     1
 71
     1
 10
0.0
 20
0.0
 11
420.0
 21
297.0
 12
0.0
 22
0.0
 32
0.0
 14
1.0000000000E+20
 24
1.0000000000E+20
 34
1.0000000000E+20
 15
-1.0000000000E+20
 25
-1.0000000000E+20
 35
-1.0000000000E+20
146
0.0
 13
0.0
 23
0.0
 33
0.0
 16
1.0
 26
0.0
 36
0.0
 17
0.0
 27
1.0
 37
0.0
 76
     0
330
1B
  0
LAYOUT
  5
26
102
{ACAD_REACTORS
330
1A
102
}
330
1A
100
AcDbPlotSettings
  1

  2
none_device
  4

  6

 40
0.0
 41
0.0
 42
0.0
 43
0.0
 44
0.0
 45
0.0
 46
0.0
 47
0.0
 48
0.0
 49
0.0
140
0.0
141
0.0
142
1.0
143
1.0
 70
   688
 72
     1
 73
     0
 74
     5
  7

 75
    16
147
1.0
148
0.0
149
0.0
100
AcDbLayout
  1
Layout2
 70
     1
 71
     2
 10
0.0
 20
0.0
 11
0.0
 21
0.0
 12
0.0
 22
0.0
 32
0.0
 14
0.0
 24
0.0
 34
0.0
 15
0.0
 25
0.0
 35
0.0
146
0.0
 13
0.0
 23
0.0
 33
0.0
 16
1.0
 26
0.0
 36
0.0
 17
0.0
 27
1.0
 37
0.0
 76
     0
330
23
  0
LAYOUT
  5
22
102
{ACAD_REACTORS
330
1A
102
}
330
1A
100
AcDbPlotSettings
  1

  2
none_device
  4
Letter_(8.50_x_11.00_Inches)
  6

 40
6.35
 41
6.35
 42
6.35000508
 43
6.35000508
 44
215.9
 45
279.4
 46
0.0
 47
0.0
 48
0.0
 49
0.0
140
0.0
141
0.0
142
1.0
143
1.0
 70
  1712
 72
     1
 73
     0
 74
     0
  7

 75
     0
147
1.0
148
0.0
149
0.0
100
AcDbLayout
  1
Model
 70
     1
 71
     0
 10
0.0
 20
0.0
 11
210.0
 21
297.0
 12
0.0
 22
0.0
 32
0.0
 14
0.0
 24
0.0
 34
0.0
 15
210.0
 25
297.0
 35
0.0
146
0.0
 13
0.0
 23
0.0
 33
0.0
 16
1.0
 26
0.0
 36
0.0
 17
0.0
 27
1.0
 37
0.0
 76
     0
330
1F
331
29
  0
MLINESTYLE
  5
18
102
{ACAD_REACTORS
330
17
102
}
330
17
100
AcDbMlineStyle
  2
Standard
 70
     0
  3

 62
   256
 51
90.0
 52
90.0
 71
     2
 49
0.5
 62
   256
  6
BYLAYER
 49
-0.5
 62
   256
  6
BYLAYER
  0
ACDBPLACEHOLDER
  5
F
102
{ACAD_REACTORS
330
E
102
}
330
E
  0
SCALE
  5
48
102
{ACAD_REACTORS
330
47
102
}
330
47
100
AcDbScale
 70
     0
300
1:1
140
1.0
141
1.0
290
     1
  0
SCALE
  5
49
102
{ACAD_REACTORS
330
47
102
}
330
47
100
AcDbScale
 70
     0
300
1:2
140
1.0
141
2.0
290
     0
  0
SCALE
  5
4A
102
{ACAD_REACTORS
330
47
102
}
330
47
100
AcDbScale
 70
     0
300
1:4
140
1.0
141
4.0
290
     0
  0
SCALE
  5
4B
102
{ACAD_REACTORS
330
47
102
}
330
47
100
AcDbScale
 70
     0
300
1:5
140
1.0
141
5.0
290
     0
  0
SCALE
  5
4C
102
{ACAD_REACTORS
330
47
102
}
330
47
100
AcDbScale
 70
     0
300
1:8
140
1.0
141
8.0
290
     0
  0
SCALE
  5
4D
102
{ACAD_REACTORS
330
47
102
}
330
47
100
AcDbScale
 70
     0
300
1:10
140
1.0
141
10.0
290
     0
  0
SCALE
  5
4E
102
{ACAD_REACTORS
330
47
102
}
330
47
100
AcDbScale
 70
     0
300
1:16
140
1.0
141
16.0
290
     0
  0
SCALE
  5
4F
102
{ACAD_REACTORS
330
47
102
}
330
47
100
AcDbScale
 70
     0
300
1:20
140
1.0
141
20.0
290
     0
  0
SCALE
  5
50
102
{ACAD_REACTORS
330
47
102
}
330
47
100
AcDbScale
 70
     0
300
1:30
140
1.0
141
30.0
290
     0
  0
SCALE
  5
51
102
{ACAD_REACTORS
330
47
102
}
330
47
100
AcDbScale
 70
     0
300
1:40
140
1.0
141
40.0
290
     0
  0
SCALE
  5
52
102
{ACAD_REACTORS
330
47
102
}
330
47
100
AcDbScale
 70
     0
300
1:50
140
1.0
141
50.0
290
     0
  0
SCALE
  5
53
102
{ACAD_REACTORS
330
47
102
}
330
47
100
AcDbScale
 70
     0
300
1:100
140
1.0
141
100.0
290
     0
  0
SCALE
  5
54
102
{ACAD_REACTORS
330
47
102
}
330
47
100
AcDbScale
 70
     0
300
2:1
140
2.0
141
1.0
290
     0
  0
SCALE
  5
55
102
{ACAD_REACTORS
330
47
102
}
330
47
100
AcDbScale
 70
     0
300
4:1
140
4.0
141
1.0
290
     0
  0
SCALE
  5
56
102
{ACAD_REACTORS
330
47
102
}
330
47
100
AcDbScale
 70
     0
300
8:1
140
8.0
141
1.0
290
     0
  0
SCALE
  5
57
102
{ACAD_REACTORS
330
47
102
}
330
47
100
AcDbScale
 70
     0
300
10:1
140
10.0
141
1.0
290
     0
  0
SCALE
  5
58
102
{ACAD_REACTORS
330
47
102
}
330
47
100
AcDbScale
 70
     0
300
100:1
140
100.0
141
1.0
290
     0
  0
SCALE
  5
59
102
{ACAD_REACTORS
330
47
102
}
330
47
100
AcDbScale
 70
     0
300
1/128" = 1'-0"
140
0.0078125
141
12.0
290
     0
  0
SCALE
  5
5A
102
{ACAD_REACTORS
330
47
102
}
330
47
100
AcDbScale
 70
     0
300
1/64" = 1'-0"
140
0.015625
141
12.0
290
     0
  0
SCALE
  5
5B
102
{ACAD_REACTORS
330
47
102
}
330
47
100
AcDbScale
 70
     0
300
1/32" = 1'-0"
140
0.03125
141
12.0
290
     0
  0
SCALE
  5
5C
102
{ACAD_REACTORS
330
47
102
}
330
47
100
AcDbScale
 70
     0
300
1/16" = 1'-0"
140
0.0625
141
12.0
290
     0
  0
SCALE
  5
5D
102
{ACAD_REACTORS
330
47
102
}
330
47
100
AcDbScale
 70
     0
300
3/32" = 1'-0"
140
0.09375
141
12.0
290
     0
  0
SCALE
  5
5E
102
{ACAD_REACTORS
330
47
102
}
330
47
100
AcDbScale
 70
     0
300
1/8" = 1'-0"
140
0.125
141
12.0
290
     0
  0
SCALE
  5
5F
102
{ACAD_REACTORS
330
47
102
}
330
47
100
AcDbScale
 70
     0
300
3/16" = 1'-0"
140
0.1875
141
12.0
290
     0
  0
SCALE
  5
60
102
{ACAD_REACTORS
330
47
102
}
330
47
100
AcDbScale
 70
     0
300
1/4" = 1'-0"
140
0.25
141
12.0
290
     0
  0
SCALE
  5
61
102
{ACAD_REACTORS
330
47
102
}
330
47
100
AcDbScale
 70
     0
300
3/8" = 1'-0"
140
0.375
141
12.0
290
     0
  0
SCALE
  5
62
102
{ACAD_REACTORS
330
47
102
}
330
47
100
AcDbScale
 70
     0
300
1/2" = 1'-0"
140
0.5
141
12.0
290
     0
  0
SCALE
  5
63
102
{ACAD_REACTORS
330
47
102
}
330
47
100
AcDbScale
 70
     0
300
3/4" = 1'-0"
140
0.75
141
12.0
290
     0
  0
SCALE
  5
64
102
{ACAD_REACTORS
330
47
102
}
330
47
100
AcDbScale
 70
     0
300
1" = 1'-0"
140
1.0
141
12.0
290
     0
  0
SCALE
  5
65
102
{ACAD_REACTORS
330
47
102
}
330
47
100
AcDbScale
 70
     0
300
1-1/2" = 1'-0"
140
1.5
141
12.0
290
     0
  0
SCALE
  5
66
102
{ACAD_REACTORS
330
47
102
}
330
47
100
AcDbScale
 70
     0
300
3" = 1'-0"
140
3.0
141
12.0
290
     0
  0
SCALE
  5
67
102
{ACAD_REACTORS
330
47
102
}
330
47
100
AcDbScale
 70
     0
300
6" = 1'-0"
140
6.0
141
12.0
290
     0
  0
SCALE
  5
68
102
{ACAD_REACTORS
330
47
102
}
330
47
100
AcDbScale
 70
     0
300
1'-0" = 1'-0"
140
12.0
141
12.0
290
     0
  0
ENDSEC
  0
EOF
