  0
SECTION
  2
HEADER
  9
$ACADVER
  1
AC1015
  9
$ACADMAINTVER
 70
     6
  9
$DWGCODEPAGE
  3
ANSI_1252
  9
$INSBASE
 10
0.0
 20
0.0
 30
0.0
  9
$EXTMIN
 10
0.0
 20
0.0
 30
0.0
  9
$EXTMAX
 10
210.0
 20
297.0
 30
0.0
  9
$LIMMIN
 10
0.0
 20
0.0
  9
$LIMMAX
 10
210.0
 20
297.0
  9
$ORTHOMODE
 70
     0
  9
$REGENMODE
 70
     1
  9
$FILLMODE
 70
     1
  9
$QTEXTMODE
 70
     0
  9
$MIRRTEXT
 70
     1
  9
$LTSCALE
 40
1.0
  9
$ATTMODE
 70
     1
  9
$TEXTSIZE
 40
3.5
  9
$TRACEWID
 40
1.0
  9
$TEXTSTYLE
  7
Standard
  9
$CLAYER
  8
0
  9
$CELTYPE
  6
ByLayer
  9
$CECOLOR
 62
   256
  9
$CELTSCALE
 40
1.0
  9
$DISPSILH
 70
     0
  9
$DIMSCALE
 40
1.0
  9
$DIMASZ
 40
3.302
  9
$DIMEXO
 40
1.0
  9
$DIMDLI
 40
3.75
  9
$DIMRND
 40
0.0
  9
$DIMDLE
 40
0.0
  9
$DIMEXE
 40
1.0
  9
$DIMTP
 40
0.0
  9
$DIMTM
 40
0.0
  9
$DIMTXT
 40
3.5
  9
$DIMCEN
 40
2.5
  9
$DIMTSZ
 40
0.0
  9
$DIMTOL
 70
     0
  9
$DIMLIM
 70
     0
  9
$DIMTIH
 70
     1
  9
$DIMTOH
 70
     1
  9
$DIMSE1
 70
     0
  9
$DIMSE2
 70
     0
  9
$DIMTAD
 70
     1
  9
$DIMZIN
 70
     1
  9
$DIMBLK
  1

  9
$DIMASO
 70
     1
  9
$DIMSHO
 70
     1
  9
$DIMPOST
  1

  9
$DIMAPOST
  1

  9
$DIMALT
 70
     0
  9
$DIMALTD
 70
     3
  9
$DIMALTF
 40
0.0393700787
  9
$DIMLFAC
 40
5.0
  9
$DIMTOFL
 70
     1
  9
$DIMTVP
 40
0.0
  9
$DIMTIX
 70
     0
  9
$DIMSOXD
 70
     0
  9
$DIMSAH
 70
     0
  9
$DIMBLK1
  1

  9
$DIMBLK2
  1

  9
$DIMSTYLE
  2
ISO-25
  9
$DIMCLRD
 70
     0
  9
$DIMCLRE
 70
     0
  9
$DIMCLRT
 70
     0
  9
$DIMTFAC
 40
1.0
  9
$DIMGAP
 40
1.524
  9
$DIMJUST
 70
     0
  9
$DIMSD1
 70
     0
  9
$DIMSD2
 70
     0
  9
$DIMTOLJ
 70
     0
  9
$DIMTZIN
 70
     1
  9
$DIMALTZ
 70
     0
  9
$DIMALTTZ
 70
     0
  9
$DIMUPT
 70
     0
  9
$DIMDEC
 70
     2
  9
$DIMTDEC
 70
     2
  9
$DIMALTU
 70
     2
  9
$DIMALTTD
 70
     3
  9
$DIMTXSTY
  7
Standard
  9
$DIMAUNIT
 70
     0
  9
$DIMADEC
 70
     2
  9
$DIMALTRND
 40
0.0
  9
$DIMAZIN
 70
     0
  9
$DIMDSEP
 70
    44
  9
$DIMATFIT
 70
     3
  9
$DIMFRAC
 70
     0
  9
$DIMLDRBLK
  1

  9
$DIMLUNIT
 70
     2
  9
$DIMLWD
 70
    -2
  9
$DIMLWE
 70
    -2
  9
$DIMTMOVE
 70
     0
  9
$LUNITS
 70
     2
  9
$LUPREC
 70
     2
  9
$SKETCHINC
 40
1.0
  9
$FILLETRAD
 40
10.0
  9
$AUNITS
 70
     0
  9
$AUPREC
 70
     2
  9
$MENU
  1
.
  9
$ELEVATION
 40
0.0
  9
$PELEVATION
 40
0.0
  9
$THICKNESS
 40
0.0
  9
$LIMCHECK
 70
     0
  9
$CHAMFERA
 40
0.0
  9
$CHAMFERB
 40
0.0
  9
$CHAMFERC
 40
0.0
  9
$CHAMFERD
 40
0.0
  9
$SKPOLY
 70
     0
  9
$TDCREATE
 40
2461048.46279515
  9
$TDUCREATE
 40
2461048.171128484
  9
$TDUPDATE
 40
2461048.462797338
  9
$TDUUPDATE
 40
2461048.171130671
  9
$TDINDWG
 40
0.0000000116
  9
$TDUSRTIMER
 40
0.0000000116
  9
$USRTIMER
 70
     1
  9
$ANGBASE
 50
0.0
  9
$ANGDIR
 70
     0
  9
$PDMODE
 70
     0
  9
$PDSIZE
 40
-1.0
  9
$PLINEWID
 40
0.0
  9
$SPLFRAME
 70
     0
  9
$SPLINETYPE
 70
     6
  9
$SPLINESEGS
 70
     8
  9
$HANDSEED
  5
CF
  9
$SURFTAB1
 70
     6
  9
$SURFTAB2
 70
     6
  9
$SURFTYPE
 70
     6
  9
$SURFU
 70
     6
  9
$SURFV
 70
     6
  9
$UCSBASE
  2

  9
$UCSNAME
  2

  9
$UCSORG
 10
0.0
 20
0.0
 30
0.0
  9
$UCSXDIR
 10
1.0
 20
0.0
 30
0.0
  9
$UCSYDIR
 10
0.0
 20
1.0
 30
0.0
  9
$UCSORTHOREF
  2

  9
$UCSORTHOVIEW
 70
     0
  9
$UCSORGTOP
 10
0.0
 20
0.0
 30
0.0
  9
$UCSORGBOTTOM
 10
0.0
 20
0.0
 30
0.0
  9
$UCSORGLEFT
 10
0.0
 20
0.0
 30
0.0
  9
$UCSORGRIGHT
 10
0.0
 20
0.0
 30
0.0
  9
$UCSORGFRONT
 10
0.0
 20
0.0
 30
0.0
  9
$UCSORGBACK
 10
0.0
 20
0.0
 30
0.0
  9
$PUCSBASE
  2

  9
$PUCSNAME
  2

  9
$PUCSORG
 10
0.0
 20
0.0
 30
0.0
  9
$PUCSXDIR
 10
1.0
 20
0.0
 30
0.0
  9
$PUCSYDIR
 10
0.0
 20
1.0
 30
0.0
  9
$PUCSORTHOREF
  2

  9
$PUCSORTHOVIEW
 70
     0
  9
$PUCSORGTOP
 10
0.0
 20
0.0
 30
0.0
  9
$PUCSORGBOTTOM
 10
0.0
 20
0.0
 30
0.0
  9
$PUCSORGLEFT
 10
0.0
 20
0.0
 30
0.0
  9
$PUCSORGRIGHT
 10
0.0
 20
0.0
 30
0.0
  9
$PUCSORGFRONT
 10
0.0
 20
0.0
 30
0.0
  9
$PUCSORGBACK
 10
0.0
 20
0.0
 30
0.0
  9
$USERI1
 70
     0
  9
$USERI2
 70
     0
  9
$USERI3
 70
     0
  9
$USERI4
 70
     0
  9
$USERI5
 70
     0
  9
$USERR1
 40
0.0
  9
$USERR2
 40
0.0
  9
$USERR3
 40
0.0
  9
$USERR4
 40
0.0
  9
$USERR5
 40
0.0
  9
$WORLDVIEW
 70
     1
  9
$SHADEDGE
 70
     3
  9
$SHADEDIF
 70
    70
  9
$TILEMODE
 70
     1
  9
$MAXACTVP
 70
    64
  9
$PINSBASE
 10
0.0
 20
0.0
 30
0.0
  9
$PLIMCHECK
 70
     0
  9
$PEXTMIN
 10
1.0000000000E+20
 20
1.0000000000E+20
 30
1.0000000000E+20
  9
$PEXTMAX
 10
-1.0000000000E+20
 20
-1.0000000000E+20
 30
-1.0000000000E+20
  9
$PLIMMIN
 10
0.0
 20
0.0
  9
$PLIMMAX
 10
420.0
 20
297.0
  9
$UNITMODE
 70
     0
  9
$VISRETAIN
 70
     1
  9
$PLINEGEN
 70
     0
  9
$PSLTSCALE
 70
     1
  9
$TREEDEPTH
 70
  3020
  9
$CMLSTYLE
  2
Standard
  9
$CMLJUST
 70
     0
  9
$CMLSCALE
 40
20.0
  9
$PROXYGRAPHICS
 70
     1
  9
$MEASUREMENT
 70
     1
  9
$CELWEIGHT
370
    -1
  9
$ENDCAPS
280
     0
  9
$JOINSTYLE
280
     0
  9
$LWDISPLAY
290
     1
  9
$INSUNITS
 70
     4
  9
$HYPERLINKBASE
  1

  9
$STYLESHEET
  1

  9
$XEDIT
290
     1
  9
$CEPSNTYPE
380
     0
  9
$PSTYLEMODE
290
     1
  9
$FINGERPRINTGUID
  2
{F715B759-E2FA-45EB-A719-FEA66003F607}
  9
$VERSIONGUID
  2
{FAEB1C32-E019-11D5-929B-00C0DF256EC4}
  9
$EXTNAMES
290
     1
  9
$PSVPSCALE
 40
0.0
  9
$OLESTARTUP
290
     0
  0
ENDSEC
  0
SECTION
  2
CLASSES
  0
CLASS
  1
ACDBDICTIONARYWDFLT
  2
AcDbDictionaryWithDefault
  3
ObjectDBX Classes
 90
        0
280
     0
281
     0
  0
CLASS
  1
VISUALSTYLE
  2
AcDbVisualStyle
  3
ObjectDBX Classes
 90
     4095
280
     0
281
     0
  0
CLASS
  1
MATERIAL
  2
AcDbMaterial
  3
ObjectDBX Classes
 90
     1153
280
     0
281
     0
  0
CLASS
  1
SCALE
  2
AcDbScale
  3
ObjectDBX Classes
 90
     1153
280
     0
281
     0
  0
CLASS
  1
TABLESTYLE
  2
AcDbTableStyle
  3
ObjectDBX Classes
 90
     4095
280
     0
281
     0
  0
CLASS
  1
MLEADERSTYLE
  2
AcDbMLeaderStyle
  3
ACDB_MLEADERSTYLE_CLASS
 90
     4095
280
     0
281
     0
  0
CLASS
  1
SUN
  2
AcDbSun
  3
SCENEOE
 90
     1153
280
     0
281
     0
  0
CLASS
  1
ACDBPLACEHOLDER
  2
AcDbPlaceHolder
  3
ObjectDBX Classes
 90
        0
280
     0
281
     0
  0
CLASS
  1
LAYOUT
  2
AcDbLayout
  3
ObjectDBX Classes
 90
        0
280
     0
281
     0
  0
ENDSEC
  0
SECTION
  2
TABLES
  0
TABLE
  2
VPORT
  5
8
330
0
100
AcDbSymbolTable
 70
     1
  0
VPORT
  5
29
330
8
100
AcDbSymbolTableRecord
100
AcDbViewportTableRecord
  2
*Active
 70
     0
 10
0.0
 20
0.0
 11
1.0
 21
1.0
 12
105.0
 22
148.5
 13
0.0
 23
0.0
 14
10.0
 24
10.0
 15
10.0
 25
10.0
 16
0.0
 26
0.0
 36
1.0
 17
0.0
 27
0.0
 37
0.0
 40
297.0
 41
0.7070707071
 42
50.0
 43
0.0
 44
0.0
 50
0.0
 51
0.0
 71
     0
 72
  2000
 73
     1
 74
     3
 75
     0
 76
     0
 77
     0
 78
     0
281
     0
 65
     1
110
0.0
120
0.0
130
0.0
111
1.0
121
0.0
131
0.0
112
0.0
122
1.0
132
0.0
 79
     0
146
0.0
  0
ENDTAB
  0
TABLE
  2
LTYPE
  5
5
330
0
100
AcDbSymbolTable
 70
     6
  0
LTYPE
  5
14
330
5
100
AcDbSymbolTableRecord
100
AcDbLinetypeTableRecord
  2
ByBlock
 70
     0
  3

 72
    65
 73
     0
 40
0.0
  0
LTYPE
  5
15
330
5
100
AcDbSymbolTableRecord
100
AcDbLinetypeTableRecord
  2
ByLayer
 70
     0
  3

 72
    65
 73
     0
 40
0.0
  0
LTYPE
  5
16
330
5
100
AcDbSymbolTableRecord
100
AcDbLinetypeTableRecord
  2
Continuous
 70
     0
  3
Solid line
 72
    65
 73
     0
 40
0.0
  0
LTYPE
  5
6E
330
5
100
AcDbSymbolTableRecord
100
AcDbLinetypeTableRecord
  2
HIDDEN
 70
     0
  3
Hidden __ __ __ __ __ __ __ __ __ __ __ __ __ __
 72
    65
 73
     2
 40
1.905
 49
1.27
 74
     0
 49
-0.635
 74
     0
  0
LTYPE
  5
6F
330
5
100
AcDbSymbolTableRecord
100
AcDbLinetypeTableRecord
  2
PHANTOM
 70
     0
  3
Phantom ______  __  __  ______  __  __  ______
 72
    65
 73
     6
 40
12.7
 49
6.35
 74
     0
 49
-1.27
 74
     0
 49
1.27
 74
     0
 49
-1.27
 74
     0
 49
1.27
 74
     0
 49
-1.27
 74
     0
  0
LTYPE
  5
70
330
5
100
AcDbSymbolTableRecord
100
AcDbLinetypeTableRecord
  2
CENTER
 70
     0
  3
Center ____ _ ____ _ ____ _ ____ _ ____ _ ____
 72
    65
 73
     4
 40
10.16
 49
6.35
 74
     0
 49
-1.27
 74
     0
 49
1.27
 74
     0
 49
-1.27
 74
     0
  0
LTYPE
  5
71
330
5
100
AcDbSymbolTableRecord
100
AcDbLinetypeTableRecord
  2
CENTERX2
 70
     0
  3
Center (2x) ________  __  ________  __  _____
 72
    65
 73
     4
 40
20.32
 49
12.7
 74
     0
 49
-2.54
 74
     0
 49
2.54
 74
     0
 49
-2.54
 74
     0
  0
LTYPE
  5
72
330
5
100
AcDbSymbolTableRecord
100
AcDbLinetypeTableRecord
  2
DOT2
 70
     0
  3
Dot (.5x) ........................................
 72
    65
 73
     2
 40
0.635
 49
0.0
 74
     0
 49
-0.635
 74
     0
  0
ENDTAB
  0
TABLE
  2
LAYER
  5
2
330
0
100
AcDbSymbolTable
 70
     1
  0
LAYER
  5
10
330
2
100
AcDbSymbolTableRecord
100
AcDbLayerTableRecord
  2
0
 70
     0
 62
     7
  6
Continuous
370
    -3
390
F
  0
ENDTAB
  0
TABLE
  2
STYLE
  5
3
330
0
100
AcDbSymbolTable
 70
     1
  0
STYLE
  5
11
330
3
100
AcDbSymbolTableRecord
100
AcDbTextStyleTableRecord
  2
Standard
 70
     0
 40
0.0
 41
1.0
 50
0.0
 71
     0
 42
3.5
  3
txt
  4

  0
ENDTAB
  0
TABLE
  2
VIEW
  5
6
330
0
100
AcDbSymbolTable
 70
     0
  0
ENDTAB
  0
TABLE
  2
UCS
  5
7
330
0
100
AcDbSymbolTable
 70
     0
  0
ENDTAB
  0
TABLE
  2
APPID
  5
9
330
0
100
AcDbSymbolTable
 70
     1
  0
APPID
  5
12
330
9
100
AcDbSymbolTableRecord
100
AcDbRegAppTableRecord
  2
ACAD
 70
     0
  0
ENDTAB
  0
TABLE
  2
DIMSTYLE
  5
A
330
0
100
AcDbSymbolTable
 70
     1
100
AcDbDimStyleTable
  0
DIMSTYLE
105
27
330
A
100
AcDbSymbolTableRecord
100
AcDbDimStyleTableRecord
  2
ISO-25
 70
     0
 41
2.5
 42
0.625
 43
3.75
 44
1.25
 73
     0
 74
     0
 77
     1
 78
     8
140
2.5
141
2.5
143
0.0393700787
147
0.625
171
     3
172
     1
178
     0
271
     2
272
     2
274
     3
278
    44
283
     0
284
     8
340
11
  0
ENDTAB
  0
TABLE
  2
BLOCK_RECORD
  5
1
330
0
100
AcDbSymbolTable
 70
     1
  0
BLOCK_RECORD
  5
1F
330
1
100
AcDbSymbolTableRecord
100
AcDbBlockTableRecord
  2
*Model_Space
340
22
  0
BLOCK_RECORD
  5
1B
330
1
100
AcDbSymbolTableRecord
100
AcDbBlockTableRecord
  2
*Paper_Space
340
1E
  0
BLOCK_RECORD
  5
23
330
1
100
AcDbSymbolTableRecord
100
AcDbBlockTableRecord
  2
*Paper_Space0
340
26
  0
ENDTAB
  0
ENDSEC
  0
SECTION
  2
BLOCKS
  0
BLOCK
  5
20
330
1F
100
AcDbEntity
  8
0
100
AcDbBlockBegin
  2
*Model_Space
 70
     0
 10
0.0
 20
0.0
 30
0.0
  3
*Model_Space
  1

  0
ENDBLK
  5
21
330
1F
100
AcDbEntity
  8
0
100
AcDbBlockEnd
  0
BLOCK
  5
1C
330
1B
100
AcDbEntity
 67
     1
  8
0
100
AcDbBlockBegin
  2
*Paper_Space
 70
     0
 10
0.0
 20
0.0
 30
0.0
  3
*Paper_Space
  1

  0
ENDBLK
  5
1D
330
1B
100
AcDbEntity
 67
     1
  8
0
100
AcDbBlockEnd
  0
BLOCK
  5
24
330
23
100
AcDbEntity
  8
0
100
AcDbBlockBegin
  2
*Paper_Space0
 70
     0
 10
0.0
 20
0.0
 30
0.0
  3
*Paper_Space0
  1

  0
ENDBLK
  5
25
330
23
100
AcDbEntity
  8
0
100
AcDbBlockEnd
  0
ENDSEC
  0
SECTION
  2
ENTITIES
  0
LINE
  5
73
330
1F
100
AcDbEntity
  8
0
  6
Continuous
 62
     7
370
    25
100
AcDbLine
 10
190.0362008486
 20
137.2765991065
 30
0.0
 11
190.0362008486
 21
140.8765991065
 31
0.0
  0
LINE
  5
74
330
1F
100
AcDbEntity
  8
0
  6
Continuous
 62
     7
370
    25
100
AcDbLine
 10
190.0362008486
 20
140.8765991065
 30
0.0
 11
164.4362008486
 21
140.8765991065
 31
0.0
  0
LINE
  5
75
330
1F
100
AcDbEntity
  8
0
  6
Continuous
 62
     7
370
    25
100
AcDbLine
 10
164.4362008486
 20
140.8765991065
 30
0.0
 11
164.4362008486
 21
137.2765991065
 31
0.0
  0
LINE
  5
76
330
1F
100
AcDbEntity
  8
0
  6
Continuous
 62
     7
370
    25
100
AcDbLine
 10
164.4362008486
 20
137.2765991065
 30
0.0
 11
190.0362008486
 21
137.2765991065
 31
0.0
  0
LINE
  5
77
330
1F
100
AcDbEntity
  8
0
  6
Continuous
 62
     7
370
    25
100
AcDbLine
 10
141.7028675153
 20
137.2765991065
 30
0.0
 11
141.7028675153
 21
140.8765991065
 31
0.0
  0
LINE
  5
78
330
1F
100
AcDbEntity
  8
0
  6
Continuous
 62
     7
370
    25
100
AcDbLine
 10
141.7028675153
 20
140.8765991065
 30
0.0
 11
116.1028675153
 21
140.8765991065
 31
0.0
  0
LINE
  5
79
330
1F
100
AcDbEntity
  8
0
  6
Continuous
 62
     7
370
    25
100
AcDbLine
 10
116.1028675153
 20
140.8765991065
 30
0.0
 11
116.1028675153
 21
137.2765991065
 31
0.0
  0
LINE
  5
7A
330
1F
100
AcDbEntity
  8
0
  6
Continuous
 62
     7
370
    25
100
AcDbLine
 10
116.1028675153
 20
137.2765991065
 30
0.0
 11
141.7028675153
 21
137.2765991065
 31
0.0
  0
LINE
  5
7B
330
1F
100
AcDbEntity
  8
0
  6
Continuous
 62
     7
370
    25
100
AcDbLine
 10
93.369534182
 20
137.2765991065
 30
0.0
 11
93.369534182
 21
140.8765991065
 31
0.0
  0
LINE
  5
7C
330
1F
100
AcDbEntity
  8
0
  6
Continuous
 62
     7
370
    25
100
AcDbLine
 10
93.369534182
 20
140.8765991065
 30
0.0
 11
67.769534182
 21
140.8765991065
 31
0.0
  0
LINE
  5
7D
330
1F
100
AcDbEntity
  8
0
  6
Continuous
 62
     7
370
    25
100
AcDbLine
 10
67.769534182
 20
140.8765991065
 30
0.0
 11
67.769534182
 21
137.2765991065
 31
0.0
  0
LINE
  5
7E
330
1F
100
AcDbEntity
  8
0
  6
Continuous
 62
     7
370
    25
100
AcDbLine
 10
67.769534182
 20
137.2765991065
 30
0.0
 11
93.369534182
 21
137.2765991065
 31
0.0
  0
LINE
  5
7F
330
1F
100
AcDbEntity
  8
0
  6
Continuous
 62
     7
370
    25
100
AcDbLine
 10
45.0362008486
 20
137.2765991065
 30
0.0
 11
45.0362008486
 21
140.8765991065
 31
0.0
  0
LINE
  5
80
330
1F
100
AcDbEntity
  8
0
  6
Continuous
 62
     7
370
    25
100
AcDbLine
 10
45.0362008486
 20
140.8765991065
 30
0.0
 11
19.4362008486
 21
140.8765991065
 31
0.0
  0
LINE
  5
81
330
1F
100
AcDbEntity
  8
0
  6
Continuous
 62
     7
370
    25
100
AcDbLine
 10
19.4362008486
 20
140.8765991065
 30
0.0
 11
19.4362008486
 21
137.2765991065
 31
0.0
  0
LINE
  5
82
330
1F
100
AcDbEntity
  8
0
  6
Continuous
 62
     7
370
    25
100
AcDbLine
 10
19.4362008486
 20
137.2765991065
 30
0.0
 11
45.0362008486
 21
137.2765991065
 31
0.0
  0
SPLINE
  5
83
330
1F
100
AcDbEntity
  8
0
  6
Continuous
 62
     7
370
    25
100
AcDbSpline
210
0.0
220
0.0
230
1.0
 70
     8
 71
     3
 72
    60
 73
    56
 74
     0
 42
0.000000001
 43
0.00000001
 40
0.0
 40
0.0
 40
0.0
 40
0.0
 40
0.0230300214869026
 40
0.0456299314836471
 40
0.0678087416284586
 40
0.089575986571795
 40
0.1109417519644009
 40
0.1319167026104784
 40
0.1525121104433883
 40
0.172739881907574
 40
0.1926125842506312
 40
0.2121434701452616
 40
0.231346499975144
 40
0.2502363610352641
 40
0.268828482821086
 40
0.2871390475183309
 40
0.3051849947633519
 40
0.3229840197313987
 40
0.3405545636347942
 40
0.357915795783295
 40
0.3750875864811817
 40
0.3920904702140933
 40
0.408945598813505
 40
0.4256746845738051
 40
0.4422999336261713
 40
0.4588439702296083
 40
0.475329753002152
 40
0.4917804844605416
 40
0.508219515539459
 40
0.5246702469978485
 40
0.5411560297703918
 40
0.5577000663738289
 40
0.5743253154261948
 40
0.5910544011864954
 40
0.6079095297859072
 40
0.624912413518818
 40
0.6420842042167055
 40
0.6594454363652057
 40
0.6770159802686012
 40
0.6948150052366484
 40
0.7128609524816699
 40
0.7311715171789145
 40
0.7497636389647362
 40
0.7686535000248552
 40
0.7878565298547389
 40
0.8073874157493687
 40
0.8272601180924258
 40
0.8474878895566117
 40
0.8680832973895214
 40
0.8890582480355991
 40
0.9104240134282043
 40
0.9321912583715414
 40
0.954370068516354
 40
0.9769699785130969
 40
1.0
 40
1.0
 40
1.0
 40
1.0
 10
199.7362008486304
 20
275.5765991064902
 30
0.0
 10
199.7351941449948
 20
275.7635099423223
 30
0.0
 10
199.7331995390435
 20
276.1338408444196
 30
0.0
 10
199.7167019409027
 20
276.6839714573299
 30
0.0
 10
199.6902518416187
 20
277.2234303310429
 30
0.0
 10
199.6529304250444
 20
277.7522181722027
 30
0.0
 10
199.6049761845913
 20
278.2703352842868
 30
0.0
 10
199.5463260245069
 20
278.7777820315419
 30
0.0
 10
199.4769953124516
 20
279.2745587009784
 30
0.0
 10
199.3969788541172
 20
279.7606655186856
 30
0.0
 10
199.3062767005845
 20
280.2361026235217
 30
0.0
 10
199.2048874249589
 20
280.7008700497474
 30
0.0
 10
199.0928098842927
 20
281.1549677056206
 30
0.0
 10
198.9700427738692
 20
281.5983953520472
 30
0.0
 10
198.8365847636014
 20
282.0311525812241
 30
0.0
 10
198.6924344891943
 20
282.4532387966012
 30
0.0
 10
198.5375905883481
 20
282.8646531954345
 30
0.0
 10
198.3720517322763
 20
283.2653947554811
 30
0.0
 10
198.1958166650255
 20
283.6554622274928
 30
0.0
 10
198.0088842462069
 20
284.0348541351852
 30
0.0
 10
197.8112534964861
 20
284.4035687842061
 30
0.0
 10
197.6029236435136
 20
284.7616042813009
 30
0.0
 10
197.3838941657962
 20
285.1089585643354
 30
0.0
 10
197.1541648316091
 20
285.4456294431162
 30
0.0
 10
196.9137357299724
 20
285.7716146500919
 30
0.0
 10
196.6626072908961
 20
286.0869118990931
 30
0.0
 10
196.4007802926078
 20
286.3915189493981
 30
0.0
 10
196.1282558542836
 20
286.6854336717024
 30
0.0
 10
195.8450354138425
 20
286.9686541121434
 30
0.0
 10
195.5511206915382
 20
287.2411785504677
 30
0.0
 10
195.2465136412332
 20
287.5030055487559
 30
0.0
 10
194.931216392232
 20
287.7541339878323
 30
0.0
 10
194.6052311852563
 20
287.994563089469
 30
0.0
 10
194.2685603064755
 20
288.224292423656
 30
0.0
 10
193.921206023441
 20
288.4433219013736
 30
0.0
 10
193.5631705263462
 20
288.651651754346
 30
0.0
 10
193.1944558773254
 20
288.8492825040668
 30
0.0
 10
192.8150639696329
 20
289.0362149228854
 30
0.0
 10
192.4249964976211
 20
289.2124499901361
 30
0.0
 10
192.0242549375746
 20
289.3779888462079
 30
0.0
 10
191.6128405387413
 20
289.5328327470542
 30
0.0
 10
191.1907543233642
 20
289.6769830214613
 30
0.0
 10
190.7579970941873
 20
289.8104410317291
 30
0.0
 10
190.3145694477607
 20
289.9332081421525
 30
0.0
 10
189.8604717918875
 20
290.0452856828189
 30
0.0
 10
189.3957043656618
 20
290.1466749584444
 30
0.0
 10
188.9202672608257
 20
290.237377111977
 30
0.0
 10
188.4341604431186
 20
290.3173935703115
 30
0.0
 10
187.937383773682
 20
290.3867242823667
 30
0.0
 10
187.429937026427
 20
290.4453744424512
 30
0.0
 10
186.9118199143429
 20
290.4933286829043
 30
0.0
 10
186.383032073183
 20
290.5306500994786
 30
0.0
 10
185.84357319947
 20
290.5571001987626
 30
0.0
 10
185.2934425865598
 20
290.5735977969034
 30
0.0
 10
184.9231116844624
 20
290.5755924028547
 30
0.0
 10
184.7362008486303
 20
290.5765991064903
 30
0.0
  0
LINE
  5
84
330
1F
100
AcDbEntity
  8
0
  6
Continuous
 62
     7
370
    25
100
AcDbLine
 10
199.7362008486
 20
95.5765991065
 30
0.0
 11
199.7362008486
 21
275.5765991065
 31
0.0
  0
SPLINE
  5
85
330
1F
100
AcDbEntity
  8
0
  6
Continuous
 62
     7
370
    25
100
AcDbSpline
210
0.0
220
0.0
230
1.0
 70
     8
 71
     3
 72
    60
 73
    56
 74
     0
 42
0.000000001
 43
0.00000001
 40
0.0
 40
0.0
 40
0.0
 40
0.0
 40
0.0230300214869031
 40
0.045629931483646
 40
0.0678087416284586
 40
0.0895759865717956
 40
0.1109417519644009
 40
0.1319167026104779
 40
0.1525121104433882
 40
0.1727398819075741
 40
0.1926125842506307
 40
0.2121434701452617
 40
0.2313464999751435
 40
0.2502363610352638
 40
0.2688284828210853
 40
0.2871390475183307
 40
0.3051849947633525
 40
0.3229840197313987
 40
0.3405545636347946
 40
0.3579157957832946
 40
0.3750875864811818
 40
0.3920904702140926
 40
0.4089455988135049
 40
0.4256746845738046
 40
0.442299933626171
 40
0.4588439702296088
 40
0.4753297530021518
 40
0.4917804844605413
 40
0.5082195155394587
 40
0.5246702469978487
 40
0.541156029770392
 40
0.5577000663738286
 40
0.574325315426195
 40
0.5910544011864952
 40
0.6079095297859075
 40
0.6249124135188185
 40
0.6420842042167055
 40
0.6594454363652057
 40
0.6770159802686017
 40
0.6948150052366475
 40
0.7128609524816695
 40
0.7311715171789145
 40
0.7497636389647359
 40
0.768653500024856
 40
0.7878565298547391
 40
0.8073874157493699
 40
0.827260118092426
 40
0.8474878895566117
 40
0.8680832973895222
 40
0.8890582480355992
 40
0.910424013428205
 40
0.9321912583715414
 40
0.9543700685163541
 40
0.976969978513097
 40
1.0
 40
1.0
 40
1.0
 40
1.0
 10
184.7362008486304
 20
80.57659910649025
 30
0.0
 10
184.9231116844624
 20
80.57760581012582
 30
0.0
 10
185.2934425865598
 20
80.57960041607716
 30
0.0
 10
185.84357319947
 20
80.5960980142179
 30
0.0
 10
186.383032073183
 20
80.62254811350194
 30
0.0
 10
186.9118199143429
 20
80.65986953007621
 30
0.0
 10
187.429937026427
 20
80.7078237705293
 30
0.0
 10
187.937383773682
 20
80.76647393061377
 30
0.0
 10
188.4341604431186
 20
80.83580464266898
 30
0.0
 10
188.9202672608258
 20
80.9158211010035
 30
0.0
 10
189.3957043656617
 20
81.00652325453619
 30
0.0
 10
189.8604717918875
 20
81.10791253016167
 30
0.0
 10
190.3145694477607
 20
81.21999007082798
 30
0.0
 10
190.7579970941873
 20
81.34275718125144
 30
0.0
 10
191.1907543233642
 20
81.47621519151923
 30
0.0
 10
191.6128405387412
 20
81.62036546592637
 30
0.0
 10
192.0242549375747
 20
81.7752093667725
 30
0.0
 10
192.4249964976211
 20
81.94074822284438
 30
0.0
 10
192.8150639696329
 20
82.11698329009516
 30
0.0
 10
193.1944558773253
 20
82.30391570891369
 30
0.0
 10
193.5631705263461
 20
82.50154645863458
 30
0.0
 10
193.9212060234411
 20
82.70987631160689
 30
0.0
 10
194.2685603064755
 20
82.92890578932446
 30
0.0
 10
194.6052311852563
 20
83.15863512351152
 30
0.0
 10
194.931216392232
 20
83.39906422514817
 30
0.0
 10
195.2465136412332
 20
83.65019266422456
 30
0.0
 10
195.5511206915382
 20
83.91201966251286
 30
0.0
 10
195.8450354138425
 20
84.18454410083702
 30
0.0
 10
196.1282558542836
 20
84.46776454127814
 30
0.0
 10
196.4007802926078
 20
84.7616792635824
 30
0.0
 10
196.662607290896
 20
85.06628631388737
 30
0.0
 10
196.9137357299724
 20
85.38158356288864
 30
0.0
 10
197.1541648316091
 20
85.7075687698644
 30
0.0
 10
197.3838941657962
 20
86.04423964864515
 30
0.0
 10
197.6029236435136
 20
86.3915939316796
 30
0.0
 10
197.8112534964861
 20
86.74962942877444
 30
0.0
 10
198.0088842462069
 20
87.11834407779529
 30
0.0
 10
198.1958166650255
 20
87.49773598548774
 30
0.0
 10
198.3720517322762
 20
87.88780345749949
 30
0.0
 10
198.5375905883481
 20
88.28854501754601
 30
0.0
 10
198.6924344891943
 20
88.69995941637934
 30
0.0
 10
198.8365847636013
 20
89.12204563175642
 30
0.0
 10
198.9700427738692
 20
89.55480286093328
 30
0.0
 10
199.0928098842926
 20
89.99823050735996
 30
0.0
 10
199.204887424959
 20
90.4523281632331
 30
0.0
 10
199.3062767005844
 20
90.91709558945885
 30
0.0
 10
199.3969788541171
 20
91.39253269429491
 30
0.0
 10
199.4769953124517
 20
91.87863951200204
 30
0.0
 10
199.5463260245068
 20
92.37541618143864
 30
0.0
 10
199.6049761845913
 20
92.8828629286937
 30
0.0
 10
199.6529304250444
 20
93.40098004077767
 30
0.0
 10
199.6902518416187
 20
93.92976788193764
 30
0.0
 10
199.7167019409027
 20
94.46922675565054
 30
0.0
 10
199.7331995390435
 20
95.01935736856089
 30
0.0
 10
199.7351941449948
 20
95.38968827065821
 30
0.0
 10
199.7362008486304
 20
95.57659910649026
 30
0.0
  0
LINE
  5
86
330
1F
100
AcDbEntity
  8
0
  6
Continuous
 62
     7
370
    25
100
AcDbLine
 10
24.7362008486
 20
80.5765991065
 30
0.0
 11
184.7362008486
 21
80.5765991065
 31
0.0
  0
SPLINE
  5
87
330
1F
100
AcDbEntity
  8
0
  6
Continuous
 62
     7
370
    25
100
AcDbSpline
210
0.0
220
0.0
230
1.0
 70
     8
 71
     3
 72
    60
 73
    56
 74
     0
 42
0.000000001
 43
0.00000001
 40
0.0
 40
0.0
 40
0.0
 40
0.0
 40
0.0230300214869031
 40
0.045629931483646
 40
0.0678087416284586
 40
0.0895759865717956
 40
0.1109417519644008
 40
0.131916702610479
 40
0.1525121104433882
 40
0.172739881907574
 40
0.19261258425063
 40
0.2121434701452615
 40
0.2313464999751444
 40
0.2502363610352639
 40
0.2688284828210862
 40
0.2871390475183309
 40
0.3051849947633523
 40
0.3229840197313985
 40
0.3405545636347947
 40
0.3579157957832951
 40
0.3750875864811818
 40
0.3920904702140929
 40
0.4089455988135055
 40
0.4256746845738052
 40
0.4422999336261716
 40
0.458843970229609
 40
0.4753297530021515
 40
0.4917804844605422
 40
0.5082195155394588
 40
0.5246702469978487
 40
0.5411560297703917
 40
0.5577000663738291
 40
0.5743253154261955
 40
0.5910544011864952
 40
0.6079095297859073
 40
0.6249124135188187
 40
0.6420842042167051
 40
0.6594454363652056
 40
0.6770159802686012
 40
0.6948150052366481
 40
0.7128609524816697
 40
0.7311715171789146
 40
0.7497636389647356
 40
0.768653500024856
 40
0.7878565298547388
 40
0.8073874157493699
 40
0.827260118092426
 40
0.8474878895566121
 40
0.868083297389522
 40
0.8890582480355991
 40
0.9104240134282049
 40
0.9321912583715419
 40
0.954370068516354
 40
0.9769699785130974
 40
0.9999999999999999
 40
0.9999999999999999
 40
0.9999999999999999
 40
0.9999999999999999
 10
9.736200848630347
 20
95.57659910649028
 30
0.0
 10
9.737207552265954
 20
95.38968827065824
 30
0.0
 10
9.739202158217234
 20
95.01935736856088
 30
0.0
 10
9.755699756357968
 20
94.46922675565057
 30
0.0
 10
9.782149855641965
 20
93.9297678819376
 30
0.0
 10
9.81947127221633
 20
93.40098004077775
 30
0.0
 10
9.867425512669392
 20
92.88286292869367
 30
0.0
 10
9.926075672753873
 20
92.37541618143865
 30
0.0
 10
9.995406384809044
 20
91.87863951200205
 30
0.0
 10
10.07542284314361
 20
91.3925326942949
 30
0.0
 10
10.16612499667628
 20
90.9170955894589
 30
0.0
 10
10.26751427230173
 20
90.4523281632331
 30
0.0
 10
10.37959181296807
 20
89.99823050735995
 30
0.0
 10
10.50235892339149
 20
89.55480286093332
 30
0.0
 10
10.63581693365938
 20
89.12204563175645
 30
0.0
 10
10.77996720806641
 20
88.69995941637934
 30
0.0
 10
10.93481110891266
 20
88.28854501754606
 30
0.0
 10
11.10034996498445
 20
87.88780345749949
 30
0.0
 10
11.27658503223522
 20
87.49773598548771
 30
0.0
 10
11.46351745105378
 20
87.11834407779527
 30
0.0
 10
11.66114820077462
 20
86.74962942877444
 30
0.0
 10
11.86947805374706
 20
86.39159393167958
 30
0.0
 10
12.08850753146454
 20
86.04423964864513
 30
0.0
 10
12.31823686565162
 20
85.70756876986437
 30
0.0
 10
12.55866596728826
 20
85.3815835628886
 30
0.0
 10
12.80979440636469
 20
85.0662863138874
 30
0.0
 10
13.07162140465291
 20
84.76167926358237
 30
0.0
 10
13.34414584297713
 20
84.46776454127817
 30
0.0
 10
13.62736628341825
 20
84.18454410083702
 30
0.0
 10
13.92128100572246
 20
83.9120196625128
 30
0.0
 10
14.22588805602749
 20
83.65019266422465
 30
0.0
 10
14.54118530502872
 20
83.39906422514818
 30
0.0
 10
14.86717051200447
 20
83.15863512351152
 30
0.0
 10
15.20384139078525
 20
82.92890578932447
 30
0.0
 10
15.55119567381966
 20
82.70987631160698
 30
0.0
 10
15.90923117091456
 20
82.50154645863456
 30
0.0
 10
16.27794581993534
 20
82.30391570891368
 30
0.0
 10
16.65733772762781
 20
82.11698329009515
 30
0.0
 10
17.04740519963957
 20
81.94074822284435
 30
0.0
 10
17.44814675968612
 20
81.77520936677256
 30
0.0
 10
17.85956115851944
 20
81.62036546592637
 30
0.0
 10
18.28164737389652
 20
81.47621519151926
 30
0.0
 10
18.71440460307336
 20
81.3427571812514
 30
0.0
 10
19.15783224950003
 20
81.21999007082798
 30
0.0
 10
19.61192990537321
 20
81.10791253016167
 30
0.0
 10
20.07669733159898
 20
81.00652325453619
 30
0.0
 10
20.55213443643497
 20
80.91582110100347
 30
0.0
 10
21.03824125414216
 20
80.835804642669
 30
0.0
 10
21.53501792357873
 20
80.76647393061373
 30
0.0
 10
22.04246467083378
 20
80.70782377052934
 30
0.0
 10
22.56058178291781
 20
80.65986953007621
 30
0.0
 10
23.08936962407772
 20
80.62254811350195
 30
0.0
 10
23.62882849779069
 20
80.59609801421789
 30
0.0
 10
24.17895911070093
 20
80.57960041607714
 30
0.0
 10
24.54929001279832
 20
80.57760581012583
 30
0.0
 10
24.73620084863033
 20
80.57659910649025
 30
0.0
  0
LINE
  5
88
330
1F
100
AcDbEntity
  8
0
  6
Continuous
 62
     7
370
    25
100
AcDbLine
 10
9.7362008486
 20
275.5765991065
 30
0.0
 11
9.7362008486
 21
95.5765991065
 31
0.0
  0
SPLINE
  5
89
330
1F
100
AcDbEntity
  8
0
  6
Continuous
 62
     7
370
    25
100
AcDbSpline
210
0.0
220
0.0
230
1.0
 70
     8
 71
     3
 72
    60
 73
    56
 74
     0
 42
0.000000001
 43
0.00000001
 40
0.0
 40
0.0
 40
0.0
 40
0.0
 40
0.0230300214869026
 40
0.045629931483646
 40
0.067808741628458
 40
0.0895759865717951
 40
0.1109417519644009
 40
0.131916702610479
 40
0.1525121104433889
 40
0.1727398819075741
 40
0.1926125842506313
 40
0.2121434701452611
 40
0.2313464999751441
 40
0.2502363610352638
 40
0.2688284828210855
 40
0.2871390475183307
 40
0.3051849947633518
 40
0.3229840197313992
 40
0.3405545636347943
 40
0.3579157957832946
 40
0.3750875864811818
 40
0.3920904702140929
 40
0.4089455988135052
 40
0.425674684573805
 40
0.4422999336261713
 40
0.4588439702296087
 40
0.4753297530021525
 40
0.4917804844605417
 40
0.5082195155394582
 40
0.5246702469978485
 40
0.5411560297703922
 40
0.557700066373829
 40
0.5743253154261944
 40
0.5910544011864954
 40
0.6079095297859073
 40
0.6249124135188189
 40
0.6420842042167054
 40
0.6594454363652056
 40
0.6770159802686012
 40
0.6948150052366484
 40
0.7128609524816696
 40
0.7311715171789143
 40
0.7497636389647361
 40
0.7686535000248558
 40
0.7878565298547388
 40
0.8073874157493691
 40
0.8272601180924257
 40
0.8474878895566121
 40
0.8680832973895215
 40
0.8890582480355991
 40
0.910424013428205
 40
0.9321912583715426
 40
0.9543700685163529
 40
0.9769699785130975
 40
1.0
 40
1.0
 40
1.0
 40
1.0
 10
24.73620084863035
 20
290.5765991064903
 30
0.0
 10
24.54929001279831
 20
290.5755924028547
 30
0.0
 10
24.17895911070093
 20
290.5735977969034
 30
0.0
 10
23.62882849779073
 20
290.5571001987626
 30
0.0
 10
23.08936962407769
 20
290.5306500994786
 30
0.0
 10
22.56058178291783
 20
290.4933286829042
 30
0.0
 10
22.04246467083375
 20
290.4453744424512
 30
0.0
 10
21.53501792357876
 20
290.3867242823667
 30
0.0
 10
21.03824125414214
 20
290.3173935703115
 30
0.0
 10
20.55213443643497
 20
290.237377111977
 30
0.0
 10
20.07669733159895
 20
290.1466749584444
 30
0.0
 10
19.61192990537322
 20
290.0452856828189
 30
0.0
 10
19.1578322495
 20
289.9332081421526
 30
0.0
 10
18.71440460307343
 20
289.8104410317291
 30
0.0
 10
18.28164737389655
 20
289.6769830214612
 30
0.0
 10
17.85956115851947
 20
289.5328327470541
 30
0.0
 10
17.4481467596861
 20
289.377988846208
 30
0.0
 10
17.04740519963958
 20
289.2124499901361
 30
0.0
 10
16.65733772762781
 20
289.0362149228854
 30
0.0
 10
16.27794581993539
 20
288.8492825040668
 30
0.0
 10
15.90923117091454
 20
288.651651754346
 30
0.0
 10
15.55119567381968
 20
288.4433219013735
 30
0.0
 10
15.20384139078525
 20
288.224292423656
 30
0.0
 10
14.86717051200448
 20
287.994563089469
 30
0.0
 10
14.54118530502875
 20
287.7541339878323
 30
0.0
 10
14.22588805602748
 20
287.5030055487559
 30
0.0
 10
13.9212810057225
 20
287.2411785504677
 30
0.0
 10
13.62736628341823
 20
286.9686541121434
 30
0.0
 10
13.34414584297716
 20
286.6854336717023
 30
0.0
 10
13.07162140465291
 20
286.3915189493981
 30
0.0
 10
12.80979440636466
 20
286.0869118990931
 30
0.0
 10
12.55866596728836
 20
285.7716146500918
 30
0.0
 10
12.31823686565157
 20
285.4456294431162
 30
0.0
 10
12.08850753146458
 20
285.1089585643354
 30
0.0
 10
11.86947805374711
 20
284.7616042813009
 30
0.0
 10
11.6611482007746
 20
284.403568784206
 30
0.0
 10
11.46351745105384
 20
284.0348541351852
 30
0.0
 10
11.27658503223519
 20
283.6554622274928
 30
0.0
 10
11.10034996498448
 20
283.265394755481
 30
0.0
 10
10.93481110891265
 20
282.8646531954345
 30
0.0
 10
10.77996720806647
 20
282.4532387966011
 30
0.0
 10
10.63581693365938
 20
282.031152581224
 30
0.0
 10
10.50235892339155
 20
281.5983953520472
 30
0.0
 10
10.37959181296807
 20
281.1549677056205
 30
0.0
 10
10.26751427230176
 20
280.7008700497474
 30
0.0
 10
10.16612499667624
 20
280.2361026235216
 30
0.0
 10
10.07542284314364
 20
279.7606655186856
 30
0.0
 10
9.995406384809073
 20
279.2745587009784
 30
0.0
 10
9.926075672753832
 20
278.7777820315419
 30
0.0
 10
9.867425512669447
 20
278.2703352842868
 30
0.0
 10
9.819471272216301
 20
277.7522181722028
 30
0.0
 10
9.78214985564202
 20
277.2234303310429
 30
0.0
 10
9.75569975635801
 20
276.6839714573299
 30
0.0
 10
9.73920215821722
 20
276.1338408444196
 30
0.0
 10
9.73720755226594
 20
275.7635099423223
 30
0.0
 10
9.736200848630347
 20
275.5765991064902
 30
0.0
  0
LINE
  5
8A
330
1F
100
AcDbEntity
  8
0
  6
Continuous
 62
     7
370
    25
100
AcDbLine
 10
184.7362008486
 20
290.5765991065
 30
0.0
 11
24.7362008486
 21
290.5765991065
 31
0.0
  0
LINE
  5
8B
330
1F
100
AcDbEntity
  8
0
  6
Continuous
 62
     7
370
    25
100
AcDbLine
 10
19.4362008486
 20
230.2765991065
 30
0.0
 11
19.4362008486
 21
233.8765991065
 31
0.0
  0
LINE
  5
8C
330
1F
100
AcDbEntity
  8
0
  6
Continuous
 62
     7
370
    25
100
AcDbLine
 10
45.0362008486
 20
230.2765991065
 30
0.0
 11
19.4362008486
 21
230.2765991065
 31
0.0
  0
LINE
  5
8D
330
1F
100
AcDbEntity
  8
0
  6
Continuous
 62
     7
370
    25
100
AcDbLine
 10
45.0362008486
 20
233.8765991065
 30
0.0
 11
45.0362008486
 21
230.2765991065
 31
0.0
  0
LINE
  5
8E
330
1F
100
AcDbEntity
  8
0
  6
Continuous
 62
     7
370
    25
100
AcDbLine
 10
19.4362008486
 20
233.8765991065
 30
0.0
 11
45.0362008486
 21
233.8765991065
 31
0.0
  0
LINE
  5
8F
330
1F
100
AcDbEntity
  8
0
  6
Continuous
 62
     7
370
    25
100
AcDbLine
 10
67.769534182
 20
230.2765991065
 30
0.0
 11
67.769534182
 21
233.8765991065
 31
0.0
  0
LINE
  5
90
330
1F
100
AcDbEntity
  8
0
  6
Continuous
 62
     7
370
    25
100
AcDbLine
 10
93.369534182
 20
230.2765991065
 30
0.0
 11
67.769534182
 21
230.2765991065
 31
0.0
  0
LINE
  5
91
330
1F
100
AcDbEntity
  8
0
  6
Continuous
 62
     7
370
    25
100
AcDbLine
 10
93.369534182
 20
233.8765991065
 30
0.0
 11
93.369534182
 21
230.2765991065
 31
0.0
  0
LINE
  5
92
330
1F
100
AcDbEntity
  8
0
  6
Continuous
 62
     7
370
    25
100
AcDbLine
 10
67.769534182
 20
233.8765991065
 30
0.0
 11
93.369534182
 21
233.8765991065
 31
0.0
  0
LINE
  5
93
330
1F
100
AcDbEntity
  8
0
  6
Continuous
 62
     7
370
    25
100
AcDbLine
 10
116.1028675153
 20
230.2765991065
 30
0.0
 11
116.1028675153
 21
233.8765991065
 31
0.0
  0
LINE
  5
94
330
1F
100
AcDbEntity
  8
0
  6
Continuous
 62
     7
370
    25
100
AcDbLine
 10
141.7028675153
 20
230.2765991065
 30
0.0
 11
116.1028675153
 21
230.2765991065
 31
0.0
  0
LINE
  5
95
330
1F
100
AcDbEntity
  8
0
  6
Continuous
 62
     7
370
    25
100
AcDbLine
 10
141.7028675153
 20
233.8765991065
 30
0.0
 11
141.7028675153
 21
230.2765991065
 31
0.0
  0
LINE
  5
96
330
1F
100
AcDbEntity
  8
0
  6
Continuous
 62
     7
370
    25
100
AcDbLine
 10
116.1028675153
 20
233.8765991065
 30
0.0
 11
141.7028675153
 21
233.8765991065
 31
0.0
  0
LINE
  5
97
330
1F
100
AcDbEntity
  8
0
  6
Continuous
 62
     7
370
    25
100
AcDbLine
 10
164.4362008486
 20
230.2765991065
 30
0.0
 11
164.4362008486
 21
233.8765991065
 31
0.0
  0
LINE
  5
98
330
1F
100
AcDbEntity
  8
0
  6
Continuous
 62
     7
370
    25
100
AcDbLine
 10
190.0362008486
 20
230.2765991065
 30
0.0
 11
164.4362008486
 21
230.2765991065
 31
0.0
  0
LINE
  5
99
330
1F
100
AcDbEntity
  8
0
  6
Continuous
 62
     7
370
    25
100
AcDbLine
 10
190.0362008486
 20
233.8765991065
 30
0.0
 11
190.0362008486
 21
230.2765991065
 31
0.0
  0
LINE
  5
9A
330
1F
100
AcDbEntity
  8
0
  6
Continuous
 62
     7
370
    25
100
AcDbLine
 10
164.4362008486
 20
233.8765991065
 30
0.0
 11
190.0362008486
 21
233.8765991065
 31
0.0
  0
CIRCLE
  5
9B
330
1F
100
AcDbEntity
  8
0
  6
Continuous
 62
     7
370
    25
100
AcDbCircle
 10
181.1362008486
 20
154.3521523205
 30
0.0
 40
3.599999999999994
  0
CIRCLE
  5
9C
330
1F
100
AcDbEntity
  8
0
  6
Continuous
 62
     7
370
    25
100
AcDbCircle
 10
28.3362008486
 20
216.8010458924
 30
0.0
 40
3.599999999999994
  0
CIRCLE
  5
9D
330
1F
100
AcDbEntity
  8
0
  6
Continuous
 62
     7
370
    25
100
AcDbCircle
 10
28.3362008486
 20
154.3521523205
 30
0.0
 40
3.599999999999994
  0
CIRCLE
  5
9E
330
1F
100
AcDbEntity
  8
0
  6
Continuous
 62
     7
370
    25
100
AcDbCircle
 10
181.1362008486
 20
216.8010458924
 30
0.0
 40
3.599999999999994
  0
LINE
  5
9F
330
1F
100
AcDbEntity
  8
0
  6
Continuous
 62
     7
370
    25
100
AcDbLine
 10
99.8708919339
 20
38.0024749564
 30
0.0
 11
69.2708919339
 21
38.0024749564
 31
0.0
  0
LINE
  5
A0
330
1F
100
AcDbEntity
  8
0
  6
Continuous
 62
     7
370
    25
100
AcDbLine
 10
99.8708919339
 20
41.6024749564
 30
0.0
 11
99.8708919339
 21
38.0024749564
 31
0.0
  0
LINE
  5
A1
330
1F
100
AcDbEntity
  8
0
  6
Continuous
 62
     7
370
    25
100
AcDbLine
 10
69.2708919339
 20
41.6024749564
 30
0.0
 11
99.8708919339
 21
41.6024749564
 31
0.0
  0
LINE
  5
A2
330
1F
100
AcDbEntity
  8
0
  6
Continuous
 62
     7
370
    25
100
AcDbLine
 10
69.2708919339
 20
38.0024749564
 30
0.0
 11
69.2708919339
 21
41.6024749564
 31
0.0
  0
LINE
  5
A3
330
1F
100
AcDbEntity
  8
0
  6
Continuous
 62
     7
370
    25
100
AcDbLine
 10
139.8708919339
 20
38.0024749564
 30
0.0
 11
109.2708919339
 21
38.0024749564
 31
0.0
  0
LINE
  5
A4
330
1F
100
AcDbEntity
  8
0
  6
Continuous
 62
     7
370
    25
100
AcDbLine
 10
139.8708919339
 20
41.6024749564
 30
0.0
 11
139.8708919339
 21
38.0024749564
 31
0.0
  0
LINE
  5
A5
330
1F
100
AcDbEntity
  8
0
  6
Continuous
 62
     7
370
    25
100
AcDbLine
 10
109.2708919339
 20
41.6024749564
 30
0.0
 11
139.8708919339
 21
41.6024749564
 31
0.0
  0
LINE
  5
A6
330
1F
100
AcDbEntity
  8
0
  6
Continuous
 62
     7
370
    25
100
AcDbLine
 10
109.2708919339
 20
38.0024749564
 30
0.0
 11
109.2708919339
 21
41.6024749564
 31
0.0
  0
LINE
  5
A7
330
1F
100
AcDbEntity
  8
0
  6
Continuous
 62
     7
370
    25
100
AcDbLine
 10
19.5708919339
 20
70.8024749564
 30
0.0
 11
9.5708919339
 21
70.8024749564
 31
0.0
  0
LINE
  5
A8
330
1F
100
AcDbEntity
  8
0
  6
Continuous
 62
     7
370
    25
100
AcDbLine
 10
19.5708919339
 20
73.8024749564
 30
0.0
 11
19.5708919339
 21
70.8024749564
 31
0.0
  0
LINE
  5
A9
330
1F
100
AcDbEntity
  8
0
  6
Continuous
 62
     7
370
    25
100
AcDbLine
 10
19.5708919339
 20
73.8024749564
 30
0.0
 11
44.5708919339
 21
73.8024749564
 31
0.0
  0
LINE
  5
AA
330
1F
100
AcDbEntity
  8
0
  6
Continuous
 62
     7
370
    25
100
AcDbLine
 10
44.5708919339
 20
73.8024749564
 30
0.0
 11
44.5708919339
 21
70.8024749564
 31
0.0
  0
LINE
  5
AB
330
1F
100
AcDbEntity
  8
0
  6
Continuous
 62
     7
370
    25
100
AcDbLine
 10
67.9042252672
 20
70.8024749564
 30
0.0
 11
44.5708919339
 21
70.8024749564
 31
0.0
  0
LINE
  5
AC
330
1F
100
AcDbEntity
  8
0
  6
Continuous
 62
     7
370
    25
100
AcDbLine
 10
67.9042252672
 20
73.8024749564
 30
0.0
 11
67.9042252672
 21
70.8024749564
 31
0.0
  0
LINE
  5
AD
330
1F
100
AcDbEntity
  8
0
  6
Continuous
 62
     7
370
    25
100
AcDbLine
 10
67.9042252672
 20
73.8024749564
 30
0.0
 11
92.9042252672
 21
73.8024749564
 31
0.0
  0
LINE
  5
AE
330
1F
100
AcDbEntity
  8
0
  6
Continuous
 62
     7
370
    25
100
AcDbLine
 10
92.9042252672
 20
73.8024749564
 30
0.0
 11
92.9042252672
 21
70.8024749564
 31
0.0
  0
LINE
  5
AF
330
1F
100
AcDbEntity
  8
0
  6
Continuous
 62
     7
370
    25
100
AcDbLine
 10
116.2375586005
 20
70.8024749564
 30
0.0
 11
92.9042252672
 21
70.8024749564
 31
0.0
  0
LINE
  5
B0
330
1F
100
AcDbEntity
  8
0
  6
Continuous
 62
     7
370
    25
100
AcDbLine
 10
116.2375586005
 20
73.8024749564
 30
0.0
 11
116.2375586005
 21
70.8024749564
 31
0.0
  0
LINE
  5
B1
330
1F
100
AcDbEntity
  8
0
  6
Continuous
 62
     7
370
    25
100
AcDbLine
 10
116.2375586005
 20
73.8024749564
 30
0.0
 11
141.2375586005
 21
73.8024749564
 31
0.0
  0
LINE
  5
B2
330
1F
100
AcDbEntity
  8
0
  6
Continuous
 62
     7
370
    25
100
AcDbLine
 10
141.2375586005
 20
73.8024749564
 30
0.0
 11
141.2375586005
 21
70.8024749564
 31
0.0
  0
LINE
  5
B3
330
1F
100
AcDbEntity
  8
0
  6
Continuous
 62
     7
370
    25
100
AcDbLine
 10
164.5708919339
 20
70.8024749564
 30
0.0
 11
141.2375586005
 21
70.8024749564
 31
0.0
  0
LINE
  5
B4
330
1F
100
AcDbEntity
  8
0
  6
Continuous
 62
     7
370
    25
100
AcDbLine
 10
164.5708919339
 20
73.8024749564
 30
0.0
 11
164.5708919339
 21
70.8024749564
 31
0.0
  0
LINE
  5
B5
330
1F
100
AcDbEntity
  8
0
  6
Continuous
 62
     7
370
    25
100
AcDbLine
 10
164.5708919339
 20
73.8024749564
 30
0.0
 11
189.5708919339
 21
73.8024749564
 31
0.0
  0
LINE
  5
B6
330
1F
100
AcDbEntity
  8
0
  6
Continuous
 62
     7
370
    25
100
AcDbLine
 10
189.5708919339
 20
73.8024749564
 30
0.0
 11
189.5708919339
 21
70.8024749564
 31
0.0
  0
LINE
  5
B7
330
1F
100
AcDbEntity
  8
0
  6
Continuous
 62
     7
370
    25
100
AcDbLine
 10
199.5708919339
 20
70.8024749564
 30
0.0
 11
189.5708919339
 21
70.8024749564
 31
0.0
  0
LINE
  5
B8
330
1F
100
AcDbEntity
  8
0
  6
Continuous
 62
     7
370
    25
100
AcDbLine
 10
199.5708919339
 20
5.8024749564
 30
0.0
 11
199.5708919339
 21
70.8024749564
 31
0.0
  0
LINE
  5
B9
330
1F
100
AcDbEntity
  8
0
  6
Continuous
 62
     7
370
    25
100
AcDbLine
 10
189.5708919339
 20
5.8024749564
 30
0.0
 11
199.5708919339
 21
5.8024749564
 31
0.0
  0
LINE
  5
BA
330
1F
100
AcDbEntity
  8
0
  6
Continuous
 62
     7
370
    25
100
AcDbLine
 10
189.5708919339
 20
2.8024749564
 30
0.0
 11
189.5708919339
 21
5.8024749564
 31
0.0
  0
LINE
  5
BB
330
1F
100
AcDbEntity
  8
0
  6
Continuous
 62
     7
370
    25
100
AcDbLine
 10
164.5708919339
 20
2.8024749564
 30
0.0
 11
189.5708919339
 21
2.8024749564
 31
0.0
  0
LINE
  5
BC
330
1F
100
AcDbEntity
  8
0
  6
Continuous
 62
     7
370
    25
100
AcDbLine
 10
164.5708919339
 20
2.8024749564
 30
0.0
 11
164.5708919339
 21
5.8024749564
 31
0.0
  0
LINE
  5
BD
330
1F
100
AcDbEntity
  8
0
  6
Continuous
 62
     7
370
    25
100
AcDbLine
 10
141.2375586005
 20
5.8024749564
 30
0.0
 11
164.5708919339
 21
5.8024749564
 31
0.0
  0
LINE
  5
BE
330
1F
100
AcDbEntity
  8
0
  6
Continuous
 62
     7
370
    25
100
AcDbLine
 10
141.2375586005
 20
2.8024749564
 30
0.0
 11
141.2375586005
 21
5.8024749564
 31
0.0
  0
LINE
  5
BF
330
1F
100
AcDbEntity
  8
0
  6
Continuous
 62
     7
370
    25
100
AcDbLine
 10
116.2375586005
 20
2.8024749564
 30
0.0
 11
141.2375586005
 21
2.8024749564
 31
0.0
  0
LINE
  5
C0
330
1F
100
AcDbEntity
  8
0
  6
Continuous
 62
     7
370
    25
100
AcDbLine
 10
116.2375586005
 20
2.8024749564
 30
0.0
 11
116.2375586005
 21
5.8024749564
 31
0.0
  0
LINE
  5
C1
330
1F
100
AcDbEntity
  8
0
  6
Continuous
 62
     7
370
    25
100
AcDbLine
 10
92.9042252672
 20
5.8024749564
 30
0.0
 11
116.2375586005
 21
5.8024749564
 31
0.0
  0
LINE
  5
C2
330
1F
100
AcDbEntity
  8
0
  6
Continuous
 62
     7
370
    25
100
AcDbLine
 10
92.9042252672
 20
2.8024749564
 30
0.0
 11
92.9042252672
 21
5.8024749564
 31
0.0
  0
LINE
  5
C3
330
1F
100
AcDbEntity
  8
0
  6
Continuous
 62
     7
370
    25
100
AcDbLine
 10
67.9042252672
 20
2.8024749564
 30
0.0
 11
92.9042252672
 21
2.8024749564
 31
0.0
  0
LINE
  5
C4
330
1F
100
AcDbEntity
  8
0
  6
Continuous
 62
     7
370
    25
100
AcDbLine
 10
67.9042252672
 20
2.8024749564
 30
0.0
 11
67.9042252672
 21
5.8024749564
 31
0.0
  0
LINE
  5
C5
330
1F
100
AcDbEntity
  8
0
  6
Continuous
 62
     7
370
    25
100
AcDbLine
 10
44.5708919339
 20
5.8024749564
 30
0.0
 11
67.9042252672
 21
5.8024749564
 31
0.0
  0
LINE
  5
C6
330
1F
100
AcDbEntity
  8
0
  6
Continuous
 62
     7
370
    25
100
AcDbLine
 10
44.5708919339
 20
2.8024749564
 30
0.0
 11
44.5708919339
 21
5.8024749564
 31
0.0
  0
LINE
  5
C7
330
1F
100
AcDbEntity
  8
0
  6
Continuous
 62
     7
370
    25
100
AcDbLine
 10
19.5708919339
 20
2.8024749564
 30
0.0
 11
44.5708919339
 21
2.8024749564
 31
0.0
  0
LINE
  5
C8
330
1F
100
AcDbEntity
  8
0
  6
Continuous
 62
     7
370
    25
100
AcDbLine
 10
19.5708919339
 20
2.8024749564
 30
0.0
 11
19.5708919339
 21
5.8024749564
 31
0.0
  0
LINE
  5
C9
330
1F
100
AcDbEntity
  8
0
  6
Continuous
 62
     7
370
    25
100
AcDbLine
 10
9.5708919339
 20
5.8024749564
 30
0.0
 11
19.5708919339
 21
5.8024749564
 31
0.0
  0
LINE
  5
CA
330
1F
100
AcDbEntity
  8
0
  6
Continuous
 62
     7
370
    25
100
AcDbLine
 10
9.5708919339
 20
70.8024749564
 30
0.0
 11
9.5708919339
 21
5.8024749564
 31
0.0
  0
CIRCLE
  5
CB
330
1F
100
AcDbEntity
  8
0
  6
Continuous
 62
     7
370
    25
100
AcDbCircle
 10
28.1708919339
 20
57.3269217424
 30
0.0
 40
2.999999999999989
  0
CIRCLE
  5
CC
330
1F
100
AcDbEntity
  8
0
  6
Continuous
 62
     7
370
    25
100
AcDbCircle
 10
180.9708919339
 20
19.2780281705
 30
0.0
 40
3.000000000000028
  0
CIRCLE
  5
CD
330
1F
100
AcDbEntity
  8
0
  6
Continuous
 62
     7
370
    25
100
AcDbCircle
 10
28.1708919339
 20
19.2780281705
 30
0.0
 40
2.999999999999989
  0
CIRCLE
  5
CE
330
1F
100
AcDbEntity
  8
0
  6
Continuous
 62
     7
370
    25
100
AcDbCircle
 10
180.6708919339
 20
57.3269217424
 30
0.0
 40
3.000000000000028
  0
ENDSEC
  0
SECTION
  2
OBJECTS
  0
DICTIONARY
  5
C
330
0
100
AcDbDictionary
281
     1
  3
ACAD_GROUP
350
D
  3
ACAD_LAYOUT
350
1A
  3
ACAD_MLINESTYLE
350
17
  3
ACAD_PLOTSETTINGS
350
19
  3
ACAD_PLOTSTYLENAME
350
E
  3
ACAD_SCALELIST
350
47
  0
DICTIONARY
  5
D
102
{ACAD_REACTORS
330
C
102
}
330
C
100
AcDbDictionary
281
     1
  0
DICTIONARY
  5
1A
102
{ACAD_REACTORS
330
C
102
}
330
C
100
AcDbDictionary
281
     1
  3
Layout1
350
1E
  3
Layout2
350
26
  3
Model
350
22
  0
DICTIONARY
  5
17
102
{ACAD_REACTORS
330
C
102
}
330
C
100
AcDbDictionary
281
     1
  3
Standard
350
18
  0
DICTIONARY
  5
19
102
{ACAD_REACTORS
330
C
102
}
330
C
100
AcDbDictionary
281
     1
  0
ACDBDICTIONARYWDFLT
  5
E
102
{ACAD_REACTORS
330
C
102
}
330
C
100
AcDbDictionary
281
     1
  3
Normal
350
F
100
AcDbDictionaryWithDefault
340
F
  0
DICTIONARY
  5
47
102
{ACAD_REACTORS
330
C
102
}
330
C
100
AcDbDictionary
281
     1
  3
A0
350
48
  3
A1
350
49
  3
A2
350
4A
  3
A3
350
4B
  3
A4
350
4C
  3
A5
350
4D
  3
A6
350
4E
  3
A7
350
4F
  3
A8
350
50
  3
A9
350
51
  3
B0
350
52
  3
B1
350
53
  3
B2
350
54
  3
B3
350
55
  3
B4
350
56
  3
B5
350
57
  3
B6
350
58
  3
B7
350
59
  3
B8
350
5A
  3
B9
350
5B
  3
C0
350
5C
  3
C1
350
5D
  3
C2
350
5E
  3
C3
350
5F
  3
C4
350
60
  3
C5
350
61
  3
C6
350
62
  3
C7
350
63
  3
C8
350
64
  3
C9
350
65
  3
D0
350
66
  3
D1
350
67
  3
D2
350
68
  0
LAYOUT
  5
1E
102
{ACAD_REACTORS
330
1A
102
}
330
1A
100
AcDbPlotSettings
  1

  2
none_device
  4

  6

 40
0.0
 41
0.0
 42
0.0
 43
0.0
 44
0.0
 45
0.0
 46
0.0
 47
0.0
 48
0.0
 49
0.0
140
0.0
141
0.0
142
1.0
143
1.0
 70
   688
 72
     1
 73
     0
 74
     5
  7

 75
    16
147
1.0
148
0.0
149
0.0
100
AcDbLayout
  1
Layout1
 70
     1
 71
     1
 10
0.0
 20
0.0
 11
420.0
 21
297.0
 12
0.0
 22
0.0
 32
0.0
 14
1.0000000000E+20
 24
1.0000000000E+20
 34
1.0000000000E+20
 15
-1.0000000000E+20
 25
-1.0000000000E+20
 35
-1.0000000000E+20
146
0.0
 13
0.0
 23
0.0
 33
0.0
 16
1.0
 26
0.0
 36
0.0
 17
0.0
 27
1.0
 37
0.0
 76
     0
330
1B
  0
LAYOUT
  5
26
102
{ACAD_REACTORS
330
1A
102
}
330
1A
100
AcDbPlotSettings
  1

  2
none_device
  4

  6

 40
0.0
 41
0.0
 42
0.0
 43
0.0
 44
0.0
 45
0.0
 46
0.0
 47
0.0
 48
0.0
 49
0.0
140
0.0
141
0.0
142
1.0
143
1.0
 70
   688
 72
     1
 73
     0
 74
     5
  7

 75
    16
147
1.0
148
0.0
149
0.0
100
AcDbLayout
  1
Layout2
 70
     1
 71
     2
 10
0.0
 20
0.0
 11
0.0
 21
0.0
 12
0.0
 22
0.0
 32
0.0
 14
0.0
 24
0.0
 34
0.0
 15
0.0
 25
0.0
 35
0.0
146
0.0
 13
0.0
 23
0.0
 33
0.0
 16
1.0
 26
0.0
 36
0.0
 17
0.0
 27
1.0
 37
0.0
 76
     0
330
23
  0
LAYOUT
  5
22
102
{ACAD_REACTORS
330
1A
102
}
330
1A
100
AcDbPlotSettings
  1

  2
none_device
  4
Letter_(8.50_x_11.00_Inches)
  6

 40
6.35
 41
6.35
 42
6.35000508
 43
6.35000508
 44
215.9
 45
279.4
 46
0.0
 47
0.0
 48
0.0
 49
0.0
140
0.0
141
0.0
142
1.0
143
1.0
 70
  1712
 72
     1
 73
     0
 74
     0
  7

 75
     0
147
1.0
148
0.0
149
0.0
100
AcDbLayout
  1
Model
 70
     1
 71
     0
 10
0.0
 20
0.0
 11
210.0
 21
297.0
 12
0.0
 22
0.0
 32
0.0
 14
0.0
 24
0.0
 34
0.0
 15
210.0
 25
297.0
 35
0.0
146
0.0
 13
0.0
 23
0.0
 33
0.0
 16
1.0
 26
0.0
 36
0.0
 17
0.0
 27
1.0
 37
0.0
 76
     0
330
1F
331
29
  0
MLINESTYLE
  5
18
102
{ACAD_REACTORS
330
17
102
}
330
17
100
AcDbMlineStyle
  2
Standard
 70
     0
  3

 62
   256
 51
90.0
 52
90.0
 71
     2
 49
0.5
 62
   256
  6
BYLAYER
 49
-0.5
 62
   256
  6
BYLAYER
  0
ACDBPLACEHOLDER
  5
F
102
{ACAD_REACTORS
330
E
102
}
330
E
  0
SCALE
  5
48
102
{ACAD_REACTORS
330
47
102
}
330
47
100
AcDbScale
 70
     0
300
1:1
140
1.0
141
1.0
290
     1
  0
SCALE
  5
49
102
{ACAD_REACTORS
330
47
102
}
330
47
100
AcDbScale
 70
     0
300
1:2
140
1.0
141
2.0
290
     0
  0
SCALE
  5
4A
102
{ACAD_REACTORS
330
47
102
}
330
47
100
AcDbScale
 70
     0
300
1:4
140
1.0
141
4.0
290
     0
  0
SCALE
  5
4B
102
{ACAD_REACTORS
330
47
102
}
330
47
100
AcDbScale
 70
     0
300
1:5
140
1.0
141
5.0
290
     0
  0
SCALE
  5
4C
102
{ACAD_REACTORS
330
47
102
}
330
47
100
AcDbScale
 70
     0
300
1:8
140
1.0
141
8.0
290
     0
  0
SCALE
  5
4D
102
{ACAD_REACTORS
330
47
102
}
330
47
100
AcDbScale
 70
     0
300
1:10
140
1.0
141
10.0
290
     0
  0
SCALE
  5
4E
102
{ACAD_REACTORS
330
47
102
}
330
47
100
AcDbScale
 70
     0
300
1:16
140
1.0
141
16.0
290
     0
  0
SCALE
  5
4F
102
{ACAD_REACTORS
330
47
102
}
330
47
100
AcDbScale
 70
     0
300
1:20
140
1.0
141
20.0
290
     0
  0
SCALE
  5
50
102
{ACAD_REACTORS
330
47
102
}
330
47
100
AcDbScale
 70
     0
300
1:30
140
1.0
141
30.0
290
     0
  0
SCALE
  5
51
102
{ACAD_REACTORS
330
47
102
}
330
47
100
AcDbScale
 70
     0
300
1:40
140
1.0
141
40.0
290
     0
  0
SCALE
  5
52
102
{ACAD_REACTORS
330
47
102
}
330
47
100
AcDbScale
 70
     0
300
1:50
140
1.0
141
50.0
290
     0
  0
SCALE
  5
53
102
{ACAD_REACTORS
330
47
102
}
330
47
100
AcDbScale
 70
     0
300
1:100
140
1.0
141
100.0
290
     0
  0
SCALE
  5
54
102
{ACAD_REACTORS
330
47
102
}
330
47
100
AcDbScale
 70
     0
300
2:1
140
2.0
141
1.0
290
     0
  0
SCALE
  5
55
102
{ACAD_REACTORS
330
47
102
}
330
47
100
AcDbScale
 70
     0
300
4:1
140
4.0
141
1.0
290
     0
  0
SCALE
  5
56
102
{ACAD_REACTORS
330
47
102
}
330
47
100
AcDbScale
 70
     0
300
8:1
140
8.0
141
1.0
290
     0
  0
SCALE
  5
57
102
{ACAD_REACTORS
330
47
102
}
330
47
100
AcDbScale
 70
     0
300
10:1
140
10.0
141
1.0
290
     0
  0
SCALE
  5
58
102
{ACAD_REACTORS
330
47
102
}
330
47
100
AcDbScale
 70
     0
300
100:1
140
100.0
141
1.0
290
     0
  0
SCALE
  5
59
102
{ACAD_REACTORS
330
47
102
}
330
47
100
AcDbScale
 70
     0
300
1/128" = 1'-0"
140
0.0078125
141
12.0
290
     0
  0
SCALE
  5
5A
102
{ACAD_REACTORS
330
47
102
}
330
47
100
AcDbScale
 70
     0
300
1/64" = 1'-0"
140
0.015625
141
12.0
290
     0
  0
SCALE
  5
5B
102
{ACAD_REACTORS
330
47
102
}
330
47
100
AcDbScale
 70
     0
300
1/32" = 1'-0"
140
0.03125
141
12.0
290
     0
  0
SCALE
  5
5C
102
{ACAD_REACTORS
330
47
102
}
330
47
100
AcDbScale
 70
     0
300
1/16" = 1'-0"
140
0.0625
141
12.0
290
     0
  0
SCALE
  5
5D
102
{ACAD_REACTORS
330
47
102
}
330
47
100
AcDbScale
 70
     0
300
3/32" = 1'-0"
140
0.09375
141
12.0
290
     0
  0
SCALE
  5
5E
102
{ACAD_REACTORS
330
47
102
}
330
47
100
AcDbScale
 70
     0
300
1/8" = 1'-0"
140
0.125
141
12.0
290
     0
  0
SCALE
  5
5F
102
{ACAD_REACTORS
330
47
102
}
330
47
100
AcDbScale
 70
     0
300
3/16" = 1'-0"
140
0.1875
141
12.0
290
     0
  0
SCALE
  5
60
102
{ACAD_REACTORS
330
47
102
}
330
47
100
AcDbScale
 70
     0
300
1/4" = 1'-0"
140
0.25
141
12.0
290
     0
  0
SCALE
  5
61
102
{ACAD_REACTORS
330
47
102
}
330
47
100
AcDbScale
 70
     0
300
3/8" = 1'-0"
140
0.375
141
12.0
290
     0
  0
SCALE
  5
62
102
{ACAD_REACTORS
330
47
102
}
330
47
100
AcDbScale
 70
     0
300
1/2" = 1'-0"
140
0.5
141
12.0
290
     0
  0
SCALE
  5
63
102
{ACAD_REACTORS
330
47
102
}
330
47
100
AcDbScale
 70
     0
300
3/4" = 1'-0"
140
0.75
141
12.0
290
     0
  0
SCALE
  5
64
102
{ACAD_REACTORS
330
47
102
}
330
47
100
AcDbScale
 70
     0
300
1" = 1'-0"
140
1.0
141
12.0
290
     0
  0
SCALE
  5
65
102
{ACAD_REACTORS
330
47
102
}
330
47
100
AcDbScale
 70
     0
300
1-1/2" = 1'-0"
140
1.5
141
12.0
290
     0
  0
SCALE
  5
66
102
{ACAD_REACTORS
330
47
102
}
330
47
100
AcDbScale
 70
     0
300
3" = 1'-0"
140
3.0
141
12.0
290
     0
  0
SCALE
  5
67
102
{ACAD_REACTORS
330
47
102
}
330
47
100
AcDbScale
 70
     0
300
6" = 1'-0"
140
6.0
141
12.0
290
     0
  0
SCALE
  5
68
102
{ACAD_REACTORS
330
47
102
}
330
47
100
AcDbScale
 70
     0
300
1'-0" = 1'-0"
140
12.0
141
12.0
290
     0
  0
ENDSEC
  0
EOF
