M48
METRIC,LZ,000.000
;FILE_FORMAT=3:3
;TYPE=PLATED
;Layer: PTH_Through_Via
;EasyEDA v6.5.40, 2026-01-05 16:26:39
;42c84b081a0e4a169c7a89ad6c2159f2,1a2d1b1f031a47d2a25da1fd3f2af730,10
;Gerber Generator version 0.2
;Holesize 1 = 0.600 mm
T01C0.600
%
G05
G90
T01
X005969Y003937
X001905Y003937
X002413Y005207
X005461Y005207
X005207Y002413
X003937Y001905
X002667Y002413
X003937Y005969
X095758Y068072
X094488Y064516
X095758Y064008
X097028Y064516
X097282Y067310
X094234Y067310
X093726Y066040
X097790Y066040
X003937Y041656
X002667Y038100
X003937Y037592
X005207Y038100
X005461Y040894
X002413Y040894
X001905Y039624
X005969Y039624
X055372Y017780
X051308Y017780
X051816Y019050
X054864Y019050
X054610Y016256
X053340Y015748
X052070Y016256
X053340Y019812
X070993Y018034
X039370Y007747
M30
