M48
METRIC,LZ,000.000
;FILE_FORMAT=3:3
;TYPE=PLATED
;Layer: PTH_Through
;EasyEDA v6.5.40, 2026-01-05 16:26:39
;42c84b081a0e4a169c7a89ad6c2159f2,1a2d1b1f031a47d2a25da1fd3f2af730,10
;Gerber Generator version 0.2
;Holesize 1 = 0.600 mm
T01C0.600
;Holesize 2 = 0.914 mm
T02C0.914
;Holesize 3 = 0.951 mm
T03C0.951
;Holesize 4 = 1.000 mm
T04C1.000
;Holesize 5 = 1.021 mm
T05C1.021
;Holesize 6 = 1.050 mm
T06C1.050
;Holesize 7 = 1.101 mm
T07C1.101
;Holesize 8 = 1.301 mm
T08C1.301
;Holesize 9 = 1.501 mm
T09C1.501
;Holesize 10 = 2.101 mm
T10C2.101
;Holesize 11 = 3.000 mm
T11C3.000
%
G05
G90
T01
X005969Y003937
X001905Y003937
X002413Y005207
X005461Y005207
X005207Y002413
X003937Y001905
X002667Y002413
X003937Y005969
X095758Y068072
X094488Y064516
X095758Y064008
X097028Y064516
X097282Y067310
X094234Y067310
X093726Y066040
X097790Y066040
X003937Y041656
X002667Y038100
X003937Y037592
X005207Y038100
X005461Y040894
X002413Y040894
X001905Y039624
X005969Y039624
X055372Y017780
X051308Y017780
X051816Y019050
X054864Y019050
X054610Y016256
X053340Y015748
X052070Y016256
X053340Y019812
X070993Y018034
X039370Y007747
T02
X086137Y064214G85X088423Y064214
X086092Y058674G85X088378Y058674
X082790Y060071G85X082790Y062357
T03
X086180Y026050
X088680Y026050
X090680Y026050
X093180Y026050
X086180Y016050
X088680Y016050
X090680Y016050
X093180Y016050
T04
X055039Y003192
X055039Y005190
X057038Y003189
X057038Y005193
X059037Y003189
X059040Y005190
X061041Y003189
X061039Y005190
X063043Y003186
X063043Y005188
X065042Y003189
X065042Y005190
X067038Y003189
X067041Y005190
X069040Y003189
X069042Y005190
X071041Y003189
X071041Y005190
X073043Y003189
X073043Y005188
X075044Y003197
X075047Y005196
X077046Y003197
X077048Y005196
X079042Y003197
X079042Y005196
X081044Y003197
X081044Y005196
X083043Y003197
X083043Y005196
X085044Y003194
X085044Y005196
X087043Y003197
X087043Y005196
X089042Y003197
X089042Y005196
X091044Y003197
X091044Y005196
X093043Y003197
X093043Y005196
X064815Y017365
X064805Y024985
X062265Y024985
X062275Y017365
X040411Y017238
X040401Y024858
X037861Y024858
X037871Y017238
X015118Y017399
X015108Y025019
X012568Y025019
X012578Y017399
T05
X083076Y053467
X085616Y053467
X093744Y053467
X096284Y053467
X096284Y034925
X093744Y034925
X085616Y034925
X083076Y034925
T06
X045573Y003810
X043073Y003810
X035413Y003810
X032913Y003810
T07
X020233Y003810
X022733Y003810
X025233Y003810
X077216Y016570
X077216Y019070
X077216Y021570
X077216Y024070
T08
X071024Y033635
X065024Y031635
X059024Y033635
X059024Y045835
X071024Y045835
X046132Y033635
X040132Y031635
X034132Y033635
X034132Y045835
X046132Y045835
X020986Y033669
X014986Y031669
X008986Y033669
X008986Y045869
X020986Y045869
T09
X057418Y052966
X065038Y052966
X072658Y052966
X032526Y052966
X040146Y052966
X047766Y052966
X007380Y053000
X015000Y053000
X022620Y053000
T10
X096180Y023950
X083180Y023950
X096180Y013950
X083180Y013950
T11
X003937Y003937
X095758Y066040
X003937Y039624
X053340Y017780
M30
