G04 Layer: TopPasteMaskLayer*
G04 EasyEDA v6.5.40, 2026-01-05 16:26:39*
G04 42c84b081a0e4a169c7a89ad6c2159f2,1a2d1b1f031a47d2a25da1fd3f2af730,10*
G04 Gerber Generator version 0.2*
G04 Scale: 100 percent, Rotated: No, Reflected: No *
G04 Dimensions in millimeters *
G04 leading zeros omitted , absolute positions ,4 integer and 5 decimal *
%FSLAX45Y45*%
%MOMM*%

%ADD10R,1.0000X1.2000*%
%ADD11R,0.7000X1.2500*%

%LPD*%
G36*
X3897020Y371906D02*
G01*
X3891991Y366877D01*
X3891991Y286918D01*
X3897020Y281889D01*
X3976979Y281889D01*
X3982008Y286918D01*
X3982008Y366877D01*
X3976979Y371906D01*
X3954221Y371906D01*
X3954221Y334873D01*
X3921201Y334873D01*
X3921201Y371906D01*
G37*
G36*
X3897020Y530910D02*
G01*
X3891991Y525881D01*
X3891991Y445922D01*
X3897020Y440893D01*
X3919778Y440893D01*
X3919778Y477926D01*
X3952798Y477926D01*
X3952798Y440893D01*
X3976979Y440893D01*
X3982008Y445922D01*
X3982008Y525881D01*
X3976979Y530910D01*
G37*
G36*
X2881020Y371906D02*
G01*
X2875991Y366877D01*
X2875991Y286918D01*
X2881020Y281889D01*
X2960979Y281889D01*
X2966008Y286918D01*
X2966008Y366877D01*
X2960979Y371906D01*
X2938221Y371906D01*
X2938221Y334873D01*
X2905201Y334873D01*
X2905201Y371906D01*
G37*
G36*
X2881020Y530910D02*
G01*
X2875991Y525881D01*
X2875991Y445922D01*
X2881020Y440893D01*
X2903778Y440893D01*
X2903778Y477926D01*
X2936798Y477926D01*
X2936798Y440893D01*
X2960979Y440893D01*
X2966008Y445922D01*
X2966008Y525881D01*
X2960979Y530910D01*
G37*
G36*
X1611020Y371906D02*
G01*
X1605991Y366877D01*
X1605991Y286918D01*
X1611020Y281889D01*
X1690979Y281889D01*
X1696008Y286918D01*
X1696008Y366877D01*
X1690979Y371906D01*
X1668221Y371906D01*
X1668221Y334873D01*
X1635201Y334873D01*
X1635201Y371906D01*
G37*
G36*
X1611020Y530910D02*
G01*
X1605991Y525881D01*
X1605991Y445922D01*
X1611020Y440893D01*
X1633778Y440893D01*
X1633778Y477926D01*
X1666798Y477926D01*
X1666798Y440893D01*
X1690979Y440893D01*
X1696008Y445922D01*
X1696008Y525881D01*
X1690979Y530910D01*
G37*
G36*
X6669633Y2546807D02*
G01*
X6664604Y2541778D01*
X6664604Y2461818D01*
X6669633Y2456789D01*
X6692392Y2456789D01*
X6692392Y2493822D01*
X6725412Y2493822D01*
X6725412Y2456789D01*
X6749592Y2456789D01*
X6754622Y2461818D01*
X6754622Y2541778D01*
X6749592Y2546807D01*
G37*
G36*
X6669633Y2387803D02*
G01*
X6664604Y2382774D01*
X6664604Y2302814D01*
X6669633Y2297785D01*
X6749592Y2297785D01*
X6754622Y2302814D01*
X6754622Y2382774D01*
X6749592Y2387803D01*
X6726834Y2387803D01*
X6726834Y2350770D01*
X6693814Y2350770D01*
X6693814Y2387803D01*
G37*
G36*
X6669633Y1956003D02*
G01*
X6664604Y1950974D01*
X6664604Y1871014D01*
X6669633Y1865985D01*
X6749592Y1865985D01*
X6754622Y1871014D01*
X6754622Y1950974D01*
X6749592Y1956003D01*
X6726834Y1956003D01*
X6726834Y1918970D01*
X6693814Y1918970D01*
X6693814Y1956003D01*
G37*
G36*
X6669633Y2115007D02*
G01*
X6664604Y2109978D01*
X6664604Y2030018D01*
X6669633Y2024989D01*
X6692392Y2024989D01*
X6692392Y2062022D01*
X6725412Y2062022D01*
X6725412Y2024989D01*
X6749592Y2024989D01*
X6754622Y2030018D01*
X6754622Y2109978D01*
X6749592Y2115007D01*
G37*
G36*
X4229201Y1917903D02*
G01*
X4224223Y1912874D01*
X4224223Y1832914D01*
X4229201Y1827885D01*
X4309211Y1827885D01*
X4314190Y1832914D01*
X4314190Y1912874D01*
X4309211Y1917903D01*
X4286402Y1917903D01*
X4286402Y1880870D01*
X4253433Y1880870D01*
X4253433Y1917903D01*
G37*
G36*
X4229201Y2076907D02*
G01*
X4224223Y2071878D01*
X4224223Y1991918D01*
X4229201Y1986889D01*
X4252010Y1986889D01*
X4252010Y2023922D01*
X4285030Y2023922D01*
X4285030Y1986889D01*
X4309211Y1986889D01*
X4314190Y1991918D01*
X4314190Y2071878D01*
X4309211Y2076907D01*
G37*
G36*
X4229201Y2534107D02*
G01*
X4224223Y2529078D01*
X4224223Y2449118D01*
X4229201Y2444089D01*
X4252010Y2444089D01*
X4252010Y2481122D01*
X4285030Y2481122D01*
X4285030Y2444089D01*
X4309211Y2444089D01*
X4314190Y2449118D01*
X4314190Y2529078D01*
X4309211Y2534107D01*
G37*
G36*
X4229201Y2375103D02*
G01*
X4224223Y2370074D01*
X4224223Y2290114D01*
X4229201Y2285085D01*
X4309211Y2285085D01*
X4314190Y2290114D01*
X4314190Y2370074D01*
X4309211Y2375103D01*
X4286402Y2375103D01*
X4286402Y2338070D01*
X4253433Y2338070D01*
X4253433Y2375103D01*
G37*
G36*
X1699920Y2550210D02*
G01*
X1694891Y2545181D01*
X1694891Y2465222D01*
X1699920Y2460193D01*
X1722678Y2460193D01*
X1722678Y2497226D01*
X1755698Y2497226D01*
X1755698Y2460193D01*
X1779879Y2460193D01*
X1784908Y2465222D01*
X1784908Y2545181D01*
X1779879Y2550210D01*
G37*
G36*
X1699920Y2391206D02*
G01*
X1694891Y2386177D01*
X1694891Y2306218D01*
X1699920Y2301189D01*
X1779879Y2301189D01*
X1784908Y2306218D01*
X1784908Y2386177D01*
X1779879Y2391206D01*
X1757121Y2391206D01*
X1757121Y2354173D01*
X1724101Y2354173D01*
X1724101Y2391206D01*
G37*
G36*
X1699920Y1934006D02*
G01*
X1694891Y1928977D01*
X1694891Y1849018D01*
X1699920Y1843989D01*
X1779879Y1843989D01*
X1784908Y1849018D01*
X1784908Y1928977D01*
X1779879Y1934006D01*
X1757121Y1934006D01*
X1757121Y1896973D01*
X1724101Y1896973D01*
X1724101Y1934006D01*
G37*
G36*
X1699920Y2093010D02*
G01*
X1694891Y2087981D01*
X1694891Y2008022D01*
X1699920Y2002993D01*
X1722678Y2002993D01*
X1722678Y2040026D01*
X1755698Y2040026D01*
X1755698Y2002993D01*
X1779879Y2002993D01*
X1784908Y2008022D01*
X1784908Y2087981D01*
X1779879Y2093010D01*
G37*
D10*
G01*
X6811111Y2714396D03*
G01*
X6481114Y2714396D03*
G01*
X4370704Y2714396D03*
G01*
X4040708Y2714396D03*
G01*
X1841398Y2717800D03*
G01*
X1511401Y2717800D03*
D11*
G01*
X6976313Y2547696D03*
G01*
X7071309Y2347696D03*
G01*
X6881317Y2347696D03*
G01*
X4535906Y2534996D03*
G01*
X4630902Y2334996D03*
G01*
X4440910Y2334996D03*
G01*
X2006600Y2551099D03*
G01*
X2101595Y2351100D03*
G01*
X1911604Y2351100D03*
M02*
