G04 Layer: BottomLayer*
G04 EasyEDA v6.5.40, 2026-01-05 16:26:39*
G04 42c84b081a0e4a169c7a89ad6c2159f2,1a2d1b1f031a47d2a25da1fd3f2af730,10*
G04 Gerber Generator version 0.2*
G04 Scale: 100 percent, Rotated: No, Reflected: No *
G04 Dimensions in millimeters *
G04 leading zeros omitted , absolute positions ,4 integer and 5 decimal *
%FSLAX45Y45*%
%MOMM*%

%ADD10C,1.0000*%
%ADD11C,3.0000*%
%ADD12C,1.6500*%
%ADD13C,1.7000*%
%ADD14R,1.6000X1.7500*%
%ADD15C,1.7500*%
%ADD16C,2.8000*%
%ADD17R,2.8000X2.8000*%
%ADD18R,1.6000X1.6000*%
%ADD19C,1.6000*%
%ADD20C,1.5240*%
%ADD21C,1.8000*%
%ADD22R,1.8000X1.8000*%
%ADD23C,1.9000*%
%ADD24O,4.499991X2.1999956000000003*%
%ADD25O,2.1999956000000003X4.499991*%
%ADD26C,5.0000*%
%ADD27C,0.0144*%

%LPD*%
G36*
X7538821Y875182D02*
G01*
X7534960Y875944D01*
X7531658Y878179D01*
X7469479Y940358D01*
X7467244Y943660D01*
X7466482Y947521D01*
X7466482Y2011578D01*
X7467244Y2015439D01*
X7469479Y2018741D01*
X7504226Y2053488D01*
X7507528Y2055723D01*
X7511389Y2056485D01*
X7623403Y2056485D01*
X7627162Y2055774D01*
X7630363Y2053691D01*
X7632903Y2051304D01*
X7645755Y2041702D01*
X7647381Y2040788D01*
X7650530Y2037994D01*
X7652207Y2034133D01*
X7652207Y2029917D01*
X7650530Y2026056D01*
X7647381Y2023211D01*
X7645755Y2022297D01*
X7632903Y2012696D01*
X7621219Y2001672D01*
X7610906Y1989378D01*
X7602118Y1976018D01*
X7594904Y1961642D01*
X7593228Y1957120D01*
X7671511Y1957120D01*
X7671511Y2014575D01*
X7672171Y2018284D01*
X7674203Y2021433D01*
X7677200Y2023719D01*
X7680858Y2024684D01*
X7684566Y2024278D01*
X7689799Y2022754D01*
X7705598Y2019960D01*
X7721600Y2019046D01*
X7737602Y2019960D01*
X7753400Y2022754D01*
X7758633Y2024278D01*
X7762341Y2024684D01*
X7765999Y2023719D01*
X7768996Y2021433D01*
X7771028Y2018284D01*
X7771688Y2014575D01*
X7771688Y1957120D01*
X7852257Y1957120D01*
X7856118Y1956307D01*
X7859420Y1954123D01*
X7861655Y1950821D01*
X7862417Y1946960D01*
X7862417Y1867052D01*
X7861655Y1863191D01*
X7859420Y1859889D01*
X7856118Y1857654D01*
X7852257Y1856892D01*
X7771688Y1856892D01*
X7771688Y1805127D01*
X7770926Y1801266D01*
X7768742Y1797964D01*
X7765440Y1795780D01*
X7761528Y1794967D01*
X7681671Y1794967D01*
X7677759Y1795780D01*
X7674457Y1797964D01*
X7672273Y1801266D01*
X7671511Y1805127D01*
X7671511Y1856892D01*
X7593228Y1856892D01*
X7594904Y1852371D01*
X7602118Y1837994D01*
X7610906Y1824634D01*
X7621219Y1812340D01*
X7625842Y1807972D01*
X7628128Y1804771D01*
X7629042Y1800910D01*
X7628432Y1797050D01*
X7626350Y1793697D01*
X7623200Y1791360D01*
X7616393Y1788210D01*
X7609179Y1783130D01*
X7602931Y1776933D01*
X7597902Y1769719D01*
X7594193Y1761743D01*
X7591907Y1753260D01*
X7591094Y1744065D01*
X7591094Y1569923D01*
X7591907Y1560728D01*
X7594193Y1552244D01*
X7597902Y1544269D01*
X7602931Y1537055D01*
X7609179Y1530858D01*
X7616393Y1525778D01*
X7624318Y1522069D01*
X7632852Y1519783D01*
X7642047Y1519021D01*
X7801152Y1519021D01*
X7810347Y1519783D01*
X7818881Y1522069D01*
X7826806Y1525778D01*
X7834020Y1530858D01*
X7840268Y1537055D01*
X7843926Y1542288D01*
X7847025Y1545183D01*
X7851089Y1546555D01*
X7855305Y1546148D01*
X7859014Y1544066D01*
X7861503Y1540611D01*
X7862417Y1536496D01*
X7862417Y1156055D01*
X7863281Y1142593D01*
X7865872Y1129690D01*
X7870088Y1117244D01*
X7875879Y1105458D01*
X7883194Y1094536D01*
X7892084Y1084427D01*
X8083956Y892556D01*
X8086140Y889253D01*
X8086902Y885342D01*
X8086140Y881481D01*
X8083956Y878179D01*
X8080654Y875944D01*
X8076742Y875182D01*
G37*

%LPD*%
G36*
X4694478Y419658D02*
G01*
X4690262Y420573D01*
X4686808Y423113D01*
X4684623Y427329D01*
X4678375Y441807D01*
X4670501Y455422D01*
X4661560Y467461D01*
X4659731Y471525D01*
X4659833Y475996D01*
X4661814Y480009D01*
X4665319Y482752D01*
X4669688Y483717D01*
X5041544Y483717D01*
X5055006Y484581D01*
X5067909Y487172D01*
X5080355Y491388D01*
X5092141Y497179D01*
X5103063Y504494D01*
X5113172Y513384D01*
X5207558Y607720D01*
X5210860Y609955D01*
X5214721Y610717D01*
X5394248Y610717D01*
X5398617Y609701D01*
X5402173Y606907D01*
X5404154Y602843D01*
X5404154Y598373D01*
X5402224Y594258D01*
X5399684Y591007D01*
X5391759Y577900D01*
X5385358Y563473D01*
X5459476Y563473D01*
X5459476Y600557D01*
X5460238Y604418D01*
X5462473Y607720D01*
X5465724Y609955D01*
X5469636Y610717D01*
X5538216Y610717D01*
X5542127Y609955D01*
X5545378Y607720D01*
X5547614Y604418D01*
X5548376Y600557D01*
X5548376Y563473D01*
X5571337Y563473D01*
X5575046Y562813D01*
X5578246Y560781D01*
X5580532Y557733D01*
X5581497Y554075D01*
X5578094Y534568D01*
X5577128Y519277D01*
X5578094Y504037D01*
X5581650Y484022D01*
X5580684Y480364D01*
X5578398Y477316D01*
X5575198Y475284D01*
X5571490Y474573D01*
X5548376Y474573D01*
X5548376Y451561D01*
X5547664Y447852D01*
X5545632Y444652D01*
X5542584Y442366D01*
X5538927Y441401D01*
X5519216Y444906D01*
X5503926Y445820D01*
X5488635Y444906D01*
X5468924Y441401D01*
X5465267Y442366D01*
X5462219Y444652D01*
X5460187Y447852D01*
X5459476Y451561D01*
X5459476Y474573D01*
X5385358Y474573D01*
X5391759Y460197D01*
X5399684Y447090D01*
X5408320Y436067D01*
X5410250Y432003D01*
X5410200Y427482D01*
X5408218Y423468D01*
X5404713Y420624D01*
X5400294Y419658D01*
G37*

%LPD*%
G36*
X3716121Y227482D02*
G01*
X3712260Y228244D01*
X3708958Y230479D01*
X3651453Y287934D01*
X3649421Y290880D01*
X3648506Y294386D01*
X3648913Y297992D01*
X3650487Y301193D01*
X3654501Y306578D01*
X3662375Y320192D01*
X3668623Y334670D01*
X3673144Y349758D01*
X3675887Y365252D01*
X3676802Y381000D01*
X3675887Y396748D01*
X3673144Y412242D01*
X3668623Y427329D01*
X3662375Y441807D01*
X3654501Y455422D01*
X3645560Y467461D01*
X3643731Y471525D01*
X3643833Y475996D01*
X3645814Y480009D01*
X3649319Y482752D01*
X3653688Y483717D01*
X4194911Y483717D01*
X4199280Y482752D01*
X4202785Y480009D01*
X4204766Y475996D01*
X4204868Y471525D01*
X4203090Y467461D01*
X4194098Y455422D01*
X4186224Y441807D01*
X4181094Y429869D01*
X4258462Y429869D01*
X4258462Y473557D01*
X4259224Y477418D01*
X4261408Y480720D01*
X4264710Y482955D01*
X4268622Y483717D01*
X4345990Y483717D01*
X4349902Y482955D01*
X4353153Y480720D01*
X4355388Y477418D01*
X4356150Y473557D01*
X4356150Y429869D01*
X4417110Y429869D01*
X4420819Y429158D01*
X4423968Y427177D01*
X4426254Y424129D01*
X4427220Y420522D01*
X4426813Y416763D01*
X4425492Y412242D01*
X4422749Y396748D01*
X4421835Y381000D01*
X4422749Y365252D01*
X4425492Y349758D01*
X4426813Y345236D01*
X4427220Y341477D01*
X4426254Y337870D01*
X4423968Y334822D01*
X4420819Y332841D01*
X4417110Y332130D01*
X4356150Y332130D01*
X4356150Y254863D01*
X4360976Y256590D01*
X4375048Y263652D01*
X4388205Y272338D01*
X4400296Y282448D01*
X4411065Y293928D01*
X4420514Y306578D01*
X4423511Y311759D01*
X4426356Y314909D01*
X4430217Y316636D01*
X4434433Y316636D01*
X4438294Y314909D01*
X4441088Y311759D01*
X4444136Y306578D01*
X4453534Y293928D01*
X4464354Y282448D01*
X4476394Y272338D01*
X4489551Y263652D01*
X4503623Y256590D01*
X4518456Y251206D01*
X4533950Y247548D01*
X4537760Y245770D01*
X4540504Y242570D01*
X4541723Y238607D01*
X4541215Y234442D01*
X4539132Y230784D01*
X4535728Y228346D01*
X4531614Y227482D01*
G37*

%LPC*%
G36*
X4258462Y254863D02*
G01*
X4258462Y332130D01*
X4181094Y332130D01*
X4186224Y320192D01*
X4194098Y306578D01*
X4203496Y293928D01*
X4214317Y282448D01*
X4226407Y272338D01*
X4239564Y263652D01*
X4253636Y256590D01*
G37*

%LPD*%
G36*
X5690870Y50495D02*
G01*
X5686958Y51257D01*
X5683656Y53492D01*
X5681472Y56743D01*
X5680710Y60655D01*
X5681472Y64566D01*
X5683656Y67818D01*
X5774639Y158851D01*
X5783529Y168960D01*
X5790844Y179882D01*
X5796635Y191668D01*
X5800852Y204114D01*
X5803595Y217932D01*
X5805170Y221742D01*
X5808167Y224586D01*
X5812028Y226060D01*
X5816142Y225806D01*
X5819800Y223977D01*
X5831738Y214629D01*
X5844844Y206705D01*
X5858814Y200456D01*
X5873394Y195884D01*
X5888431Y193141D01*
X5903722Y192227D01*
X5919012Y193141D01*
X5934049Y195884D01*
X5948629Y200456D01*
X5962599Y206705D01*
X5975705Y214629D01*
X5987745Y224078D01*
X5996736Y233070D01*
X6000038Y235305D01*
X6003950Y236067D01*
X6007811Y235305D01*
X6011113Y233070D01*
X6020104Y224078D01*
X6032144Y214629D01*
X6045250Y206705D01*
X6059678Y200304D01*
X6059678Y274421D01*
X6036106Y274421D01*
X6032398Y275132D01*
X6029198Y277164D01*
X6026962Y280212D01*
X6025997Y283870D01*
X6029452Y303631D01*
X6030417Y318871D01*
X6029452Y334162D01*
X6025997Y353923D01*
X6026962Y357581D01*
X6029198Y360629D01*
X6032398Y362661D01*
X6036106Y363321D01*
X6059678Y363321D01*
X6059678Y386588D01*
X6060389Y390296D01*
X6062421Y393496D01*
X6065469Y395732D01*
X6069126Y396697D01*
X6088583Y393293D01*
X6103874Y392379D01*
X6119164Y393293D01*
X6139129Y396849D01*
X6142786Y395884D01*
X6145834Y393649D01*
X6147866Y390448D01*
X6148578Y386740D01*
X6148578Y363321D01*
X6171946Y363321D01*
X6175654Y362661D01*
X6178854Y360629D01*
X6181140Y357581D01*
X6182106Y353923D01*
X6178550Y333908D01*
X6177584Y318617D01*
X6178550Y303377D01*
X6181953Y283870D01*
X6180988Y280212D01*
X6178702Y277164D01*
X6175502Y275132D01*
X6171793Y274421D01*
X6148578Y274421D01*
X6148578Y200304D01*
X6163005Y206705D01*
X6176111Y214629D01*
X6188151Y224078D01*
X6196888Y232816D01*
X6200190Y235051D01*
X6204102Y235813D01*
X6207963Y235051D01*
X6211265Y232816D01*
X6220256Y223824D01*
X6232296Y214375D01*
X6245402Y206451D01*
X6259372Y200202D01*
X6273952Y195630D01*
X6288989Y192887D01*
X6304280Y191973D01*
X6319570Y192887D01*
X6334607Y195630D01*
X6349187Y200202D01*
X6363157Y206451D01*
X6376263Y214375D01*
X6388303Y223824D01*
X6397193Y232714D01*
X6400444Y234899D01*
X6404356Y235712D01*
X6408267Y234899D01*
X6411518Y232714D01*
X6420154Y224078D01*
X6432194Y214629D01*
X6445300Y206705D01*
X6459728Y200304D01*
X6459728Y274421D01*
X6436766Y274421D01*
X6433058Y275132D01*
X6429857Y277164D01*
X6427571Y280212D01*
X6426606Y283870D01*
X6430010Y303377D01*
X6430975Y318617D01*
X6430010Y333908D01*
X6426454Y353923D01*
X6427419Y357581D01*
X6429705Y360629D01*
X6432905Y362661D01*
X6436614Y363321D01*
X6459728Y363321D01*
X6459728Y386638D01*
X6460439Y390347D01*
X6462471Y393547D01*
X6465519Y395833D01*
X6469176Y396798D01*
X6488887Y393293D01*
X6504178Y392379D01*
X6519468Y393293D01*
X6539179Y396798D01*
X6542836Y395833D01*
X6545884Y393547D01*
X6547916Y390347D01*
X6548628Y386638D01*
X6548628Y363321D01*
X6571437Y363321D01*
X6575145Y362661D01*
X6578346Y360629D01*
X6580581Y357581D01*
X6581546Y353923D01*
X6578092Y334162D01*
X6577126Y318871D01*
X6578092Y303631D01*
X6581546Y283870D01*
X6580581Y280212D01*
X6578346Y277164D01*
X6575145Y275132D01*
X6571437Y274421D01*
X6548628Y274421D01*
X6548628Y200304D01*
X6563055Y206705D01*
X6576161Y214629D01*
X6588201Y224078D01*
X6596837Y232714D01*
X6600088Y234899D01*
X6604000Y235712D01*
X6607911Y234899D01*
X6611162Y232714D01*
X6619798Y224078D01*
X6631838Y214629D01*
X6644944Y206705D01*
X6658914Y200456D01*
X6673494Y195884D01*
X6688531Y193141D01*
X6703822Y192227D01*
X6719112Y193141D01*
X6734149Y195884D01*
X6748729Y200456D01*
X6762699Y206705D01*
X6775805Y214629D01*
X6787845Y224078D01*
X6796735Y232968D01*
X6799986Y235153D01*
X6803898Y235966D01*
X6807809Y235153D01*
X6811060Y232968D01*
X6819950Y224078D01*
X6831990Y214629D01*
X6845096Y206705D01*
X6859066Y200456D01*
X6873646Y195884D01*
X6888683Y193141D01*
X6903974Y192227D01*
X6919264Y193141D01*
X6934301Y195884D01*
X6948881Y200456D01*
X6962851Y206705D01*
X6975957Y214629D01*
X6987997Y224078D01*
X6996887Y232968D01*
X7000138Y235153D01*
X7004050Y235966D01*
X7007961Y235153D01*
X7011212Y232968D01*
X7020102Y224078D01*
X7032142Y214629D01*
X7045248Y206705D01*
X7059218Y200456D01*
X7073798Y195884D01*
X7088835Y193141D01*
X7104125Y192227D01*
X7119416Y193141D01*
X7134453Y195884D01*
X7149033Y200456D01*
X7163003Y206705D01*
X7176109Y214629D01*
X7188149Y224078D01*
X7197039Y232968D01*
X7200290Y235153D01*
X7204202Y235966D01*
X7208113Y235153D01*
X7211364Y232968D01*
X7220254Y224078D01*
X7232294Y214629D01*
X7245400Y206705D01*
X7259370Y200456D01*
X7273950Y195884D01*
X7288987Y193141D01*
X7304278Y192227D01*
X7319568Y193141D01*
X7334605Y195884D01*
X7349185Y200456D01*
X7363155Y206705D01*
X7376261Y214629D01*
X7388301Y224078D01*
X7397546Y233324D01*
X7400848Y235559D01*
X7404760Y236321D01*
X7408621Y235559D01*
X7411923Y233324D01*
X7420406Y224840D01*
X7432446Y215392D01*
X7445552Y207467D01*
X7459980Y201066D01*
X7459980Y275183D01*
X7436916Y275183D01*
X7433208Y275894D01*
X7430008Y277926D01*
X7427772Y280974D01*
X7426756Y284632D01*
X7427264Y288594D01*
X7430008Y303631D01*
X7430973Y318871D01*
X7430008Y334162D01*
X7426299Y354685D01*
X7427264Y358343D01*
X7429500Y361391D01*
X7432700Y363423D01*
X7436459Y364083D01*
X7459980Y364083D01*
X7459980Y387248D01*
X7460691Y390956D01*
X7462723Y394157D01*
X7465771Y396392D01*
X7469428Y397357D01*
X7489393Y393801D01*
X7504684Y392887D01*
X7519974Y393801D01*
X7539431Y397205D01*
X7543088Y396240D01*
X7546136Y394004D01*
X7548168Y390804D01*
X7548880Y387096D01*
X7548880Y364083D01*
X7572197Y364083D01*
X7575905Y363423D01*
X7579106Y361391D01*
X7581341Y358343D01*
X7582306Y354685D01*
X7578852Y334924D01*
X7577886Y319633D01*
X7578852Y304393D01*
X7582306Y284632D01*
X7581341Y280974D01*
X7579106Y277926D01*
X7575905Y275894D01*
X7572197Y275183D01*
X7548880Y275183D01*
X7548880Y201066D01*
X7563307Y207467D01*
X7576413Y215392D01*
X7588453Y224840D01*
X7597343Y233730D01*
X7600594Y235915D01*
X7604506Y236728D01*
X7608417Y235915D01*
X7611668Y233730D01*
X7620558Y224840D01*
X7632598Y215392D01*
X7645704Y207467D01*
X7659674Y201218D01*
X7674254Y196646D01*
X7689291Y193903D01*
X7704581Y192989D01*
X7719872Y193903D01*
X7734909Y196646D01*
X7749489Y201218D01*
X7763459Y207467D01*
X7776565Y215392D01*
X7788605Y224840D01*
X7797241Y233476D01*
X7800492Y235661D01*
X7804403Y236474D01*
X7808315Y235661D01*
X7811566Y233476D01*
X7820202Y224840D01*
X7832242Y215392D01*
X7845348Y207467D01*
X7859318Y201218D01*
X7873898Y196646D01*
X7888935Y193903D01*
X7904225Y192989D01*
X7919516Y193903D01*
X7934553Y196646D01*
X7949133Y201218D01*
X7963103Y207467D01*
X7976209Y215392D01*
X7988249Y224840D01*
X7997139Y233730D01*
X8000390Y235915D01*
X8004302Y236728D01*
X8008213Y235915D01*
X8011464Y233730D01*
X8020354Y224840D01*
X8032394Y215392D01*
X8045500Y207467D01*
X8059928Y201066D01*
X8059928Y275183D01*
X8036610Y275183D01*
X8032902Y275894D01*
X8029702Y277926D01*
X8027466Y280974D01*
X8026501Y284632D01*
X8029956Y304393D01*
X8030921Y319633D01*
X8029956Y334924D01*
X8026501Y354685D01*
X8027466Y358343D01*
X8029702Y361391D01*
X8032902Y363423D01*
X8036610Y364083D01*
X8059928Y364083D01*
X8059928Y387146D01*
X8060639Y390855D01*
X8062671Y394055D01*
X8065719Y396341D01*
X8069376Y397306D01*
X8089087Y393801D01*
X8104378Y392887D01*
X8119668Y393801D01*
X8139379Y397306D01*
X8143036Y396341D01*
X8146084Y394055D01*
X8148116Y390855D01*
X8148828Y387146D01*
X8148828Y364083D01*
X8171891Y364083D01*
X8175599Y363423D01*
X8178800Y361391D01*
X8181035Y358343D01*
X8182000Y354685D01*
X8178546Y334924D01*
X8177580Y319633D01*
X8178546Y304393D01*
X8182000Y284632D01*
X8181035Y280974D01*
X8178800Y277926D01*
X8175599Y275894D01*
X8171891Y275183D01*
X8148828Y275183D01*
X8148828Y201066D01*
X8163255Y207467D01*
X8176361Y215392D01*
X8188401Y224840D01*
X8197138Y233578D01*
X8200440Y235813D01*
X8204352Y236575D01*
X8208213Y235813D01*
X8211515Y233578D01*
X8220252Y224840D01*
X8232292Y215392D01*
X8245398Y207467D01*
X8259368Y201218D01*
X8273948Y196646D01*
X8288985Y193903D01*
X8304275Y192989D01*
X8319566Y193903D01*
X8334603Y196646D01*
X8349183Y201218D01*
X8363153Y207467D01*
X8376259Y215392D01*
X8388299Y224840D01*
X8397036Y233578D01*
X8400338Y235813D01*
X8404250Y236575D01*
X8408111Y235813D01*
X8411413Y233578D01*
X8420404Y224586D01*
X8432444Y215138D01*
X8445550Y207213D01*
X8459520Y200964D01*
X8474100Y196392D01*
X8489137Y193649D01*
X8504428Y192735D01*
X8519718Y193649D01*
X8534755Y196392D01*
X8549335Y200964D01*
X8563305Y207213D01*
X8576411Y215138D01*
X8588451Y224586D01*
X8597341Y233476D01*
X8600592Y235661D01*
X8604504Y236474D01*
X8608415Y235661D01*
X8611666Y233476D01*
X8620302Y224840D01*
X8632342Y215392D01*
X8645448Y207467D01*
X8659418Y201218D01*
X8673998Y196646D01*
X8689035Y193903D01*
X8704326Y192989D01*
X8719616Y193903D01*
X8734653Y196646D01*
X8749233Y201218D01*
X8763203Y207467D01*
X8776309Y215392D01*
X8788349Y224840D01*
X8797086Y233578D01*
X8800388Y235813D01*
X8804300Y236575D01*
X8808161Y235813D01*
X8811463Y233578D01*
X8820200Y224840D01*
X8832240Y215392D01*
X8845346Y207467D01*
X8859774Y201066D01*
X8859774Y275183D01*
X8836710Y275183D01*
X8833002Y275894D01*
X8829802Y277926D01*
X8827566Y280974D01*
X8826601Y284632D01*
X8830056Y304393D01*
X8831021Y319633D01*
X8830056Y334924D01*
X8826601Y354685D01*
X8827566Y358343D01*
X8829802Y361391D01*
X8833002Y363423D01*
X8836710Y364083D01*
X8859774Y364083D01*
X8859774Y387146D01*
X8860485Y390855D01*
X8862517Y394055D01*
X8865565Y396341D01*
X8869222Y397306D01*
X8888933Y393801D01*
X8904224Y392887D01*
X8919514Y393801D01*
X8939225Y397306D01*
X8942882Y396341D01*
X8945930Y394055D01*
X8947962Y390855D01*
X8948674Y387146D01*
X8948674Y364083D01*
X8971991Y364083D01*
X8975699Y363423D01*
X8978900Y361391D01*
X8981135Y358343D01*
X8982100Y354685D01*
X8978646Y334924D01*
X8977680Y319633D01*
X8978646Y304393D01*
X8982100Y284632D01*
X8981135Y280974D01*
X8978900Y277926D01*
X8975699Y275894D01*
X8971991Y275183D01*
X8948674Y275183D01*
X8948674Y201066D01*
X8963101Y207467D01*
X8976207Y215392D01*
X8988247Y224840D01*
X8997137Y233730D01*
X9000388Y235915D01*
X9004300Y236728D01*
X9008211Y235915D01*
X9011462Y233730D01*
X9020352Y224840D01*
X9032392Y215392D01*
X9045498Y207467D01*
X9059468Y201218D01*
X9074048Y196646D01*
X9089085Y193903D01*
X9104376Y192989D01*
X9119666Y193903D01*
X9134703Y196646D01*
X9149283Y201218D01*
X9163253Y207467D01*
X9176359Y215392D01*
X9188399Y224840D01*
X9197136Y233578D01*
X9200438Y235813D01*
X9204350Y236575D01*
X9208211Y235813D01*
X9211513Y233578D01*
X9220250Y224840D01*
X9232290Y215392D01*
X9245396Y207467D01*
X9259366Y201218D01*
X9273946Y196646D01*
X9288983Y193903D01*
X9304274Y192989D01*
X9319564Y193903D01*
X9334601Y196646D01*
X9349181Y201218D01*
X9363151Y207467D01*
X9376257Y215392D01*
X9388297Y224840D01*
X9399117Y235661D01*
X9408515Y247700D01*
X9416440Y260807D01*
X9422739Y274726D01*
X9427260Y289356D01*
X9430004Y304393D01*
X9430969Y319633D01*
X9430004Y334924D01*
X9427260Y349961D01*
X9422739Y364591D01*
X9416440Y378510D01*
X9408515Y391617D01*
X9399117Y403656D01*
X9390329Y412445D01*
X9388144Y415696D01*
X9387332Y419608D01*
X9388144Y423519D01*
X9390329Y426770D01*
X9399117Y435559D01*
X9408515Y447598D01*
X9416440Y460705D01*
X9422739Y474624D01*
X9427260Y489254D01*
X9430004Y504291D01*
X9430969Y519531D01*
X9430004Y534822D01*
X9427260Y549859D01*
X9422739Y564489D01*
X9416440Y578408D01*
X9408515Y591515D01*
X9399117Y603554D01*
X9388297Y614375D01*
X9376257Y623824D01*
X9363151Y631748D01*
X9349181Y637997D01*
X9334601Y642569D01*
X9319564Y645312D01*
X9304274Y646226D01*
X9288983Y645312D01*
X9273946Y642569D01*
X9259366Y637997D01*
X9245396Y631748D01*
X9232290Y623824D01*
X9221317Y615188D01*
X9217202Y613257D01*
X9212732Y613308D01*
X9208668Y615238D01*
X9205874Y618794D01*
X9204858Y623163D01*
X9204858Y699668D01*
X9203994Y713130D01*
X9201404Y726033D01*
X9197187Y738479D01*
X9191396Y750265D01*
X9184081Y761187D01*
X9175191Y771296D01*
X8935872Y1010615D01*
X8925763Y1019505D01*
X8914841Y1026820D01*
X8903055Y1032611D01*
X8890609Y1036828D01*
X8877706Y1039418D01*
X8864244Y1040282D01*
X8224621Y1040282D01*
X8220760Y1041044D01*
X8217458Y1043279D01*
X8066379Y1194358D01*
X8064144Y1197660D01*
X8063382Y1201521D01*
X8063382Y2272944D01*
X8062518Y2286406D01*
X8059928Y2299309D01*
X8055711Y2311755D01*
X8049920Y2323541D01*
X8042605Y2334463D01*
X8033715Y2344572D01*
X7900568Y2477719D01*
X7890459Y2486609D01*
X7879537Y2493924D01*
X7867751Y2499715D01*
X7855305Y2503932D01*
X7842402Y2506522D01*
X7828940Y2507386D01*
X7819948Y2507386D01*
X7816189Y2508097D01*
X7812989Y2510180D01*
X7810296Y2512720D01*
X7797444Y2522270D01*
X7783525Y2530297D01*
X7768793Y2536647D01*
X7753400Y2541270D01*
X7737602Y2544064D01*
X7721600Y2544978D01*
X7705598Y2544064D01*
X7689799Y2541270D01*
X7688376Y2540863D01*
X7683957Y2540558D01*
X7679791Y2542133D01*
X7676743Y2545384D01*
X7675372Y2549601D01*
X7675930Y2554020D01*
X7678267Y2557780D01*
X8021015Y2900527D01*
X8029905Y2910636D01*
X8037220Y2921558D01*
X8043011Y2933344D01*
X8047228Y2945790D01*
X8049818Y2958693D01*
X8050682Y2972155D01*
X8050682Y5199278D01*
X8051444Y5203139D01*
X8053679Y5206441D01*
X8090458Y5243220D01*
X8093760Y5245455D01*
X8097621Y5246217D01*
X8221116Y5246217D01*
X8224367Y5245658D01*
X8227314Y5244134D01*
X8234680Y5238496D01*
X8247989Y5230622D01*
X8262162Y5224373D01*
X8276945Y5219852D01*
X8292134Y5217160D01*
X8307578Y5216245D01*
X8323021Y5217160D01*
X8338210Y5219852D01*
X8352993Y5224373D01*
X8367166Y5230622D01*
X8380475Y5238496D01*
X8387842Y5244134D01*
X8390788Y5245658D01*
X8394039Y5246217D01*
X8475116Y5246217D01*
X8478367Y5245658D01*
X8481314Y5244134D01*
X8488680Y5238496D01*
X8501989Y5230622D01*
X8516162Y5224373D01*
X8530945Y5219852D01*
X8546134Y5217160D01*
X8561578Y5216245D01*
X8577021Y5217160D01*
X8592210Y5219852D01*
X8606993Y5224373D01*
X8621166Y5230622D01*
X8634476Y5238496D01*
X8646769Y5247843D01*
X8657844Y5258612D01*
X8667597Y5270652D01*
X8675827Y5283708D01*
X8682482Y5297678D01*
X8687460Y5312308D01*
X8690610Y5327446D01*
X8690914Y5330545D01*
X8691829Y5333949D01*
X8693861Y5336844D01*
X8794292Y5437276D01*
X8803182Y5447436D01*
X8810498Y5458358D01*
X8816289Y5470144D01*
X8820505Y5482590D01*
X8823096Y5495493D01*
X8823960Y5508904D01*
X8823960Y5696762D01*
X8824722Y5700623D01*
X8826957Y5703925D01*
X8830259Y5706110D01*
X8834120Y5706922D01*
X8838184Y5706922D01*
X8855811Y5707837D01*
X8872982Y5710682D01*
X8889695Y5715304D01*
X8905849Y5721756D01*
X8921191Y5729884D01*
X8935618Y5739638D01*
X8948826Y5750915D01*
X8960764Y5763514D01*
X8971280Y5777331D01*
X8980271Y5792216D01*
X8987536Y5808014D01*
X8993124Y5824474D01*
X8996832Y5841441D01*
X8998712Y5858713D01*
X8998712Y5876086D01*
X8996832Y5893358D01*
X8993124Y5910326D01*
X8987536Y5926785D01*
X8980271Y5942584D01*
X8971280Y5957468D01*
X8960764Y5971286D01*
X8948826Y5983884D01*
X8935618Y5995162D01*
X8921191Y6004915D01*
X8905849Y6013043D01*
X8889695Y6019495D01*
X8872982Y6024118D01*
X8855811Y6026962D01*
X8838184Y6027877D01*
X8608771Y6027877D01*
X8591143Y6026962D01*
X8573973Y6024118D01*
X8557260Y6019495D01*
X8541105Y6013043D01*
X8525764Y6004915D01*
X8511336Y5995162D01*
X8498128Y5983884D01*
X8486190Y5971286D01*
X8475675Y5957468D01*
X8466683Y5942584D01*
X8459419Y5926785D01*
X8453831Y5910326D01*
X8450122Y5893358D01*
X8448243Y5876086D01*
X8448243Y5858713D01*
X8450122Y5841441D01*
X8453831Y5824474D01*
X8459419Y5808014D01*
X8466683Y5792216D01*
X8475675Y5777331D01*
X8486190Y5763514D01*
X8498128Y5750915D01*
X8511336Y5739638D01*
X8525764Y5729884D01*
X8541105Y5721756D01*
X8557260Y5715304D01*
X8573973Y5710682D01*
X8591143Y5707837D01*
X8608771Y5706922D01*
X8612835Y5706922D01*
X8616696Y5706110D01*
X8619998Y5703925D01*
X8622182Y5700623D01*
X8622995Y5696762D01*
X8622995Y5554421D01*
X8622182Y5550560D01*
X8619998Y5547258D01*
X8551621Y5478881D01*
X8548878Y5476900D01*
X8545677Y5475986D01*
X8538514Y5475122D01*
X8523478Y5471464D01*
X8509000Y5466130D01*
X8495233Y5459069D01*
X8478418Y5447842D01*
X8474913Y5447182D01*
X8394242Y5447182D01*
X8390737Y5447842D01*
X8373922Y5459069D01*
X8360156Y5466130D01*
X8345678Y5471464D01*
X8330641Y5475122D01*
X8315299Y5476951D01*
X8299856Y5476951D01*
X8284514Y5475122D01*
X8269478Y5471464D01*
X8255000Y5466130D01*
X8241233Y5459069D01*
X8224418Y5447842D01*
X8220913Y5447182D01*
X8052155Y5447182D01*
X8038693Y5446318D01*
X8025790Y5443728D01*
X8013344Y5439511D01*
X8001558Y5433720D01*
X7990636Y5426405D01*
X7980527Y5417515D01*
X7879384Y5316372D01*
X7870494Y5306263D01*
X7863179Y5295341D01*
X7857388Y5283555D01*
X7853172Y5271109D01*
X7850581Y5258206D01*
X7849717Y5244744D01*
X7849717Y3017621D01*
X7848955Y3013760D01*
X7846720Y3010458D01*
X7637322Y2801061D01*
X7634071Y2798876D01*
X7630159Y2798114D01*
X7626248Y2798876D01*
X7622997Y2801061D01*
X7620762Y2804363D01*
X7620000Y2808274D01*
X7620000Y6939330D01*
X7620762Y6943242D01*
X7622997Y6946493D01*
X7626248Y6948728D01*
X7630159Y6949490D01*
X9939324Y6949490D01*
X9943236Y6948728D01*
X9946487Y6946493D01*
X9948722Y6943242D01*
X9949484Y6939330D01*
X9949484Y60655D01*
X9948722Y56743D01*
X9946487Y53492D01*
X9943236Y51257D01*
X9939324Y50495D01*
G37*

%LPC*%
G36*
X8399322Y1211986D02*
G01*
X8412480Y1218184D01*
X8429345Y1228293D01*
X8445144Y1240028D01*
X8459724Y1253236D01*
X8472932Y1267815D01*
X8484666Y1283614D01*
X8494776Y1300480D01*
X8501024Y1313637D01*
X8399322Y1313637D01*
G37*
G36*
X9536633Y1211986D02*
G01*
X9536633Y1313637D01*
X9434931Y1313637D01*
X9441129Y1300480D01*
X9451289Y1283614D01*
X9462973Y1267815D01*
X9476181Y1253236D01*
X9490760Y1240028D01*
X9506559Y1228293D01*
X9523476Y1218184D01*
G37*
G36*
X9699294Y1211986D02*
G01*
X9712452Y1218184D01*
X9729368Y1228293D01*
X9745167Y1240028D01*
X9759746Y1253236D01*
X9772954Y1267815D01*
X9784638Y1283614D01*
X9794798Y1300480D01*
X9800996Y1313637D01*
X9699294Y1313637D01*
G37*
G36*
X8236610Y1211986D02*
G01*
X8236610Y1313637D01*
X8134908Y1313637D01*
X8141157Y1300480D01*
X8151266Y1283614D01*
X8163001Y1267815D01*
X8176209Y1253236D01*
X8190788Y1240028D01*
X8206587Y1228293D01*
X8223453Y1218184D01*
G37*
G36*
X8538413Y1474520D02*
G01*
X8697518Y1474520D01*
X8706713Y1475333D01*
X8715248Y1477568D01*
X8723172Y1481328D01*
X8730386Y1486357D01*
X8736634Y1492554D01*
X8741664Y1499768D01*
X8745372Y1507744D01*
X8747658Y1516227D01*
X8747861Y1518462D01*
X8748928Y1522222D01*
X8751417Y1525320D01*
X8754872Y1527251D01*
X8758783Y1527708D01*
X8762542Y1526641D01*
X8765641Y1524203D01*
X8774328Y1514094D01*
X8785758Y1503680D01*
X8798306Y1494688D01*
X8811869Y1487220D01*
X8826195Y1481378D01*
X8841079Y1477314D01*
X8856370Y1475028D01*
X8871813Y1474571D01*
X8887206Y1475943D01*
X8902344Y1479143D01*
X8917025Y1484071D01*
X8930944Y1490726D01*
X8944051Y1499006D01*
X8956040Y1508709D01*
X8960561Y1513382D01*
X8963761Y1515618D01*
X8967520Y1516481D01*
X8971381Y1515821D01*
X8974683Y1513789D01*
X8985758Y1503680D01*
X8998305Y1494688D01*
X9011869Y1487220D01*
X9026194Y1481378D01*
X9041079Y1477314D01*
X9056370Y1475028D01*
X9071813Y1474571D01*
X9087205Y1475943D01*
X9102344Y1479143D01*
X9117025Y1484071D01*
X9130944Y1490726D01*
X9144050Y1499006D01*
X9156039Y1508709D01*
X9166809Y1519834D01*
X9176207Y1532128D01*
X9184335Y1545945D01*
X9187281Y1549095D01*
X9191244Y1550771D01*
X9195562Y1550619D01*
X9199422Y1548739D01*
X9202166Y1545437D01*
X9205620Y1538630D01*
X9214256Y1525828D01*
X9224365Y1514094D01*
X9235744Y1503680D01*
X9248292Y1494688D01*
X9261856Y1487220D01*
X9271609Y1483258D01*
X9271609Y1558645D01*
X9203740Y1558645D01*
X9200032Y1559356D01*
X9196832Y1561338D01*
X9194596Y1564386D01*
X9193580Y1568043D01*
X9193987Y1571802D01*
X9194800Y1574342D01*
X9197543Y1589582D01*
X9198457Y1604975D01*
X9197543Y1620418D01*
X9194800Y1635658D01*
X9193987Y1638198D01*
X9193580Y1641957D01*
X9194596Y1645615D01*
X9196832Y1648663D01*
X9200032Y1650644D01*
X9203740Y1651355D01*
X9271609Y1651355D01*
X9271609Y1726742D01*
X9261856Y1722780D01*
X9248292Y1715312D01*
X9235744Y1706321D01*
X9224365Y1695907D01*
X9214256Y1684172D01*
X9205620Y1671370D01*
X9202115Y1664563D01*
X9199422Y1661261D01*
X9195562Y1659382D01*
X9191244Y1659229D01*
X9187281Y1660906D01*
X9184335Y1664055D01*
X9176207Y1677873D01*
X9166809Y1690166D01*
X9156039Y1701292D01*
X9144050Y1710994D01*
X9130944Y1719275D01*
X9117025Y1725930D01*
X9102344Y1730857D01*
X9087205Y1734057D01*
X9071813Y1735429D01*
X9056370Y1734972D01*
X9041079Y1732686D01*
X9026194Y1728622D01*
X9011869Y1722780D01*
X8998305Y1715312D01*
X8985758Y1706321D01*
X8974683Y1696212D01*
X8971381Y1694180D01*
X8967520Y1693519D01*
X8963761Y1694383D01*
X8960561Y1696618D01*
X8956040Y1701292D01*
X8944051Y1710994D01*
X8930944Y1719275D01*
X8917025Y1725930D01*
X8902344Y1730857D01*
X8887206Y1734057D01*
X8871813Y1735429D01*
X8856370Y1734972D01*
X8841079Y1732686D01*
X8826195Y1728622D01*
X8811869Y1722780D01*
X8798306Y1715312D01*
X8785758Y1706321D01*
X8774328Y1695907D01*
X8765641Y1685798D01*
X8762542Y1683359D01*
X8758783Y1682292D01*
X8754872Y1682750D01*
X8751417Y1684680D01*
X8748928Y1687779D01*
X8747861Y1691538D01*
X8747658Y1693773D01*
X8745372Y1702257D01*
X8741664Y1710232D01*
X8736634Y1717446D01*
X8730386Y1723643D01*
X8722817Y1728978D01*
X8720480Y1731213D01*
X8719007Y1734108D01*
X8718499Y1737309D01*
X8718499Y2472690D01*
X8719007Y2475890D01*
X8720480Y2478786D01*
X8722817Y2481021D01*
X8730386Y2486355D01*
X8736634Y2492552D01*
X8741664Y2499766D01*
X8745372Y2507742D01*
X8747658Y2516225D01*
X8747861Y2518460D01*
X8748928Y2522220D01*
X8751417Y2525318D01*
X8754872Y2527249D01*
X8758783Y2527706D01*
X8762542Y2526639D01*
X8765641Y2524201D01*
X8774328Y2514092D01*
X8785758Y2503678D01*
X8798306Y2494686D01*
X8811869Y2487218D01*
X8826195Y2481376D01*
X8841079Y2477312D01*
X8856370Y2475026D01*
X8871813Y2474569D01*
X8887206Y2475941D01*
X8902344Y2479141D01*
X8917025Y2484069D01*
X8930944Y2490724D01*
X8944051Y2499004D01*
X8956040Y2508707D01*
X8960561Y2513380D01*
X8963761Y2515616D01*
X8967520Y2516479D01*
X8971381Y2515819D01*
X8974683Y2513787D01*
X8985758Y2503678D01*
X8998305Y2494686D01*
X9011869Y2487218D01*
X9026194Y2481376D01*
X9041079Y2477312D01*
X9056370Y2475026D01*
X9071813Y2474569D01*
X9087205Y2475941D01*
X9102344Y2479141D01*
X9117025Y2484069D01*
X9130944Y2490724D01*
X9144050Y2499004D01*
X9156039Y2508707D01*
X9166809Y2519832D01*
X9176207Y2532126D01*
X9184335Y2545943D01*
X9187281Y2549093D01*
X9191244Y2550769D01*
X9195562Y2550617D01*
X9199422Y2548737D01*
X9202166Y2545435D01*
X9205620Y2538628D01*
X9214256Y2525826D01*
X9224365Y2514092D01*
X9235744Y2503678D01*
X9248292Y2494686D01*
X9261856Y2487218D01*
X9271609Y2483256D01*
X9271609Y2558643D01*
X9203740Y2558643D01*
X9200032Y2559354D01*
X9196832Y2561336D01*
X9194596Y2564384D01*
X9193580Y2568041D01*
X9193987Y2571800D01*
X9194800Y2574340D01*
X9197543Y2589580D01*
X9198457Y2604973D01*
X9197543Y2620416D01*
X9194800Y2635656D01*
X9193987Y2638196D01*
X9193580Y2641955D01*
X9194596Y2645613D01*
X9196832Y2648661D01*
X9200032Y2650642D01*
X9203740Y2651353D01*
X9271609Y2651353D01*
X9271609Y2726740D01*
X9261856Y2722778D01*
X9248292Y2715310D01*
X9235744Y2706319D01*
X9224365Y2695905D01*
X9214256Y2684170D01*
X9205620Y2671368D01*
X9202115Y2664561D01*
X9199422Y2661259D01*
X9195562Y2659380D01*
X9191244Y2659227D01*
X9187281Y2660904D01*
X9184335Y2664053D01*
X9176207Y2677871D01*
X9166809Y2690164D01*
X9156039Y2701290D01*
X9144050Y2710992D01*
X9130944Y2719273D01*
X9117025Y2725928D01*
X9102344Y2730855D01*
X9087205Y2734056D01*
X9071813Y2735427D01*
X9056370Y2734970D01*
X9041079Y2732684D01*
X9026194Y2728620D01*
X9011869Y2722778D01*
X8998305Y2715310D01*
X8985758Y2706319D01*
X8974683Y2696210D01*
X8971381Y2694178D01*
X8967520Y2693517D01*
X8963761Y2694381D01*
X8960561Y2696616D01*
X8956040Y2701290D01*
X8944051Y2710992D01*
X8930944Y2719273D01*
X8917025Y2725928D01*
X8902344Y2730855D01*
X8887206Y2734056D01*
X8871813Y2735427D01*
X8856370Y2734970D01*
X8841079Y2732684D01*
X8826195Y2728620D01*
X8811869Y2722778D01*
X8798306Y2715310D01*
X8785758Y2706319D01*
X8774328Y2695905D01*
X8765641Y2685796D01*
X8762542Y2683357D01*
X8758783Y2682290D01*
X8754872Y2682748D01*
X8751417Y2684678D01*
X8748928Y2687777D01*
X8747861Y2691536D01*
X8747658Y2693771D01*
X8745372Y2702255D01*
X8741664Y2710230D01*
X8736634Y2717444D01*
X8730386Y2723642D01*
X8722817Y2728976D01*
X8720480Y2731211D01*
X8719007Y2734106D01*
X8718499Y2737307D01*
X8718499Y3435756D01*
X8717584Y3449218D01*
X8715044Y3462121D01*
X8710828Y3474567D01*
X8704986Y3486353D01*
X8697671Y3497275D01*
X8693454Y3502050D01*
X8691880Y3504488D01*
X8691067Y3507282D01*
X8689238Y3519373D01*
X8685174Y3534308D01*
X8679383Y3548634D01*
X8671915Y3562146D01*
X8662873Y3574694D01*
X8652459Y3586124D01*
X8640775Y3596233D01*
X8627922Y3604869D01*
X8614156Y3611930D01*
X8599678Y3617315D01*
X8584641Y3620922D01*
X8569299Y3622751D01*
X8553856Y3622751D01*
X8538514Y3620922D01*
X8523478Y3617315D01*
X8509000Y3611930D01*
X8495233Y3604869D01*
X8478418Y3593642D01*
X8474913Y3592982D01*
X8394242Y3592982D01*
X8390737Y3593642D01*
X8373922Y3604869D01*
X8360156Y3611930D01*
X8345678Y3617315D01*
X8330641Y3620922D01*
X8315299Y3622751D01*
X8299856Y3622751D01*
X8284514Y3620922D01*
X8269478Y3617315D01*
X8255000Y3611930D01*
X8241233Y3604869D01*
X8228431Y3596233D01*
X8216696Y3586124D01*
X8206282Y3574694D01*
X8197240Y3562146D01*
X8189772Y3548634D01*
X8183981Y3534308D01*
X8179917Y3519373D01*
X8177631Y3504082D01*
X8177174Y3488639D01*
X8178546Y3473246D01*
X8181695Y3458108D01*
X8186674Y3443478D01*
X8193328Y3429508D01*
X8201558Y3416452D01*
X8211312Y3404412D01*
X8222386Y3393643D01*
X8234680Y3384296D01*
X8247989Y3376422D01*
X8262162Y3370173D01*
X8276945Y3365652D01*
X8292134Y3362960D01*
X8307578Y3362045D01*
X8323021Y3362960D01*
X8338210Y3365652D01*
X8352993Y3370173D01*
X8367166Y3376422D01*
X8380475Y3384296D01*
X8387842Y3389934D01*
X8390788Y3391458D01*
X8394039Y3392017D01*
X8475116Y3392017D01*
X8478367Y3391458D01*
X8481314Y3389934D01*
X8488680Y3384296D01*
X8501989Y3376422D01*
X8511438Y3372256D01*
X8514638Y3370072D01*
X8516721Y3366770D01*
X8517483Y3362960D01*
X8517483Y2737307D01*
X8516975Y2734106D01*
X8515451Y2731262D01*
X8513165Y2728976D01*
X8505545Y2723642D01*
X8499297Y2717444D01*
X8494268Y2710230D01*
X8490559Y2702255D01*
X8488273Y2693771D01*
X8487460Y2684576D01*
X8487460Y2532481D01*
X8486648Y2528519D01*
X8484362Y2525166D01*
X8480958Y2523032D01*
X8476996Y2522321D01*
X8473033Y2523286D01*
X8469782Y2525674D01*
X8459724Y2536748D01*
X8445144Y2549956D01*
X8429345Y2561691D01*
X8412480Y2571800D01*
X8399322Y2578049D01*
X8399322Y2476347D01*
X8507323Y2476347D01*
X8511235Y2475585D01*
X8514486Y2473350D01*
X8516721Y2470099D01*
X8517483Y2466187D01*
X8517483Y2323795D01*
X8516721Y2319934D01*
X8514486Y2316632D01*
X8511235Y2314397D01*
X8507323Y2313635D01*
X8399322Y2313635D01*
X8399322Y2211984D01*
X8412480Y2218182D01*
X8429345Y2228291D01*
X8445144Y2240026D01*
X8459724Y2253234D01*
X8472932Y2267813D01*
X8484666Y2283612D01*
X8494776Y2300478D01*
X8498128Y2307590D01*
X8500465Y2310739D01*
X8503767Y2312771D01*
X8507628Y2313432D01*
X8511387Y2312568D01*
X8514588Y2310333D01*
X8516721Y2307082D01*
X8517483Y2303272D01*
X8517483Y1737309D01*
X8516975Y1734108D01*
X8515451Y1731264D01*
X8513165Y1728978D01*
X8505545Y1723643D01*
X8499297Y1717446D01*
X8494268Y1710232D01*
X8490559Y1702257D01*
X8488273Y1693773D01*
X8487460Y1684578D01*
X8487460Y1532483D01*
X8486648Y1528521D01*
X8484362Y1525168D01*
X8480958Y1523034D01*
X8476996Y1522323D01*
X8473033Y1523288D01*
X8469782Y1525676D01*
X8459724Y1536750D01*
X8445144Y1549958D01*
X8429345Y1561693D01*
X8412480Y1571802D01*
X8399322Y1578051D01*
X8399322Y1476349D01*
X8507831Y1476349D01*
X8511235Y1478534D01*
X8515248Y1479245D01*
X8519210Y1478280D01*
X8520684Y1477568D01*
X8529218Y1475333D01*
G37*
G36*
X9434931Y1476349D02*
G01*
X9536633Y1476349D01*
X9536633Y1578051D01*
X9523476Y1571802D01*
X9506559Y1561693D01*
X9490760Y1549958D01*
X9476181Y1536750D01*
X9462973Y1522171D01*
X9451289Y1506372D01*
X9441129Y1489506D01*
G37*
G36*
X8134908Y1476349D02*
G01*
X8236610Y1476349D01*
X8236610Y1578051D01*
X8223453Y1571802D01*
X8206587Y1561693D01*
X8190788Y1549958D01*
X8176209Y1536750D01*
X8163001Y1522171D01*
X8151266Y1506372D01*
X8141157Y1489506D01*
G37*
G36*
X9699294Y1476349D02*
G01*
X9800996Y1476349D01*
X9794798Y1489506D01*
X9784638Y1506372D01*
X9772954Y1522171D01*
X9759746Y1536750D01*
X9745167Y1549958D01*
X9729368Y1561693D01*
X9712452Y1571802D01*
X9699294Y1578051D01*
G37*
G36*
X9364319Y1483156D02*
G01*
X9367012Y1484071D01*
X9380982Y1490726D01*
X9394037Y1499006D01*
X9406026Y1508709D01*
X9416796Y1519834D01*
X9426194Y1532128D01*
X9434068Y1545437D01*
X9439859Y1558645D01*
X9364319Y1558645D01*
G37*
G36*
X9364319Y1651355D02*
G01*
X9439859Y1651355D01*
X9434068Y1664563D01*
X9426194Y1677873D01*
X9416796Y1690166D01*
X9406026Y1701292D01*
X9394037Y1710994D01*
X9380982Y1719275D01*
X9367012Y1725930D01*
X9364319Y1726844D01*
G37*
G36*
X9536633Y2211984D02*
G01*
X9536633Y2313635D01*
X9434931Y2313635D01*
X9441129Y2300478D01*
X9451289Y2283612D01*
X9462973Y2267813D01*
X9476181Y2253234D01*
X9490760Y2240026D01*
X9506559Y2228291D01*
X9523476Y2218182D01*
G37*
G36*
X8236610Y2211984D02*
G01*
X8236610Y2313635D01*
X8134908Y2313635D01*
X8141157Y2300478D01*
X8151266Y2283612D01*
X8163001Y2267813D01*
X8176209Y2253234D01*
X8190788Y2240026D01*
X8206587Y2228291D01*
X8223453Y2218182D01*
G37*
G36*
X9699294Y2211984D02*
G01*
X9712452Y2218182D01*
X9729368Y2228291D01*
X9745167Y2240026D01*
X9759746Y2253234D01*
X9772954Y2267813D01*
X9784638Y2283612D01*
X9794798Y2300478D01*
X9800996Y2313635D01*
X9699294Y2313635D01*
G37*
G36*
X9434931Y2476347D02*
G01*
X9536633Y2476347D01*
X9536633Y2578049D01*
X9523476Y2571800D01*
X9506559Y2561691D01*
X9490760Y2549956D01*
X9476181Y2536748D01*
X9462973Y2522169D01*
X9451289Y2506370D01*
X9441129Y2489504D01*
G37*
G36*
X9699294Y2476347D02*
G01*
X9800996Y2476347D01*
X9794798Y2489504D01*
X9784638Y2506370D01*
X9772954Y2522169D01*
X9759746Y2536748D01*
X9745167Y2549956D01*
X9729368Y2561691D01*
X9712452Y2571800D01*
X9699294Y2578049D01*
G37*
G36*
X8134908Y2476347D02*
G01*
X8236610Y2476347D01*
X8236610Y2578049D01*
X8223453Y2571800D01*
X8206587Y2561691D01*
X8190788Y2549956D01*
X8176209Y2536748D01*
X8163001Y2522169D01*
X8151266Y2506370D01*
X8141157Y2489504D01*
G37*
G36*
X9364319Y2483154D02*
G01*
X9367012Y2484069D01*
X9380982Y2490724D01*
X9394037Y2499004D01*
X9406026Y2508707D01*
X9416796Y2519832D01*
X9426194Y2532126D01*
X9434068Y2545435D01*
X9439859Y2558643D01*
X9364319Y2558643D01*
G37*
G36*
X9364319Y2651353D02*
G01*
X9439859Y2651353D01*
X9434068Y2664561D01*
X9426194Y2677871D01*
X9416796Y2690164D01*
X9406026Y2701290D01*
X9394037Y2710992D01*
X9380982Y2719273D01*
X9367012Y2725928D01*
X9364319Y2726842D01*
G37*
G36*
X9328048Y3370579D02*
G01*
X9328048Y3446170D01*
X9252559Y3446170D01*
X9253474Y3443478D01*
X9260128Y3429508D01*
X9268358Y3416452D01*
X9278112Y3404412D01*
X9289186Y3393643D01*
X9301480Y3384296D01*
X9314789Y3376422D01*
G37*
G36*
X9674707Y3370579D02*
G01*
X9687966Y3376422D01*
X9701276Y3384296D01*
X9713569Y3393643D01*
X9724644Y3404412D01*
X9734397Y3416452D01*
X9742627Y3429508D01*
X9749282Y3443478D01*
X9750196Y3446170D01*
X9674707Y3446170D01*
G37*
G36*
X9420707Y3370579D02*
G01*
X9433966Y3376422D01*
X9447276Y3384296D01*
X9459569Y3393643D01*
X9470644Y3404412D01*
X9480397Y3416452D01*
X9488627Y3429508D01*
X9492183Y3436975D01*
X9494469Y3440074D01*
X9497669Y3442055D01*
X9501378Y3442766D01*
X9505086Y3442055D01*
X9508286Y3440074D01*
X9510572Y3436975D01*
X9514128Y3429508D01*
X9522358Y3416452D01*
X9532112Y3404412D01*
X9543186Y3393643D01*
X9555480Y3384296D01*
X9568789Y3376422D01*
X9582048Y3370579D01*
X9582048Y3446170D01*
X9420707Y3446170D01*
G37*
G36*
X9252610Y3538829D02*
G01*
X9328048Y3538829D01*
X9328048Y3614216D01*
X9321800Y3611930D01*
X9308033Y3604869D01*
X9295180Y3596233D01*
X9283496Y3586124D01*
X9273082Y3574694D01*
X9264040Y3562146D01*
X9256572Y3548634D01*
G37*
G36*
X9674707Y3538829D02*
G01*
X9750145Y3538829D01*
X9746183Y3548634D01*
X9738715Y3562146D01*
X9729673Y3574694D01*
X9719259Y3586124D01*
X9707575Y3596233D01*
X9694722Y3604869D01*
X9680956Y3611930D01*
X9674707Y3614216D01*
G37*
G36*
X9420707Y3538829D02*
G01*
X9582048Y3538829D01*
X9582048Y3614216D01*
X9575800Y3611930D01*
X9562033Y3604869D01*
X9549180Y3596233D01*
X9537496Y3586124D01*
X9527082Y3574694D01*
X9518040Y3562146D01*
X9510268Y3548075D01*
X9507423Y3544824D01*
X9503511Y3543046D01*
X9499193Y3543046D01*
X9495282Y3544824D01*
X9492488Y3548075D01*
X9484715Y3562146D01*
X9475673Y3574694D01*
X9465259Y3586124D01*
X9453575Y3596233D01*
X9440722Y3604869D01*
X9426956Y3611930D01*
X9420707Y3614216D01*
G37*
G36*
X9674707Y5224780D02*
G01*
X9687966Y5230622D01*
X9701276Y5238496D01*
X9713569Y5247843D01*
X9724644Y5258612D01*
X9734397Y5270652D01*
X9742627Y5283708D01*
X9749282Y5297678D01*
X9750196Y5300370D01*
X9674707Y5300370D01*
G37*
G36*
X9328048Y5224780D02*
G01*
X9328048Y5300370D01*
X9252559Y5300370D01*
X9253474Y5297678D01*
X9260128Y5283708D01*
X9268358Y5270652D01*
X9278112Y5258612D01*
X9289186Y5247843D01*
X9301480Y5238496D01*
X9314789Y5230622D01*
G37*
G36*
X9420707Y5224780D02*
G01*
X9433966Y5230622D01*
X9447276Y5238496D01*
X9459569Y5247843D01*
X9470644Y5258612D01*
X9480397Y5270652D01*
X9488627Y5283708D01*
X9492183Y5291175D01*
X9494469Y5294223D01*
X9497669Y5296255D01*
X9501378Y5296966D01*
X9505086Y5296255D01*
X9508286Y5294223D01*
X9510572Y5291175D01*
X9514128Y5283708D01*
X9522358Y5270652D01*
X9532112Y5258612D01*
X9543186Y5247843D01*
X9555480Y5238496D01*
X9568789Y5230622D01*
X9582048Y5224780D01*
X9582048Y5300370D01*
X9420707Y5300370D01*
G37*
G36*
X9252610Y5393029D02*
G01*
X9328048Y5393029D01*
X9328048Y5468416D01*
X9321800Y5466130D01*
X9308033Y5459069D01*
X9295180Y5450433D01*
X9283496Y5440324D01*
X9273082Y5428894D01*
X9264040Y5416346D01*
X9256572Y5402834D01*
G37*
G36*
X9674707Y5393029D02*
G01*
X9750145Y5393029D01*
X9746183Y5402834D01*
X9738715Y5416346D01*
X9729673Y5428894D01*
X9719259Y5440324D01*
X9707575Y5450433D01*
X9694722Y5459069D01*
X9680956Y5466130D01*
X9674707Y5468416D01*
G37*
G36*
X9420707Y5393029D02*
G01*
X9582048Y5393029D01*
X9582048Y5468416D01*
X9575800Y5466130D01*
X9562033Y5459069D01*
X9549180Y5450433D01*
X9537496Y5440324D01*
X9527082Y5428894D01*
X9518040Y5416346D01*
X9510268Y5402275D01*
X9507423Y5399024D01*
X9503511Y5397246D01*
X9499193Y5397246D01*
X9495282Y5399024D01*
X9492488Y5402275D01*
X9484715Y5416346D01*
X9475673Y5428894D01*
X9465259Y5440324D01*
X9453575Y5450433D01*
X9440722Y5459069D01*
X9426956Y5466130D01*
X9420707Y5468416D01*
G37*
G36*
X8340344Y5858205D02*
G01*
X8354161Y5864606D01*
X8369046Y5873597D01*
X8382863Y5884113D01*
X8395462Y5896051D01*
X8406739Y5909259D01*
X8416493Y5923686D01*
X8424621Y5939028D01*
X8431072Y5955182D01*
X8435695Y5971895D01*
X8438540Y5989066D01*
X8439251Y6002528D01*
X8340344Y6002528D01*
G37*
G36*
X8217611Y5858205D02*
G01*
X8217611Y6002528D01*
X8118703Y6002528D01*
X8119414Y5989066D01*
X8122259Y5971895D01*
X8126882Y5955182D01*
X8133334Y5939028D01*
X8141462Y5923686D01*
X8151215Y5909259D01*
X8162493Y5896051D01*
X8175091Y5884113D01*
X8188909Y5873597D01*
X8203793Y5864606D01*
G37*
G36*
X8340344Y6240272D02*
G01*
X8439251Y6240272D01*
X8438540Y6253734D01*
X8435695Y6270904D01*
X8431072Y6287617D01*
X8424621Y6303772D01*
X8416493Y6319113D01*
X8406739Y6333540D01*
X8395462Y6346748D01*
X8382863Y6358686D01*
X8369046Y6369202D01*
X8354161Y6378194D01*
X8340344Y6384594D01*
G37*
G36*
X8118703Y6240272D02*
G01*
X8217611Y6240272D01*
X8217611Y6384594D01*
X8203793Y6378194D01*
X8188909Y6369202D01*
X8175091Y6358686D01*
X8162493Y6346748D01*
X8151215Y6333540D01*
X8141462Y6319113D01*
X8133334Y6303772D01*
X8126882Y6287617D01*
X8122259Y6270904D01*
X8119414Y6253734D01*
G37*
G36*
X8846820Y6261150D02*
G01*
X8860332Y6261862D01*
X8877452Y6264656D01*
X8894216Y6269329D01*
X8910370Y6275730D01*
X8925712Y6283909D01*
X8940088Y6293662D01*
X8953347Y6304889D01*
X8965285Y6317488D01*
X8975801Y6331356D01*
X8984742Y6346240D01*
X8991142Y6360058D01*
X8846820Y6360058D01*
G37*
G36*
X8609126Y6261150D02*
G01*
X8609126Y6360058D01*
X8464804Y6360058D01*
X8471204Y6346240D01*
X8480145Y6331356D01*
X8490661Y6317488D01*
X8502599Y6304889D01*
X8515858Y6293662D01*
X8530234Y6283909D01*
X8545576Y6275730D01*
X8561730Y6269329D01*
X8578494Y6264656D01*
X8595614Y6261862D01*
G37*
G36*
X9707168Y6333896D02*
G01*
X9726015Y6343802D01*
X9746488Y6356705D01*
X9765842Y6371285D01*
X9783927Y6387338D01*
X9800691Y6404762D01*
X9816033Y6423507D01*
X9829749Y6443421D01*
X9841839Y6464350D01*
X9845802Y6472682D01*
X9707168Y6472682D01*
G37*
G36*
X9444431Y6333896D02*
G01*
X9444431Y6472682D01*
X9305798Y6472682D01*
X9309709Y6464350D01*
X9321850Y6443421D01*
X9335566Y6423507D01*
X9350857Y6404762D01*
X9367621Y6387338D01*
X9385757Y6371285D01*
X9405112Y6356705D01*
X9425533Y6343802D01*
G37*
G36*
X8464804Y6482740D02*
G01*
X8609126Y6482740D01*
X8609126Y6581648D01*
X8595614Y6580936D01*
X8578494Y6578142D01*
X8561730Y6573469D01*
X8545576Y6567068D01*
X8530234Y6558889D01*
X8515858Y6549135D01*
X8502599Y6537909D01*
X8490661Y6525310D01*
X8480145Y6511442D01*
X8471204Y6496558D01*
G37*
G36*
X8846820Y6482740D02*
G01*
X8991142Y6482740D01*
X8984742Y6496558D01*
X8975801Y6511442D01*
X8965285Y6525310D01*
X8953347Y6537909D01*
X8940088Y6549135D01*
X8925712Y6558889D01*
X8910370Y6567068D01*
X8894216Y6573469D01*
X8877452Y6578142D01*
X8860332Y6580936D01*
X8846820Y6581648D01*
G37*
G36*
X9707168Y6735368D02*
G01*
X9845802Y6735368D01*
X9841839Y6743700D01*
X9829749Y6764629D01*
X9816033Y6784543D01*
X9800691Y6803288D01*
X9783927Y6820712D01*
X9765842Y6836765D01*
X9746488Y6851345D01*
X9726015Y6864248D01*
X9707168Y6874154D01*
G37*
G36*
X9305798Y6735368D02*
G01*
X9444431Y6735368D01*
X9444431Y6874154D01*
X9425533Y6864248D01*
X9405112Y6851345D01*
X9385757Y6836765D01*
X9367621Y6820712D01*
X9350857Y6803288D01*
X9335566Y6784543D01*
X9321850Y6764629D01*
X9309709Y6743649D01*
G37*

%LPD*%
G36*
X60655Y50495D02*
G01*
X56743Y51257D01*
X53492Y53492D01*
X51257Y56743D01*
X50495Y60655D01*
X50495Y2783840D01*
X51257Y2787751D01*
X53492Y2791002D01*
X56743Y2793238D01*
X60655Y2794000D01*
X933145Y2794000D01*
X937056Y2793238D01*
X940358Y2791002D01*
X1138834Y2592527D01*
X1140866Y2589682D01*
X1141780Y2586278D01*
X1141476Y2582824D01*
X1140053Y2579624D01*
X1136497Y2574442D01*
X1129030Y2560218D01*
X1123188Y2545283D01*
X1119124Y2529789D01*
X1116838Y2513888D01*
X1116380Y2497886D01*
X1117752Y2481884D01*
X1120952Y2466187D01*
X1125880Y2450896D01*
X1132535Y2436317D01*
X1140815Y2422601D01*
X1150620Y2409901D01*
X1153769Y2406650D01*
X1155903Y2403398D01*
X1156665Y2399588D01*
X1156817Y2362149D01*
X1157681Y2349093D01*
X1160272Y2336190D01*
X1164488Y2323744D01*
X1170279Y2311958D01*
X1177594Y2301036D01*
X1186484Y2290927D01*
X1287627Y2189784D01*
X1297736Y2180894D01*
X1308658Y2173579D01*
X1320444Y2167788D01*
X1332890Y2163572D01*
X1345793Y2160981D01*
X1359255Y2160117D01*
X2679344Y2160117D01*
X2692806Y2160981D01*
X2705709Y2163572D01*
X2718155Y2167788D01*
X2729941Y2173579D01*
X2740863Y2180894D01*
X2750972Y2189784D01*
X2864815Y2303627D01*
X2873705Y2313736D01*
X2881020Y2324658D01*
X2886811Y2336444D01*
X2891028Y2348890D01*
X2893618Y2361793D01*
X2894482Y2375255D01*
X2894482Y2783840D01*
X2895244Y2787751D01*
X2897479Y2791002D01*
X2900781Y2793238D01*
X2904642Y2794000D01*
X3446373Y2794000D01*
X3450234Y2793238D01*
X3453536Y2791002D01*
X3668166Y2576423D01*
X3670147Y2573578D01*
X3671062Y2570175D01*
X3670808Y2566720D01*
X3669334Y2563520D01*
X3665778Y2558338D01*
X3658311Y2544114D01*
X3652520Y2529179D01*
X3648405Y2513685D01*
X3646119Y2497785D01*
X3645662Y2481783D01*
X3647033Y2465781D01*
X3650234Y2450084D01*
X3655212Y2434793D01*
X3661867Y2420213D01*
X3670147Y2406497D01*
X3679951Y2393797D01*
X3681374Y2392273D01*
X3683406Y2389327D01*
X3684219Y2385872D01*
X3684981Y2374493D01*
X3687572Y2361590D01*
X3691788Y2349144D01*
X3697579Y2337358D01*
X3704894Y2326436D01*
X3713784Y2316327D01*
X3840327Y2189784D01*
X3850436Y2180894D01*
X3861358Y2173579D01*
X3873144Y2167788D01*
X3885590Y2163572D01*
X3898493Y2160981D01*
X3911955Y2160117D01*
X5206644Y2160117D01*
X5220106Y2160981D01*
X5233009Y2163572D01*
X5245455Y2167788D01*
X5257241Y2173579D01*
X5268163Y2180894D01*
X5278272Y2189784D01*
X5404815Y2316327D01*
X5413705Y2326436D01*
X5421020Y2337358D01*
X5426811Y2349144D01*
X5431028Y2361590D01*
X5433618Y2374493D01*
X5434482Y2387955D01*
X5434482Y2783840D01*
X5435244Y2787751D01*
X5437479Y2791002D01*
X5440781Y2793238D01*
X5444642Y2794000D01*
X5912205Y2794000D01*
X5916066Y2793238D01*
X5919368Y2791002D01*
X6113729Y2596692D01*
X6115710Y2593797D01*
X6116624Y2590444D01*
X6116370Y2586939D01*
X6114897Y2583738D01*
X6106210Y2571038D01*
X6098743Y2556814D01*
X6092901Y2541879D01*
X6088837Y2526385D01*
X6086551Y2510485D01*
X6086094Y2494483D01*
X6087465Y2478481D01*
X6090666Y2462784D01*
X6095593Y2447493D01*
X6102248Y2432913D01*
X6110528Y2419197D01*
X6120333Y2406497D01*
X6123178Y2403551D01*
X6125311Y2400300D01*
X6126073Y2396490D01*
X6126073Y2358999D01*
X6126937Y2345537D01*
X6129528Y2332634D01*
X6133744Y2320188D01*
X6139535Y2308402D01*
X6146850Y2297480D01*
X6155740Y2287371D01*
X6304127Y2138984D01*
X6314236Y2130094D01*
X6325158Y2122779D01*
X6336944Y2116988D01*
X6349390Y2112772D01*
X6362293Y2110181D01*
X6375755Y2109317D01*
X7187844Y2109317D01*
X7201306Y2110181D01*
X7214209Y2112772D01*
X7226655Y2116988D01*
X7238441Y2122779D01*
X7249363Y2130094D01*
X7259472Y2138984D01*
X7571028Y2450490D01*
X7574686Y2452827D01*
X7579004Y2453436D01*
X7583170Y2452166D01*
X7586421Y2449322D01*
X7588148Y2445308D01*
X7588097Y2440990D01*
X7585709Y2430983D01*
X7583830Y2415032D01*
X7583830Y2398979D01*
X7585709Y2383028D01*
X7589418Y2367432D01*
X7594904Y2352344D01*
X7602118Y2338019D01*
X7610906Y2324608D01*
X7621219Y2312314D01*
X7632903Y2301290D01*
X7645755Y2291740D01*
X7647381Y2290826D01*
X7650530Y2287981D01*
X7652258Y2284120D01*
X7652258Y2279904D01*
X7650530Y2276043D01*
X7647381Y2273198D01*
X7645755Y2272284D01*
X7632903Y2262682D01*
X7630312Y2260244D01*
X7627061Y2258161D01*
X7623302Y2257450D01*
X7465923Y2257450D01*
X7452461Y2256586D01*
X7439558Y2253996D01*
X7427112Y2249779D01*
X7415326Y2243988D01*
X7404404Y2236673D01*
X7394295Y2227783D01*
X7295184Y2128672D01*
X7286294Y2118563D01*
X7278979Y2107641D01*
X7273188Y2095855D01*
X7268972Y2083409D01*
X7266381Y2070506D01*
X7265517Y2057044D01*
X7265517Y902055D01*
X7266381Y888593D01*
X7268972Y875690D01*
X7273188Y863244D01*
X7278979Y851458D01*
X7286294Y840536D01*
X7295184Y830427D01*
X7421727Y703884D01*
X7431836Y694994D01*
X7442758Y687679D01*
X7454544Y681888D01*
X7466990Y677672D01*
X7479893Y675081D01*
X7493355Y674217D01*
X8691778Y674217D01*
X8695639Y673455D01*
X8698941Y671220D01*
X8706866Y663295D01*
X8709050Y660095D01*
X8709812Y656336D01*
X8709202Y652526D01*
X8707170Y649224D01*
X8704021Y646938D01*
X8700312Y645972D01*
X8689035Y645312D01*
X8673998Y642569D01*
X8659418Y637997D01*
X8645448Y631748D01*
X8632342Y623824D01*
X8620302Y614375D01*
X8611565Y605637D01*
X8608263Y603402D01*
X8604402Y602640D01*
X8600490Y603402D01*
X8597188Y605637D01*
X8588451Y614375D01*
X8576411Y623824D01*
X8563305Y631748D01*
X8548878Y638149D01*
X8548878Y563981D01*
X8571941Y563981D01*
X8575649Y563321D01*
X8578850Y561289D01*
X8581085Y558241D01*
X8582050Y554583D01*
X8578596Y534822D01*
X8577630Y519531D01*
X8578596Y504291D01*
X8582050Y484530D01*
X8581085Y480872D01*
X8578850Y477824D01*
X8575649Y475792D01*
X8571941Y475081D01*
X8548878Y475081D01*
X8548878Y451815D01*
X8548166Y448106D01*
X8546134Y444906D01*
X8543086Y442620D01*
X8539429Y441655D01*
X8519718Y445160D01*
X8504428Y446074D01*
X8489137Y445160D01*
X8469426Y441655D01*
X8465769Y442620D01*
X8462721Y444906D01*
X8460689Y448106D01*
X8459978Y451815D01*
X8459978Y475081D01*
X8436660Y475081D01*
X8432952Y475792D01*
X8429752Y477824D01*
X8427516Y480872D01*
X8426551Y484530D01*
X8430006Y504291D01*
X8430971Y519531D01*
X8430006Y534822D01*
X8426551Y554583D01*
X8427516Y558241D01*
X8429752Y561289D01*
X8432952Y563321D01*
X8436660Y563981D01*
X8459978Y563981D01*
X8459978Y638149D01*
X8445550Y631748D01*
X8432444Y623824D01*
X8420404Y614375D01*
X8411514Y605485D01*
X8408263Y603300D01*
X8404352Y602488D01*
X8400440Y603300D01*
X8397189Y605485D01*
X8388299Y614375D01*
X8376259Y623824D01*
X8363153Y631748D01*
X8349183Y637997D01*
X8334603Y642569D01*
X8319566Y645312D01*
X8304275Y646226D01*
X8288985Y645312D01*
X8273948Y642569D01*
X8259368Y637997D01*
X8245398Y631748D01*
X8232292Y623824D01*
X8220252Y614375D01*
X8211515Y605637D01*
X8208213Y603402D01*
X8204352Y602640D01*
X8200440Y603402D01*
X8197138Y605637D01*
X8188401Y614375D01*
X8176361Y623824D01*
X8163255Y631748D01*
X8149285Y637997D01*
X8134705Y642569D01*
X8119668Y645312D01*
X8104378Y646226D01*
X8089087Y645312D01*
X8074050Y642569D01*
X8059470Y637997D01*
X8045500Y631748D01*
X8032394Y623824D01*
X8020354Y614375D01*
X8011464Y605485D01*
X8008213Y603300D01*
X8004302Y602488D01*
X8000390Y603300D01*
X7997139Y605485D01*
X7988249Y614375D01*
X7976209Y623824D01*
X7963103Y631748D01*
X7949133Y637997D01*
X7934553Y642569D01*
X7919516Y645312D01*
X7904225Y646226D01*
X7888935Y645312D01*
X7873898Y642569D01*
X7859318Y637997D01*
X7845348Y631748D01*
X7832242Y623824D01*
X7820202Y614375D01*
X7811719Y605891D01*
X7808417Y603656D01*
X7804556Y602894D01*
X7800644Y603656D01*
X7797342Y605891D01*
X7788859Y614375D01*
X7776819Y623824D01*
X7763713Y631748D01*
X7749743Y637997D01*
X7735163Y642569D01*
X7720126Y645312D01*
X7704836Y646226D01*
X7689545Y645312D01*
X7674508Y642569D01*
X7659928Y637997D01*
X7645958Y631748D01*
X7632852Y623824D01*
X7620812Y614375D01*
X7611922Y605485D01*
X7608671Y603300D01*
X7604759Y602488D01*
X7600848Y603300D01*
X7597597Y605485D01*
X7588707Y614375D01*
X7576667Y623824D01*
X7563561Y631748D01*
X7549591Y637997D01*
X7535011Y642569D01*
X7519974Y645312D01*
X7504684Y646226D01*
X7489393Y645312D01*
X7474356Y642569D01*
X7459776Y637997D01*
X7445806Y631748D01*
X7432700Y623824D01*
X7420660Y614375D01*
X7411262Y604977D01*
X7408011Y602792D01*
X7404100Y601980D01*
X7400188Y602792D01*
X7396937Y604977D01*
X7388301Y613613D01*
X7376261Y623062D01*
X7363155Y630986D01*
X7349185Y637235D01*
X7334605Y641807D01*
X7319568Y644550D01*
X7304278Y645464D01*
X7288987Y644550D01*
X7273950Y641807D01*
X7259370Y637235D01*
X7245400Y630986D01*
X7232294Y623062D01*
X7220254Y613613D01*
X7211517Y604875D01*
X7208215Y602640D01*
X7204354Y601878D01*
X7200442Y602640D01*
X7197140Y604875D01*
X7188149Y613867D01*
X7176109Y623316D01*
X7163003Y631240D01*
X7149033Y637489D01*
X7134453Y642061D01*
X7119416Y644804D01*
X7104125Y645718D01*
X7088835Y644804D01*
X7073798Y642061D01*
X7059218Y637489D01*
X7045248Y631240D01*
X7032142Y623316D01*
X7020102Y613867D01*
X7011365Y605129D01*
X7008063Y602894D01*
X7004202Y602132D01*
X7000290Y602894D01*
X6996988Y605129D01*
X6988251Y613867D01*
X6976211Y623316D01*
X6963105Y631240D01*
X6948678Y637641D01*
X6948678Y563473D01*
X6971741Y563473D01*
X6975449Y562813D01*
X6978650Y560781D01*
X6980885Y557733D01*
X6981850Y554075D01*
X6978396Y534314D01*
X6977430Y519023D01*
X6978396Y503783D01*
X6981850Y484022D01*
X6980885Y480364D01*
X6978650Y477316D01*
X6975449Y475284D01*
X6971741Y474573D01*
X6948678Y474573D01*
X6948678Y451205D01*
X6947966Y447497D01*
X6945934Y444296D01*
X6942886Y442061D01*
X6939229Y441096D01*
X6919264Y444652D01*
X6903974Y445566D01*
X6888683Y444652D01*
X6869226Y441248D01*
X6865569Y442214D01*
X6862521Y444449D01*
X6860489Y447649D01*
X6859778Y451358D01*
X6859778Y474573D01*
X6836460Y474573D01*
X6832752Y475284D01*
X6829552Y477316D01*
X6827316Y480364D01*
X6826351Y484022D01*
X6829806Y503783D01*
X6830771Y519023D01*
X6829806Y534314D01*
X6826351Y554075D01*
X6827316Y557733D01*
X6829552Y560781D01*
X6832752Y562813D01*
X6836460Y563473D01*
X6859778Y563473D01*
X6859778Y637641D01*
X6845350Y631240D01*
X6832244Y623316D01*
X6820204Y613867D01*
X6811314Y604977D01*
X6808063Y602792D01*
X6804152Y601980D01*
X6800240Y602792D01*
X6796989Y604977D01*
X6788099Y613867D01*
X6776059Y623316D01*
X6762953Y631240D01*
X6748983Y637489D01*
X6734403Y642061D01*
X6719366Y644804D01*
X6704075Y645718D01*
X6688785Y644804D01*
X6673748Y642061D01*
X6659168Y637489D01*
X6645198Y631240D01*
X6632092Y623316D01*
X6620052Y613867D01*
X6611315Y605129D01*
X6608013Y602894D01*
X6604152Y602132D01*
X6600240Y602894D01*
X6596938Y605129D01*
X6588201Y613867D01*
X6576161Y623316D01*
X6563055Y631240D01*
X6549085Y637489D01*
X6534505Y642061D01*
X6519468Y644804D01*
X6504178Y645718D01*
X6488887Y644804D01*
X6473850Y642061D01*
X6459270Y637489D01*
X6445300Y631240D01*
X6432194Y623316D01*
X6420154Y613867D01*
X6411264Y604977D01*
X6408013Y602792D01*
X6404102Y601980D01*
X6400190Y602792D01*
X6396939Y604977D01*
X6388303Y613613D01*
X6376263Y623062D01*
X6363157Y630986D01*
X6349187Y637235D01*
X6334607Y641807D01*
X6319570Y644550D01*
X6304280Y645464D01*
X6288989Y644550D01*
X6273952Y641807D01*
X6259372Y637235D01*
X6245402Y630986D01*
X6232296Y623062D01*
X6220256Y613613D01*
X6211366Y604723D01*
X6208115Y602538D01*
X6204204Y601726D01*
X6200292Y602538D01*
X6197041Y604723D01*
X6187897Y613867D01*
X6175857Y623316D01*
X6162751Y631240D01*
X6148781Y637489D01*
X6134201Y642061D01*
X6119164Y644804D01*
X6103874Y645718D01*
X6088583Y644804D01*
X6073546Y642061D01*
X6058966Y637489D01*
X6044996Y631240D01*
X6031890Y623316D01*
X6019850Y613867D01*
X6011113Y605129D01*
X6007811Y602894D01*
X6003950Y602132D01*
X6000038Y602894D01*
X5996736Y605129D01*
X5987999Y613867D01*
X5975959Y623316D01*
X5962853Y631240D01*
X5948883Y637489D01*
X5934303Y642061D01*
X5919266Y644804D01*
X5903976Y645718D01*
X5888685Y644804D01*
X5873648Y642061D01*
X5859068Y637489D01*
X5845098Y631240D01*
X5831992Y623316D01*
X5820664Y614375D01*
X5816701Y612495D01*
X5812332Y612444D01*
X5808319Y614222D01*
X5805474Y617524D01*
X5804255Y621741D01*
X5803442Y633882D01*
X5800852Y646785D01*
X5796635Y659231D01*
X5790844Y671017D01*
X5783529Y681939D01*
X5774639Y692048D01*
X5684672Y782015D01*
X5674563Y790905D01*
X5668010Y795274D01*
X5665012Y798372D01*
X5663590Y802436D01*
X5663946Y806704D01*
X5666028Y810463D01*
X5669432Y813003D01*
X5673648Y813917D01*
X5790844Y813917D01*
X5804306Y814781D01*
X5817209Y817372D01*
X5829655Y821588D01*
X5841441Y827379D01*
X5852363Y834694D01*
X5862472Y843584D01*
X5950915Y932027D01*
X5959805Y942136D01*
X5967120Y953058D01*
X5972911Y964844D01*
X5977128Y977290D01*
X5979718Y990193D01*
X5980582Y1003655D01*
X5980582Y1833778D01*
X5981344Y1837639D01*
X5983579Y1840941D01*
X6007658Y1865020D01*
X6010960Y1867255D01*
X6014821Y1868017D01*
X6085687Y1868017D01*
X6090005Y1867052D01*
X6093510Y1864360D01*
X6095542Y1860499D01*
X6095695Y1856079D01*
X6090107Y1843735D01*
X6087821Y1835251D01*
X6087008Y1826056D01*
X6087008Y1646936D01*
X6087821Y1637741D01*
X6090107Y1629206D01*
X6093815Y1621282D01*
X6098844Y1614068D01*
X6105093Y1607820D01*
X6112306Y1602790D01*
X6120282Y1599082D01*
X6128766Y1596796D01*
X6137960Y1595983D01*
X6317081Y1595983D01*
X6326276Y1596796D01*
X6334760Y1599082D01*
X6342735Y1602790D01*
X6349949Y1607820D01*
X6356197Y1614068D01*
X6361226Y1621282D01*
X6364935Y1629206D01*
X6365748Y1632305D01*
X6367678Y1636115D01*
X6371031Y1638757D01*
X6375146Y1639824D01*
X6379311Y1639112D01*
X6382867Y1636776D01*
X6386525Y1632966D01*
X6398920Y1622856D01*
X6412433Y1614170D01*
X6426809Y1607108D01*
X6441948Y1601673D01*
X6457543Y1598066D01*
X6473494Y1596237D01*
X6489547Y1596237D01*
X6505448Y1598066D01*
X6521094Y1601673D01*
X6536181Y1607108D01*
X6550609Y1614170D01*
X6564071Y1622856D01*
X6576517Y1632966D01*
X6587693Y1644497D01*
X6597497Y1657197D01*
X6605778Y1670913D01*
X6612432Y1685543D01*
X6617360Y1700784D01*
X6620560Y1716481D01*
X6621932Y1732483D01*
X6621475Y1748485D01*
X6619189Y1764385D01*
X6615125Y1779879D01*
X6609283Y1794865D01*
X6601815Y1809038D01*
X6592773Y1822246D01*
X6582257Y1834388D01*
X6570421Y1845259D01*
X6564375Y1849628D01*
X6561581Y1852777D01*
X6560261Y1856790D01*
X6560718Y1861007D01*
X6562801Y1864664D01*
X6566255Y1867103D01*
X6570370Y1868017D01*
X6888378Y1868017D01*
X6892239Y1867255D01*
X6895541Y1865020D01*
X7028078Y1732483D01*
X7034479Y1726590D01*
X7038035Y1723745D01*
X7045299Y1718665D01*
X7048957Y1716430D01*
X7057085Y1712214D01*
X7060742Y1710588D01*
X7069632Y1707388D01*
X7073138Y1706372D01*
X7082739Y1704289D01*
X7086041Y1703781D01*
X7096099Y1702968D01*
X7099147Y1702917D01*
X7109510Y1703425D01*
X7112253Y1703730D01*
X7125055Y1706270D01*
X7137755Y1710588D01*
X7149541Y1716379D01*
X7160463Y1723694D01*
X7170369Y1732330D01*
X7179005Y1742236D01*
X7185710Y1752142D01*
X7191806Y1764182D01*
X7196226Y1776831D01*
X7198868Y1789988D01*
X7199782Y1803400D01*
X7198918Y1816506D01*
X7196328Y1829409D01*
X7192111Y1841855D01*
X7186320Y1853641D01*
X7179005Y1864563D01*
X7170115Y1874672D01*
X7005472Y2039315D01*
X6995363Y2048205D01*
X6984441Y2055520D01*
X6972655Y2061311D01*
X6960209Y2065528D01*
X6947306Y2068118D01*
X6933844Y2068982D01*
X5969355Y2068982D01*
X5955893Y2068118D01*
X5942990Y2065528D01*
X5930544Y2061311D01*
X5918758Y2055520D01*
X5907836Y2048205D01*
X5897727Y2039315D01*
X5809284Y1950872D01*
X5800394Y1940763D01*
X5793079Y1929841D01*
X5787288Y1918055D01*
X5783072Y1905609D01*
X5780481Y1892706D01*
X5779617Y1879244D01*
X5779617Y1049121D01*
X5778855Y1045260D01*
X5776620Y1041958D01*
X5752541Y1017879D01*
X5749239Y1015644D01*
X5745378Y1014882D01*
X4077055Y1014882D01*
X4063593Y1014018D01*
X4050690Y1011428D01*
X4038244Y1007211D01*
X4026458Y1001420D01*
X4015536Y994105D01*
X4005427Y985215D01*
X3866032Y845870D01*
X3862527Y842162D01*
X3857244Y835812D01*
X3854196Y831646D01*
X3849928Y824890D01*
X3847337Y820064D01*
X3844137Y813104D01*
X3842105Y807720D01*
X3839921Y800658D01*
X3838549Y794715D01*
X3837381Y787806D01*
X3836720Y781405D01*
X3836517Y774700D01*
X3836720Y767994D01*
X3837381Y761593D01*
X3838549Y754684D01*
X3839921Y748741D01*
X3842105Y741680D01*
X3844137Y736295D01*
X3847337Y729335D01*
X3849928Y724509D01*
X3854196Y717753D01*
X3857244Y713587D01*
X3862476Y707288D01*
X3867708Y702005D01*
X3869893Y698703D01*
X3870655Y694842D01*
X3869893Y690930D01*
X3867658Y687679D01*
X3864356Y685444D01*
X3860495Y684682D01*
X2226818Y684682D01*
X2213406Y683818D01*
X2200503Y681228D01*
X2188057Y677011D01*
X2176272Y671220D01*
X2165350Y663905D01*
X2155190Y655015D01*
X2016201Y516026D01*
X2013305Y513994D01*
X2009902Y513080D01*
X2003653Y512521D01*
X1988261Y509270D01*
X1973325Y504240D01*
X1959102Y497433D01*
X1945792Y489051D01*
X1933549Y479094D01*
X1922576Y467817D01*
X1913026Y455269D01*
X1905000Y441706D01*
X1898650Y427329D01*
X1894078Y412242D01*
X1891284Y396748D01*
X1890318Y381000D01*
X1891284Y365252D01*
X1894078Y349758D01*
X1898650Y334721D01*
X1905000Y320294D01*
X1913026Y306730D01*
X1922576Y294182D01*
X1933549Y282905D01*
X1945792Y272948D01*
X1959102Y264566D01*
X1973325Y257759D01*
X1988261Y252729D01*
X2003653Y249478D01*
X2019350Y248107D01*
X2035098Y248564D01*
X2050694Y250901D01*
X2065883Y255016D01*
X2080514Y260959D01*
X2094280Y268579D01*
X2107082Y277723D01*
X2118715Y288391D01*
X2129028Y300329D01*
X2137816Y313385D01*
X2139289Y316230D01*
X2142032Y319582D01*
X2145893Y321462D01*
X2150160Y321614D01*
X2154174Y319938D01*
X2157069Y316788D01*
X2163013Y306730D01*
X2172563Y294182D01*
X2183536Y282905D01*
X2195779Y272948D01*
X2209088Y264566D01*
X2223312Y257759D01*
X2225700Y256997D01*
X2225700Y333400D01*
X2161286Y333400D01*
X2157679Y334060D01*
X2154580Y335940D01*
X2152294Y338836D01*
X2151176Y342290D01*
X2151380Y345948D01*
X2154174Y357479D01*
X2155444Y367944D01*
X2156409Y371195D01*
X2158339Y373938D01*
X2210054Y425602D01*
X2213356Y427837D01*
X2217216Y428599D01*
X2225700Y428599D01*
X2225700Y437083D01*
X2226462Y440943D01*
X2228697Y444246D01*
X2265172Y480720D01*
X2268423Y482955D01*
X2272334Y483717D01*
X2310739Y483717D01*
X2314651Y482955D01*
X2317953Y480720D01*
X2320137Y477418D01*
X2320899Y473557D01*
X2320899Y428599D01*
X2385314Y428599D01*
X2389022Y427888D01*
X2392222Y425907D01*
X2394458Y422859D01*
X2395474Y419201D01*
X2395016Y415493D01*
X2394051Y412242D01*
X2391257Y396748D01*
X2390343Y381000D01*
X2391257Y365252D01*
X2394051Y349758D01*
X2395016Y346506D01*
X2395474Y342798D01*
X2394458Y339140D01*
X2392222Y336092D01*
X2389022Y334111D01*
X2385314Y333400D01*
X2320899Y333400D01*
X2320899Y257048D01*
X2330500Y260959D01*
X2344318Y268579D01*
X2357120Y277723D01*
X2368702Y288391D01*
X2379014Y300329D01*
X2387803Y313385D01*
X2389276Y316230D01*
X2392019Y319582D01*
X2395880Y321462D01*
X2400198Y321614D01*
X2404160Y319938D01*
X2407056Y316788D01*
X2413000Y306730D01*
X2422601Y294182D01*
X2433574Y282905D01*
X2445766Y272948D01*
X2459126Y264566D01*
X2473350Y257759D01*
X2488234Y252729D01*
X2503678Y249478D01*
X2519375Y248107D01*
X2535123Y248564D01*
X2550718Y250901D01*
X2565908Y255016D01*
X2580487Y260959D01*
X2594305Y268579D01*
X2607106Y277723D01*
X2618740Y288391D01*
X2629001Y300329D01*
X2637790Y313385D01*
X2645003Y327406D01*
X2650490Y342188D01*
X2654198Y357479D01*
X2656078Y373126D01*
X2656078Y388874D01*
X2654198Y404520D01*
X2650490Y419862D01*
X2645003Y434593D01*
X2637790Y448614D01*
X2629001Y461670D01*
X2624531Y466902D01*
X2622600Y470255D01*
X2622042Y474065D01*
X2622956Y477774D01*
X2625191Y480923D01*
X2628442Y482955D01*
X2632202Y483717D01*
X3178911Y483717D01*
X3183280Y482752D01*
X3186785Y480009D01*
X3188766Y475996D01*
X3188868Y471525D01*
X3187090Y467461D01*
X3178098Y455422D01*
X3170224Y441807D01*
X3165094Y429869D01*
X3242462Y429869D01*
X3242462Y473557D01*
X3243224Y477418D01*
X3245408Y480720D01*
X3248710Y482955D01*
X3252622Y483717D01*
X3329990Y483717D01*
X3333902Y482955D01*
X3337153Y480720D01*
X3339388Y477418D01*
X3340150Y473557D01*
X3340150Y429869D01*
X3401110Y429869D01*
X3404819Y429158D01*
X3407968Y427177D01*
X3410254Y424129D01*
X3411220Y420522D01*
X3410813Y416763D01*
X3409492Y412242D01*
X3406749Y396748D01*
X3405835Y381000D01*
X3406749Y365252D01*
X3409492Y349758D01*
X3410813Y345236D01*
X3411220Y341477D01*
X3410254Y337870D01*
X3407968Y334822D01*
X3404819Y332841D01*
X3401110Y332130D01*
X3340150Y332130D01*
X3340150Y254863D01*
X3344976Y256590D01*
X3359048Y263652D01*
X3372205Y272338D01*
X3384296Y282448D01*
X3395065Y293928D01*
X3404514Y306578D01*
X3407511Y311759D01*
X3410356Y314909D01*
X3414217Y316636D01*
X3418433Y316636D01*
X3422294Y314909D01*
X3425088Y311759D01*
X3428136Y306578D01*
X3437534Y293928D01*
X3440074Y290169D01*
X3440836Y286410D01*
X3440836Y256336D01*
X3441700Y242874D01*
X3444240Y229971D01*
X3448456Y217525D01*
X3454298Y205740D01*
X3461613Y194818D01*
X3470503Y184708D01*
X3587343Y67818D01*
X3589528Y64566D01*
X3590290Y60655D01*
X3589528Y56743D01*
X3587343Y53492D01*
X3584041Y51257D01*
X3580129Y50495D01*
G37*

%LPC*%
G36*
X525068Y123596D02*
G01*
X543915Y133502D01*
X564388Y146405D01*
X583742Y160985D01*
X601827Y177038D01*
X618591Y194462D01*
X633933Y213207D01*
X647649Y233121D01*
X659739Y254050D01*
X663702Y262382D01*
X525068Y262382D01*
G37*
G36*
X262331Y123596D02*
G01*
X262331Y262382D01*
X123698Y262382D01*
X127609Y254050D01*
X139750Y233121D01*
X153466Y213207D01*
X168757Y194462D01*
X185521Y177038D01*
X203657Y160985D01*
X223012Y146405D01*
X243433Y133502D01*
G37*
G36*
X3242462Y254863D02*
G01*
X3242462Y332130D01*
X3165094Y332130D01*
X3170224Y320192D01*
X3178098Y306578D01*
X3187496Y293928D01*
X3198317Y282448D01*
X3210407Y272338D01*
X3223564Y263652D01*
X3237636Y256590D01*
G37*
G36*
X525068Y525068D02*
G01*
X663702Y525068D01*
X659739Y533400D01*
X647649Y554329D01*
X633933Y574243D01*
X618591Y592988D01*
X601827Y610412D01*
X583742Y626465D01*
X564388Y641045D01*
X543915Y653948D01*
X525068Y663854D01*
G37*
G36*
X123698Y525068D02*
G01*
X262331Y525068D01*
X262331Y663854D01*
X243433Y653948D01*
X223012Y641045D01*
X203657Y626465D01*
X185521Y610412D01*
X168757Y592988D01*
X153466Y574243D01*
X139750Y554329D01*
X127609Y533349D01*
G37*
G36*
X5202631Y1507896D02*
G01*
X5202631Y1646682D01*
X5063998Y1646682D01*
X5067909Y1638350D01*
X5080050Y1617421D01*
X5093766Y1597507D01*
X5109057Y1578762D01*
X5125821Y1561338D01*
X5143957Y1545285D01*
X5163312Y1530705D01*
X5183733Y1517802D01*
G37*
G36*
X5465368Y1507896D02*
G01*
X5484215Y1517802D01*
X5504688Y1530705D01*
X5524042Y1545285D01*
X5542127Y1561338D01*
X5558891Y1578762D01*
X5574233Y1597507D01*
X5587949Y1617421D01*
X5600039Y1638350D01*
X5604002Y1646682D01*
X5465368Y1646682D01*
G37*
G36*
X3697579Y1583283D02*
G01*
X3876649Y1583283D01*
X3885895Y1584096D01*
X3894378Y1586382D01*
X3902354Y1590090D01*
X3909568Y1595120D01*
X3915765Y1601368D01*
X3920794Y1608582D01*
X3924503Y1616506D01*
X3925366Y1619605D01*
X3927297Y1623415D01*
X3930599Y1626057D01*
X3934714Y1627124D01*
X3938930Y1626412D01*
X3942435Y1624076D01*
X3946144Y1620266D01*
X3958539Y1610156D01*
X3972051Y1601470D01*
X3986428Y1594408D01*
X4001515Y1588973D01*
X4017162Y1585366D01*
X4033113Y1583537D01*
X4049115Y1583537D01*
X4065066Y1585366D01*
X4080662Y1588973D01*
X4095800Y1594408D01*
X4110177Y1601470D01*
X4123690Y1610156D01*
X4136085Y1620266D01*
X4147261Y1631797D01*
X4157065Y1644497D01*
X4165346Y1658213D01*
X4172000Y1672843D01*
X4176979Y1688084D01*
X4180179Y1703781D01*
X4181551Y1719783D01*
X4181094Y1735785D01*
X4178808Y1751685D01*
X4174693Y1767179D01*
X4168901Y1782165D01*
X4161383Y1796338D01*
X4152341Y1809546D01*
X4141825Y1821688D01*
X4130040Y1832559D01*
X4117035Y1841957D01*
X4103115Y1849831D01*
X4088333Y1856079D01*
X4072940Y1860600D01*
X4057142Y1863343D01*
X4041089Y1864258D01*
X4025087Y1863343D01*
X4009288Y1860600D01*
X3993896Y1856079D01*
X3979113Y1849831D01*
X3965143Y1841957D01*
X3952189Y1832559D01*
X3942029Y1823212D01*
X3938473Y1821078D01*
X3934358Y1820570D01*
X3930396Y1821688D01*
X3927195Y1824380D01*
X3925315Y1828038D01*
X3924503Y1831035D01*
X3920794Y1839010D01*
X3915765Y1846224D01*
X3909568Y1852422D01*
X3902354Y1857502D01*
X3894378Y1861210D01*
X3885895Y1863496D01*
X3876649Y1864258D01*
X3697579Y1864258D01*
X3688334Y1863496D01*
X3679850Y1861210D01*
X3671874Y1857502D01*
X3664661Y1852422D01*
X3658463Y1846224D01*
X3653434Y1839010D01*
X3649726Y1831035D01*
X3647440Y1822551D01*
X3646627Y1813356D01*
X3646627Y1634236D01*
X3647440Y1625041D01*
X3649726Y1616506D01*
X3653434Y1608582D01*
X3658463Y1601368D01*
X3664661Y1595120D01*
X3671874Y1590090D01*
X3679850Y1586382D01*
X3688334Y1584096D01*
G37*
G36*
X1168247Y1599387D02*
G01*
X1347368Y1599387D01*
X1356563Y1600200D01*
X1365046Y1602486D01*
X1373022Y1606194D01*
X1380236Y1611223D01*
X1386484Y1617472D01*
X1391513Y1624685D01*
X1395222Y1632610D01*
X1396034Y1635709D01*
X1397965Y1639519D01*
X1401318Y1642160D01*
X1405432Y1643227D01*
X1409598Y1642516D01*
X1413154Y1640179D01*
X1416812Y1636369D01*
X1429207Y1626260D01*
X1442720Y1617573D01*
X1457096Y1610512D01*
X1472234Y1605076D01*
X1487830Y1601470D01*
X1503781Y1599641D01*
X1519834Y1599641D01*
X1535734Y1601470D01*
X1551381Y1605076D01*
X1566468Y1610512D01*
X1580896Y1617573D01*
X1594358Y1626260D01*
X1606804Y1636369D01*
X1617980Y1647901D01*
X1627784Y1660601D01*
X1636064Y1674317D01*
X1642719Y1688947D01*
X1647647Y1704187D01*
X1650847Y1719884D01*
X1652219Y1735886D01*
X1651762Y1751888D01*
X1649475Y1767789D01*
X1645412Y1783283D01*
X1639570Y1798269D01*
X1632102Y1812442D01*
X1623060Y1825650D01*
X1612544Y1837791D01*
X1600708Y1848662D01*
X1587754Y1858060D01*
X1573784Y1865934D01*
X1559001Y1872183D01*
X1543608Y1876704D01*
X1527810Y1879447D01*
X1511808Y1880362D01*
X1495806Y1879447D01*
X1480007Y1876704D01*
X1464614Y1872183D01*
X1449832Y1865934D01*
X1435862Y1858060D01*
X1422857Y1848662D01*
X1412697Y1839315D01*
X1409141Y1837182D01*
X1405026Y1836674D01*
X1401064Y1837791D01*
X1397863Y1840484D01*
X1396034Y1844141D01*
X1395222Y1847138D01*
X1391513Y1855114D01*
X1386484Y1862328D01*
X1380236Y1868525D01*
X1373022Y1873605D01*
X1365046Y1877314D01*
X1356563Y1879600D01*
X1347368Y1880362D01*
X1168247Y1880362D01*
X1159052Y1879600D01*
X1150569Y1877314D01*
X1142593Y1873605D01*
X1135380Y1868525D01*
X1129131Y1862328D01*
X1124102Y1855114D01*
X1120394Y1847138D01*
X1118108Y1838655D01*
X1117295Y1829460D01*
X1117295Y1650339D01*
X1118108Y1641144D01*
X1120394Y1632610D01*
X1124102Y1624685D01*
X1129131Y1617472D01*
X1135380Y1611223D01*
X1142593Y1606194D01*
X1150569Y1602486D01*
X1159052Y1600200D01*
G37*
G36*
X5465368Y1909368D02*
G01*
X5604002Y1909368D01*
X5600039Y1917700D01*
X5587949Y1938629D01*
X5574233Y1958543D01*
X5558891Y1977288D01*
X5542127Y1994712D01*
X5524042Y2010765D01*
X5504688Y2025345D01*
X5484215Y2038248D01*
X5465368Y2048154D01*
G37*
G36*
X5063998Y1909368D02*
G01*
X5202631Y1909368D01*
X5202631Y2048154D01*
X5183733Y2038248D01*
X5163312Y2025345D01*
X5143957Y2010765D01*
X5125821Y1994712D01*
X5109057Y1977288D01*
X5093766Y1958543D01*
X5080050Y1938629D01*
X5067909Y1917649D01*
G37*

%LPD*%
D10*
X6226556Y2498597D02*
G01*
X6226556Y2358644D01*
X6375400Y2209800D01*
X7188200Y2209800D01*
X7950200Y2971800D01*
X7950200Y5245100D01*
X8051800Y5346700D01*
X8307577Y5346700D01*
X7099300Y1803400D02*
G01*
X6934200Y1968500D01*
X5969000Y1968500D01*
X5880100Y1879600D01*
X5880100Y1003300D01*
X5791200Y914400D01*
X4076700Y914400D01*
X3937000Y774700D01*
X2023300Y381000D02*
G01*
X2226500Y584200D01*
X5041900Y584200D01*
X5168900Y711200D01*
X5613400Y711200D01*
X5703824Y620776D01*
X5703824Y519303D01*
X5703824Y318896D02*
G01*
X5703824Y230123D01*
X5600700Y127000D01*
X3670300Y127000D01*
X3541306Y255993D01*
X3541306Y381000D01*
X5503925Y319151D02*
G01*
X4619155Y319151D01*
X4557306Y381000D01*
X7721600Y2406904D02*
G01*
X7829295Y2406904D01*
X7962900Y2273300D01*
X7962900Y1155700D01*
X8178800Y939800D01*
X8864600Y939800D01*
X9104375Y700023D01*
X9104375Y519684D01*
X8904224Y519684D02*
G01*
X8904224Y608076D01*
X8737600Y774700D01*
X7493000Y774700D01*
X7366000Y901700D01*
X7366000Y2057400D01*
X7465568Y2156968D01*
X7721600Y2156968D01*
X8617978Y1605000D02*
G01*
X8617978Y2605001D01*
X898652Y3366770D02*
G01*
X898652Y2974847D01*
X1256792Y2616707D01*
X1256792Y2501900D01*
X3413224Y3363366D02*
G01*
X3413224Y2973473D01*
X3786101Y2600604D01*
X3786101Y2485796D01*
X5902411Y3363366D02*
G01*
X5902411Y2950108D01*
X6226510Y2626004D01*
X6226510Y2498496D01*
X8561585Y3492500D02*
G01*
X8307585Y3492500D01*
X8617978Y2605001D02*
G01*
X8617978Y3436099D01*
X8561585Y3492500D01*
X8561585Y5346700D02*
G01*
X8307585Y5346700D01*
X8561585Y5346700D02*
G01*
X8723472Y5508594D01*
X8723472Y5867400D01*
X5902452Y3363468D02*
G01*
X5471668Y3363468D01*
X5334000Y3225800D01*
X5334000Y2387600D01*
X5207000Y2260600D01*
X3911600Y2260600D01*
X3784600Y2387600D01*
X3786124Y2485897D01*
X3413252Y3363468D02*
G01*
X2944368Y3363468D01*
X2794000Y3213100D01*
X2794000Y2374900D01*
X2679700Y2260600D01*
X1358900Y2260600D01*
X1257300Y2362200D01*
X1256792Y2501900D01*
D11*
X7265797Y5296585D02*
G01*
X7265797Y4746904D01*
X7102398Y4583506D01*
X6503924Y5296662D02*
G01*
X6502400Y3163570D01*
X5741797Y5296585D02*
G01*
X5741797Y4744110D01*
X5902401Y4583506D01*
X4776597Y5296585D02*
G01*
X4776597Y4746904D01*
X4613198Y4583506D01*
X4014724Y5296662D02*
G01*
X4013200Y3163570D01*
X3252597Y5296585D02*
G01*
X3252597Y4744110D01*
X3413201Y4583506D01*
X2261997Y5299989D02*
G01*
X2261997Y4750307D01*
X2098598Y4586909D01*
X1499870Y5299963D02*
G01*
X1498600Y3166871D01*
X737996Y5299989D02*
G01*
X737996Y4747513D01*
X898601Y4586909D01*
D12*
G01*
X2023300Y381000D03*
G01*
X2273312Y381000D03*
G01*
X2523299Y381000D03*
D13*
G01*
X4557306Y381000D03*
G01*
X4307293Y381000D03*
G01*
X3541306Y381000D03*
G01*
X3291293Y381000D03*
D14*
G01*
X7721600Y1656994D03*
D15*
G01*
X7721600Y1907006D03*
G01*
X7721600Y2156993D03*
G01*
X7721600Y2407005D03*
D16*
G01*
X5741797Y5296585D03*
G01*
X6503797Y5296585D03*
D17*
G01*
X7265797Y5296585D03*
D16*
G01*
X3252597Y5296585D03*
G01*
X4014597Y5296585D03*
D17*
G01*
X4776597Y5296585D03*
D16*
G01*
X737996Y5299989D03*
G01*
X1499996Y5299989D03*
D17*
G01*
X2261997Y5299989D03*
D18*
G01*
X8617965Y2604998D03*
D19*
G01*
X8867978Y2604998D03*
G01*
X9067977Y2604998D03*
G01*
X9317990Y2604998D03*
D11*
G01*
X9617989Y2394991D03*
G01*
X8317991Y2394991D03*
D18*
G01*
X8617965Y1605000D03*
D19*
G01*
X8867978Y1605000D03*
G01*
X9067977Y1605000D03*
G01*
X9317990Y1605000D03*
D11*
G01*
X9617989Y1394993D03*
G01*
X8317991Y1394993D03*
D20*
G01*
X5503925Y319151D03*
G01*
X5503925Y519048D03*
G01*
X5703824Y318896D03*
G01*
X5703824Y519303D03*
G01*
X5903722Y318896D03*
G01*
X5903975Y519048D03*
G01*
X6104127Y318896D03*
G01*
X6103874Y519048D03*
G01*
X6304279Y318643D03*
G01*
X6304279Y518795D03*
G01*
X6504177Y318896D03*
G01*
X6504177Y519048D03*
G01*
X6703822Y318896D03*
G01*
X6704075Y519048D03*
G01*
X6903974Y318896D03*
G01*
X6904227Y519048D03*
G01*
X7104125Y318896D03*
G01*
X7104125Y519048D03*
G01*
X7304277Y318896D03*
G01*
X7304277Y518795D03*
G01*
X7504429Y319659D03*
G01*
X7504684Y519556D03*
G01*
X7704581Y319659D03*
G01*
X7704836Y519556D03*
G01*
X7904225Y319659D03*
G01*
X7904225Y519556D03*
G01*
X8104377Y319659D03*
G01*
X8104377Y519556D03*
G01*
X8304275Y319659D03*
G01*
X8304275Y519556D03*
G01*
X8504427Y319404D03*
G01*
X8504427Y519556D03*
G01*
X8704325Y319659D03*
G01*
X8704325Y519556D03*
G01*
X8904224Y319659D03*
G01*
X8904224Y519556D03*
G01*
X9104375Y319659D03*
G01*
X9104375Y519556D03*
G01*
X9304274Y319659D03*
G01*
X9304274Y519556D03*
D21*
G01*
X6481521Y1736496D03*
G01*
X6480505Y2498496D03*
G01*
X6226505Y2498496D03*
D22*
G01*
X6227521Y1736496D03*
D21*
G01*
X4041114Y1723796D03*
G01*
X4040098Y2485796D03*
G01*
X3786098Y2485796D03*
D22*
G01*
X3787114Y1723796D03*
D21*
G01*
X1511807Y1739900D03*
G01*
X1510792Y2501900D03*
G01*
X1256792Y2501900D03*
D22*
G01*
X1257807Y1739900D03*
D23*
G01*
X7102398Y3363493D03*
G01*
X6502400Y3163493D03*
G01*
X5902401Y3363493D03*
G01*
X5902401Y4583506D03*
G01*
X7102398Y4583506D03*
G01*
X4613198Y3363493D03*
G01*
X4013200Y3163493D03*
G01*
X3413201Y3363493D03*
G01*
X3413201Y4583506D03*
G01*
X4613198Y4583506D03*
G01*
X2098598Y3366896D03*
G01*
X1498600Y3166897D03*
G01*
X898601Y3366896D03*
G01*
X898601Y4586909D03*
G01*
X2098598Y4586909D03*
D24*
G01*
X8727973Y6421399D03*
G01*
X8723477Y5867400D03*
D25*
G01*
X8278977Y6121400D03*
D19*
G01*
X8307577Y5346700D03*
G01*
X8561577Y5346700D03*
G01*
X9374377Y5346700D03*
G01*
X9628377Y5346700D03*
G01*
X9628377Y3492500D03*
G01*
X9374377Y3492500D03*
G01*
X8561577Y3492500D03*
G01*
X8307577Y3492500D03*
D26*
G01*
X393700Y393700D03*
G01*
X9575800Y6604000D03*
G01*
X393700Y3962400D03*
G01*
X5334000Y1778000D03*
D10*
G01*
X596900Y393700D03*
G01*
X190500Y393700D03*
G01*
X241300Y520700D03*
G01*
X546100Y520700D03*
G01*
X520700Y241300D03*
G01*
X393700Y190500D03*
G01*
X266700Y241300D03*
G01*
X393700Y596900D03*
G01*
X9575800Y6807200D03*
G01*
X9448800Y6451600D03*
G01*
X9575800Y6400800D03*
G01*
X9702800Y6451600D03*
G01*
X9728200Y6731000D03*
G01*
X9423400Y6731000D03*
G01*
X9372600Y6604000D03*
G01*
X9779000Y6604000D03*
G01*
X393700Y4165600D03*
G01*
X266700Y3810000D03*
G01*
X393700Y3759200D03*
G01*
X520700Y3810000D03*
G01*
X546100Y4089400D03*
G01*
X241300Y4089400D03*
G01*
X190500Y3962400D03*
G01*
X596900Y3962400D03*
G01*
X5537200Y1778000D03*
G01*
X5130800Y1778000D03*
G01*
X5181600Y1905000D03*
G01*
X5486400Y1905000D03*
G01*
X5461000Y1625600D03*
G01*
X5334000Y1574800D03*
G01*
X5207000Y1625600D03*
G01*
X5334000Y1981200D03*
G01*
X7099300Y1803400D03*
G01*
X3937000Y774700D03*
M02*
